<?xml version="1.0" encoding="utf-8"?>
<!-- Generator: Adobe Illustrator 19.0.0, SVG Export Plug-In . SVG Version: 6.00 Build 0)  -->
<svg version="1.1" id="layer" xmlns="http://www.w3.org/2000/svg" xmlns:xlink="http://www.w3.org/1999/xlink" x="0px" y="0px"
	 viewBox="-153 -46 652 652" style="enable-background:new -153 -46 652 652;" xml:space="preserve">
<g>
	<path d="M-105.9,237.8c-1.5,0-2.8,0.4-3.6,1.1c-1.1,0.9-1.5,1.7-1.5,3c0,1.1,0.4,2.1,1.5,2.8c1.1,0.9,2.1,1.1,3.6,1.1
		c0.9,0,1.7-0.2,2.6-0.4c0.9-0.4,1.5-0.9,1.9-1.5c0.4-0.6,0.6-1.3,0.6-2.1c0-0.6-0.2-1.1-0.4-1.7c-0.2-0.4-0.6-0.9-1.1-1.3
		c-0.4-0.4-1.1-0.6-1.7-0.9C-104.7,238-105.3,237.8-105.9,237.8 M-105.9,233.7c2.8,0,5.4,0.9,7.3,2.4c2.1,1.7,3,3.6,3,5.8
		c0,2.4-1.1,4.3-3,5.8c-2.1,1.7-4.5,2.4-7.3,2.4c-1.9,0-3.6-0.4-5.1-1.1c-1.5-0.9-2.8-1.7-3.9-3c-0.9-1.3-1.5-2.6-1.5-4.3
		c0-2.4,1.1-4.3,3-5.8C-111.3,234.5-108.7,233.7-105.9,233.7 M-93.5,275.7c-1.9,0.6-4.9,1.3-8.8,1.9c-3.9,0.6-6.4,1.1-7.9,1.5
		c-1.5,0.2-3,0.9-4.3,1.7c-1.3,0.9-1.9,2.1-1.9,3.9c0,1.7,0.9,3,2.4,4.3c1.5,1.1,3.6,1.7,6.2,1.7c2.8,0,5.1-0.4,7.5-1.5
		c2.4-0.9,4.1-2.1,5.1-3.6c1.3-1.7,1.9-4.5,1.9-8.1v-1.7H-93.5z M-92.7,291.7c-3.4,2.1-6.6,3.6-9.6,4.7c-3.2,1.1-6.6,1.5-10.5,1.5
		c-3.6,0-6.6-0.6-9.2-1.7c-2.6-1.1-4.7-2.6-6.2-4.5c-1.5-1.9-2.1-4.1-2.1-6.2c0-3,1.3-5.6,3.6-7.7c2.4-2.1,5.6-3.6,9.9-4.3
		c0.9-0.2,3-0.4,6.4-1.1s6.4-1.1,9-1.5c2.6-0.4,5.1-1.1,8.1-1.7c-0.2-2.8-0.9-4.9-2.1-6.4c-1.3-1.3-4.1-1.9-8.1-1.9
		c-3.4,0-6.2,0.4-7.9,1.1c-1.7,0.9-3.2,1.9-4.5,3.4s-2.1,2.6-2.6,3c-0.9,0.4-1.9,0.9-3.6,0.9c-1.5,0-2.8-0.4-4.1-1.3
		c-1.1-0.9-1.7-1.7-1.7-3c0-1.9,0.9-3.9,2.6-5.6c1.7-1.9,4.3-3.4,7.9-4.5c3.6-1.3,8.1-1.7,13.5-1.7c6,0,10.7,0.6,14.3,1.7
		c3.4,1.1,6,3,7.3,5.4c1.5,2.6,2.1,5.8,2.1,9.9c0,2.6,0,4.7,0,6.6c0,1.7,0,3.9,0,6c0,2.1,0.4,4.3,1.3,6.4s1.3,3.6,1.3,4.3
		c0,1.1-0.6,2.1-1.9,3c-1.3,0.9-2.8,1.3-4.5,1.3c-1.5,0-2.8-0.4-4.3-1.5C-89.7,295.1-91.2,293.6-92.7,291.7"/>
	<path d="M-31.9,292.8l-12.2-16.1l-7.5,5.6v8.8c0,2.1-0.6,3.9-2.1,4.9c-1.5,1.1-3,1.7-4.7,1.7c-2.1,0-3.9-0.6-4.9-1.7
		c-1.3-1.1-1.7-2.8-1.7-4.9v-46.9c0-2.4,0.6-4.3,1.7-5.6s2.8-1.9,5.1-1.9c2.1,0,3.9,0.6,5.1,1.7c1.3,1.1,1.9,2.8,1.9,5.1v26.8
		l15.4-13.1c1.9-1.7,3.4-2.8,4.3-3.2c1.1-0.6,2.1-0.9,3.6-0.9c1.7,0,3.2,0.4,4.3,1.3c1.1,0.9,1.7,1.9,1.7,3.2c0,1.7-1.9,3.9-5.6,6.4
		l-7.3,5.4l14.1,17.8c1.1,1.3,1.7,2.4,2.1,3s0.6,1.3,0.6,1.9c0,1.7-0.6,3.2-1.7,4.1c-1.3,1.1-2.8,1.5-4.7,1.5c-1.7,0-3-0.4-3.9-1.1
		C-29.1,296-30.4,294.7-31.9,292.8"/>
	<path d="M0.7,272h24.8c-0.4-3.9-1.5-6.6-3.9-8.4c-2.1-1.9-5.1-2.8-8.8-2.8c-3.4,0-6.2,0.9-8.4,2.8C2.4,265.4,1.1,268.2,0.7,272
		 M27.7,278.2h-27c0,2.6,0.6,4.7,1.9,6.6c1.3,1.9,2.8,3.4,4.9,4.3c1.9,1.1,4.3,1.5,6.6,1.5c1.7,0,3.2-0.2,4.5-0.4s2.8-0.9,3.9-1.5
		c1.3-0.6,2.4-1.3,3.4-2.1s2.6-1.7,4.3-3c0.6-0.4,1.7-0.6,3-0.6c1.5,0,2.6,0.2,3.4,0.9c0.9,0.6,1.3,1.5,1.3,2.6
		c0,1.1-0.4,2.1-1.5,3.4s-2.4,2.6-4.5,3.9c-1.9,1.3-4.5,2.1-7.5,3s-6.4,1.3-10.3,1.3c-8.8,0-15.6-1.9-20.6-6
		c-4.9-4.1-7.3-9.4-7.3-16.5c0-3.2,0.6-6.2,1.7-9c1.3-2.8,3-5.1,5.4-7.1c2.4-1.9,5.1-3.4,8.6-4.5s7.1-1.5,11.3-1.5
		c5.4,0,10.1,0.9,13.9,2.8c3.9,1.7,6.6,4.1,8.6,7.1c1.9,2.8,2.8,5.8,2.8,8.8c0,2.8-1.1,4.5-3,5.4C33.9,277.8,31.1,278.2,27.7,278.2"
		/>
	<path d="M64.1,281.9v9.2c0,2.1-0.6,3.9-1.9,4.9c-1.3,1.1-3,1.7-4.9,1.7c-1.9,0-3.6-0.6-4.9-1.7c-1.3-1.1-1.9-2.8-1.9-4.9v-30.6
		c0-4.9,2.1-7.5,6.6-7.5c2.4,0,3.9,0.6,4.9,1.7c1.1,1.1,1.5,2.8,1.7,5.1c1.7-2.4,3.4-4.1,5.1-5.1s4.1-1.7,6.9-1.7
		c2.8,0,5.8,0.6,8.4,1.7c2.8,1.1,4.1,2.8,4.1,4.5c0,1.3-0.6,2.4-1.7,3.4c-1.1,0.9-2.4,1.3-3.9,1.3c-0.4,0-1.7-0.2-3.6-0.6
		c-1.9-0.4-3.6-0.6-5.1-0.6c-1.9,0-3.6,0.4-4.9,1.3c-1.3,0.9-2.4,2.1-3,3.9c-0.6,1.7-1.3,3.6-1.5,6
		C64.3,275.9,64.1,278.7,64.1,281.9"/>
	<path d="M115,238.6v49c0,3.4-0.9,6-2.6,7.7c-1.7,1.7-4.1,2.6-6.9,2.6c-2.8,0-4.9-0.9-6.6-2.6c-1.7-1.7-2.6-4.3-2.6-7.7v-48.4
		c0-3.4,0.9-5.8,2.6-7.5c1.7-1.7,3.9-2.6,6.6-2.6c2.8,0,4.9,0.9,6.6,2.6C114.2,233.3,115,235.6,115,238.6 M105.8,221.1
		c-2.6,0-4.7-0.6-6.6-2.1c-1.9-1.5-2.8-3.4-2.8-6.2c0-2.4,0.9-4.3,2.8-6c1.9-1.5,4.1-2.4,6.6-2.4c2.4,0,4.5,0.6,6.4,2.1
		c1.9,1.5,2.8,3.4,2.8,6.2c0,2.6-0.9,4.7-2.8,6.2C110.5,220.4,108.4,221.1,105.8,221.1"/>
	<path d="M173.3,283.4c0,3-0.9,5.6-2.8,7.7c-1.9,2.1-4.5,3.9-8.1,4.9c-3.6,1.1-7.9,1.7-13.3,1.7c-4.9,0-9.2-0.6-12.6-1.7
		c-3.4-1.3-6.2-2.8-7.7-4.5c-1.7-1.7-2.6-3.6-2.6-5.6c0-1.3,0.6-2.1,1.7-3.2c1.1-0.9,2.4-1.3,4.1-1.3c1.5,0,2.6,0.2,3.4,0.9
		c0.9,0.6,1.5,1.3,2.1,2.4c1.5,1.9,3,3.4,5.1,4.5c1.9,1.1,4.7,1.5,8.1,1.5c2.8,0,4.9-0.4,6.9-1.5c1.7-1.1,2.6-2.1,2.6-3.4
		c0-1.9-0.9-3.4-2.8-4.3c-1.9-0.9-4.9-1.7-9-2.6c-4.7-0.9-8.6-1.9-11.6-3c-3-1.1-5.4-2.4-7.1-4.1c-1.7-1.7-2.6-3.9-2.6-6.2
		c0-2.1,0.9-4.3,2.6-6.2c1.7-1.9,4.1-3.4,7.3-4.7c3.2-1.1,7.1-1.7,11.6-1.7c3.6,0,6.9,0.2,9.6,0.9c2.8,0.6,5.1,1.3,7.1,2.4
		c1.9,1.1,3.4,2.1,4.3,3.2c1.1,1.3,1.5,2.4,1.5,3.6s-0.4,2.4-1.5,3.2c-1.1,0.9-2.6,1.3-4.5,1.3c-1.5,0-2.6-0.4-3.6-1.1
		s-2.1-1.7-3.4-3c-1.1-1.1-2.4-1.9-3.6-2.6c-1.5-0.6-3.4-1.1-5.8-1.1c-2.6,0-4.5,0.4-6.2,1.3c-1.7,0.9-2.6,1.9-2.6,3.2
		c0,1.1,0.6,2.1,1.7,2.8c1.3,0.6,2.8,1.3,4.9,1.9c2.1,0.4,4.9,1.1,8.6,1.7c4.3,0.9,7.7,1.9,10.5,3c2.8,1.1,4.7,2.6,6.2,4.1
		C172.4,279.7,173.3,281.4,173.3,283.4"/>
	<path d="M216.1,238.6c0.9,0,1.9,0.2,2.8,0.6c0.9,0.4,1.7,1.1,2.1,1.7c0.4,0.6,0.9,1.5,0.9,2.4c0,1.5-0.6,2.6-1.7,3.2
		c-1.1,0.9-2.4,1.3-4.1,1.3c-1.5,0-2.8-0.4-3.9-1.3c-1.1-0.9-1.7-1.9-1.7-3.2c0-1.3,0.6-2.4,1.7-3.2
		C213.3,239,214.6,238.6,216.1,238.6 M218.7,275.9c-1.9,0.6-4.9,1.3-8.8,1.9s-6.4,1.1-7.9,1.5c-1.5,0.2-3,0.9-4.3,1.7
		c-1.3,0.9-1.9,2.1-1.9,3.9c0,1.7,0.9,3,2.4,4.3c1.5,1.1,3.6,1.7,6.2,1.7c2.8,0,5.1-0.4,7.5-1.5c2.4-0.9,4.1-2.1,5.1-3.6
		c1.3-1.7,1.9-4.5,1.9-8.1v-1.7H218.7z M196.4,247.8c-1.5,0-2.8-0.4-3.9-1.3c-1.1-0.9-1.7-1.9-1.7-3.2c0-1.3,0.6-2.4,1.7-3.2
		c1.1-0.9,2.4-1.3,4.1-1.3c1.5,0,2.8,0.4,4.1,1.1c1.1,0.9,1.7,1.9,1.7,3.4s-0.6,2.6-1.7,3.2C199.4,247.4,198.1,247.8,196.4,247.8
		 M219.5,291.7c-3.4,2.1-6.6,3.6-9.6,4.7c-3.2,1.1-6.6,1.5-10.5,1.5c-3.6,0-6.6-0.6-9.2-1.7c-2.6-1.1-4.7-2.6-6.2-4.5
		c-1.5-1.9-2.1-4.1-2.1-6.2c0-3,1.3-5.6,3.6-7.7c2.4-2.1,5.6-3.6,9.9-4.3c0.9-0.2,3-0.4,6.4-1.1c3.4-0.6,6.4-1.1,9-1.5
		c2.6-0.4,5.1-1.1,8.1-1.7c-0.2-2.8-0.9-4.9-2.1-6.4c-1.3-1.3-4.1-1.9-8.1-1.9c-3.4,0-6.2,0.4-7.9,1.1c-1.7,0.9-3.2,1.9-4.5,3.4
		s-2.1,2.6-2.6,3c-0.4,0.4-1.7,0.6-3.4,0.6c-1.5,0-2.8-0.4-4.1-1.3c-1.1-0.9-1.7-1.7-1.7-3c0-1.9,0.9-3.9,2.6-5.6
		c1.7-1.9,4.5-3.4,7.9-4.5c3.6-1.3,8.1-1.7,13.5-1.7c6,0,10.9,0.6,14.3,1.7c3.4,1.1,6,3,7.3,5.4c1.5,2.6,2.1,5.8,2.1,9.9
		c0,2.6,0,4.7,0,6.6c0,1.7,0,3.9,0,6s0.4,4.3,1.3,6.4c0.9,2.1,1.3,3.6,1.3,4.3c0,1.1-0.6,2.1-1.9,3c-1.3,0.9-2.8,1.3-4.5,1.3
		c-1.5,0-2.8-0.4-4.3-1.5C222.5,295.1,221.2,293.6,219.5,291.7"/>
	<path d="M295.6,284.2c0,1.3-0.4,2.8-1.5,4.5c-1.1,1.5-2.6,3-4.7,4.5s-4.7,2.6-7.9,3.4c-3.2,0.9-6.9,1.3-10.7,1.3
		c-8.6,0-15.2-1.9-19.9-6c-4.7-4.1-7.1-9.2-7.1-15.8c0-4.5,1.1-8.6,3.2-12s5.4-6.2,9.4-8.1c4.1-1.9,9-2.8,14.8-2.8
		c3.6,0,6.9,0.4,9.9,1.3c3,0.9,5.6,1.9,7.5,3.2c2.1,1.3,3.6,2.8,4.7,4.3c1.1,1.5,1.7,2.8,1.7,4.3c0,1.3-0.6,2.4-1.9,3.4
		c-1.3,0.9-2.8,1.3-4.5,1.3c-1.1,0-2.1-0.2-2.8-0.6c-0.9-0.4-1.5-1.3-2.6-2.4c-1.7-2.1-3.4-3.6-5.4-4.5c-1.9-1.1-4.1-1.5-7.1-1.5
		c-4.1,0-7.3,1.3-9.9,3.9c-2.6,2.6-3.6,6-3.6,10.5c0,2.1,0.2,4.1,0.9,5.8c0.6,1.7,1.5,3.2,2.8,4.5c1.3,1.3,2.6,2.1,4.3,2.8
		c1.7,0.6,3.6,0.9,5.6,0.9c2.8,0,5.1-0.4,7.1-1.5c1.9-1.1,3.6-2.6,5.1-4.7c0.9-1.3,1.7-2.1,2.8-3c1.1-0.6,2.1-1.1,3.6-1.1
		c1.7,0,3,0.4,4.3,1.5C294.9,282.1,295.6,283.2,295.6,284.2"/>
	<path d="M337.7,292.8l-12.2-16.1l-7.5,5.6v8.8c0,2.1-0.6,3.9-2.1,4.9c-1.5,1.1-3,1.7-4.7,1.7c-2.1,0-3.9-0.6-4.9-1.7
		c-1.3-1.1-1.7-2.8-1.7-4.9v-46.9c0-2.4,0.6-4.3,1.7-5.6c1.1-1.3,2.8-1.9,5.1-1.9c2.1,0,3.9,0.6,5.1,1.7c1.3,1.1,1.9,2.8,1.9,5.1
		v26.8l15.4-13.1c1.9-1.7,3.4-2.8,4.3-3.2c1.1-0.6,2.1-0.9,3.6-0.9c1.7,0,3.2,0.4,4.3,1.3c1.1,0.9,1.7,1.9,1.7,3.2
		c0,1.7-1.9,3.9-5.6,6.4l-7.3,5.4l14.1,17.8c1.1,1.3,1.7,2.4,2.1,3s0.6,1.3,0.6,1.9c0,1.7-0.6,3.2-1.7,4.1c-1.3,1.1-2.8,1.5-4.7,1.5
		c-1.7,0-3-0.4-3.9-1.1C340.5,296,339.4,294.7,337.7,292.8"/>
	<path d="M370.3,272h25.1c-0.4-3.9-1.5-6.6-3.9-8.4c-2.1-1.9-5.1-2.8-8.8-2.8c-3.4,0-6.2,0.9-8.4,2.8
		C372,265.6,370.7,268.4,370.3,272 M397.3,278.2h-27c0,2.6,0.6,4.7,1.9,6.6c1.3,1.9,2.8,3.4,4.9,4.3c2.1,1.1,4.3,1.5,6.6,1.5
		c1.7,0,3.2-0.2,4.5-0.4s2.8-0.9,3.9-1.5c1.3-0.6,2.4-1.3,3.4-2.1c1.1-0.9,2.6-1.7,4.3-3c0.6-0.4,1.7-0.6,3-0.6
		c1.5,0,2.6,0.2,3.4,0.9c0.9,0.6,1.3,1.5,1.3,2.6c0,1.1-0.4,2.1-1.5,3.4c-1.1,1.3-2.4,2.6-4.5,3.9c-1.9,1.3-4.5,2.1-7.5,3
		c-3,0.9-6.4,1.3-10.3,1.3c-8.8,0-15.6-1.9-20.6-6c-4.9-4.1-7.3-9.4-7.3-16.5c0-3.2,0.6-6.2,1.7-9c1.3-2.8,3-5.1,5.4-7.1
		c2.4-1.9,5.1-3.4,8.6-4.5s7.1-1.5,11.3-1.5c5.4,0,10.1,0.9,13.9,2.8c3.9,1.7,6.6,4.1,8.6,7.1c1.9,2.8,2.8,5.8,2.8,8.8
		c0,2.8-1.1,4.5-3,5.4C403.7,277.8,400.9,278.2,397.3,278.2"/>
	<path d="M432.6,259.2v1.3c2.4-2.6,5.1-4.5,7.9-5.6c2.8-1.3,6.2-1.7,9.9-1.7s6.9,0.6,9.6,1.9c2.8,1.3,4.9,3,6.4,5.4
		c0.9,1.3,1.5,2.8,1.7,4.3c0.2,1.5,0.4,3.6,0.4,6v20.6c0,2.1-0.6,3.9-1.9,4.9c-1.3,1.1-3,1.7-4.9,1.7c-2.1,0-3.6-0.6-4.9-1.7
		c-1.3-1.1-1.9-2.8-1.9-4.9v-18.4c0-3.6-0.6-6.4-1.9-8.4c-1.3-1.9-3.9-2.8-7.5-2.8c-2.4,0-4.7,0.6-6.6,1.7c-1.9,1.1-3.4,2.8-4.5,4.9
		c-0.6,1.7-1.1,4.7-1.1,9.2v13.7c0,2.1-0.6,3.9-1.9,4.9c-1.3,1.1-3,1.7-4.9,1.7c-1.9,0-3.6-0.6-4.9-1.7c-1.3-1.1-1.9-2.8-1.9-4.9
		v-31.9c0-2.1,0.6-3.6,1.7-4.7c1.1-1.1,2.8-1.5,4.7-1.5c1.3,0,2.4,0.2,3.2,0.6c1.1,0.4,1.7,1.1,2.4,2.1
		C432.4,256.8,432.6,257.9,432.6,259.2"/>
	<path d="M-116,331.3c-0.4-0.6-1.1-1.1-1.9-1.5c-0.9-0.4-1.9-0.9-3.4-1.1c-1.1-0.2-2.1-0.4-2.8-0.6c-0.6-0.2-1.3-0.4-1.5-0.6
		c-0.6-0.4-0.9-0.9-0.9-1.3c0-0.4,0.2-0.9,0.9-1.3c0.6-0.2,1.3-0.4,1.9-0.4c0.9,0,1.5,0,1.9,0.4c0.4,0.2,0.9,0.6,1.3,1.1
		c0.4,0.4,0.9,0.6,1.1,0.9c0.4,0.2,0.6,0.4,1.1,0.4c0.6,0,1.1-0.2,1.5-0.4c0.4-0.2,0.4-0.6,0.4-1.3c0-0.4-0.2-0.9-0.4-1.3
		c-0.4-0.4-0.9-0.9-1.5-1.3c-0.6-0.4-1.5-0.6-2.4-0.9c-0.9-0.2-1.9-0.4-3.2-0.4c-1.5,0-2.8,0.2-3.9,0.6c-1.1,0.4-1.9,1.1-2.4,1.7
		c-0.6,0.9-0.9,1.5-0.9,2.4s0.2,1.7,0.9,2.4s1.3,1.1,2.4,1.5c1.1,0.4,2.1,0.9,3.9,1.1c1.3,0.2,2.4,0.6,3,1.1
		c0.9,0.6,1.1,1.3,1.1,1.9c0,0.4-0.2,0.9-0.9,1.3c-0.6,0.4-1.3,0.6-2.1,0.6c-1.1,0-1.9-0.2-2.6-0.6c-0.6-0.4-1.3-0.9-1.7-1.7
		c-0.2-0.4-0.4-0.6-0.6-0.9c-0.2-0.2-0.6-0.4-1.1-0.4c-0.6,0-1.1,0.2-1.3,0.4c-0.4,0.4-0.6,0.9-0.6,1.3c0,0.6,0.2,1.5,0.9,2.1
		s1.5,1.3,2.6,1.7c1.1,0.4,2.6,0.6,4.1,0.6c1.7,0,3.2-0.2,4.3-0.6c1.3-0.4,2.1-1.1,2.6-1.9c0.6-0.9,0.9-1.9,0.9-3
		C-115.4,332.6-115.6,332-116,331.3 M-98.9,338.4c0.4,0.4,0.9,0.6,1.3,0.6c0.6,0,1.1-0.2,1.5-0.4c0.4-0.4,0.6-0.6,0.6-1.3
		c0-0.2-0.2-0.9-0.4-1.7s-0.4-1.7-0.4-2.6s0-1.7,0-2.4s0-1.5,0-2.6c0-1.5-0.2-2.8-0.6-3.9c-0.4-0.9-1.3-1.7-2.4-2.1
		c-1.1-0.4-2.8-0.6-4.7-0.6c-1.7,0-3.2,0.2-4.5,0.6c-1.3,0.4-2.1,1.1-2.6,1.7c-0.6,0.6-0.9,1.5-0.9,2.1c0,0.4,0.2,0.9,0.6,1.1
		c0.4,0.2,0.9,0.4,1.3,0.4c0.6,0,0.9,0,1.1-0.2s0.4-0.6,0.9-1.3c0.4-0.6,0.9-1.1,1.5-1.3c0.6-0.2,1.5-0.4,2.6-0.4
		c1.3,0,2.1,0.2,2.6,0.9c0.4,0.4,0.6,1.3,0.6,2.4c-0.9,0.2-1.7,0.4-2.6,0.6c-0.9,0.2-1.7,0.4-3,0.6c-1.1,0.2-1.9,0.4-2.1,0.4
		c-1.3,0.2-2.4,0.9-3.2,1.7s-1.1,1.7-1.1,3c0,0.9,0.2,1.7,0.6,2.4c0.4,0.6,1.1,1.3,1.9,1.7c0.9,0.4,1.9,0.6,3,0.6
		c1.3,0,2.4-0.2,3.4-0.6c1.1-0.4,2.1-1.1,3.2-1.7C-99.7,337.3-99.3,338-98.9,338.4 M-100.6,331.1c0,1.5-0.2,2.6-0.6,3.2
		c-0.4,0.6-0.9,1.1-1.7,1.5c-0.9,0.4-1.5,0.6-2.4,0.6s-1.5-0.2-1.9-0.6c-0.4-0.4-0.9-1.1-0.9-1.7s0.2-1.1,0.6-1.5
		c0.4-0.4,0.9-0.6,1.3-0.6c0.4-0.2,1.3-0.2,2.6-0.6c1.3-0.2,2.1-0.4,2.8-0.6v0.4H-100.6z M-106.4,319.3c0.4-0.2,0.6-0.6,0.6-1.3
		c0-0.6-0.2-1.1-0.6-1.3c-0.4-0.2-0.9-0.4-1.3-0.4c-0.4,0-0.9,0.2-1.3,0.4c-0.4,0.2-0.6,0.6-0.6,1.3c0,0.4,0.2,0.9,0.6,1.3
		c0.4,0.2,0.9,0.4,1.3,0.4C-107.2,319.8-106.8,319.6-106.4,319.3 M-102.7,316.8c-0.4,0.4-0.6,0.9-0.6,1.3c0,0.4,0.2,0.9,0.6,1.3
		c0.4,0.2,0.9,0.4,1.3,0.4c0.4,0,0.9-0.2,1.3-0.4c0.4-0.2,0.6-0.6,0.6-1.3c0-0.2,0-0.6-0.2-0.9c-0.2-0.2-0.4-0.4-0.6-0.6
		c-0.2-0.2-0.6-0.2-0.9-0.2C-101.9,316.1-102.3,316.3-102.7,316.8 M-76,332.4c-0.4-0.4-0.9-0.6-1.3-0.6s-0.9,0.2-1.1,0.4
		s-0.6,0.6-0.9,1.1c-0.4,0.9-1.1,1.5-1.7,1.7c-0.6,0.4-1.5,0.6-2.4,0.6c-0.6,0-1.3-0.2-1.9-0.4c-0.6-0.2-1.1-0.6-1.5-1.1
		c-0.4-0.4-0.6-1.1-0.9-1.7s-0.2-1.5-0.2-2.1c0-1.7,0.4-3,1.3-4.1c0.9-1.1,1.9-1.5,3.2-1.5c0.9,0,1.7,0.2,2.4,0.6
		c0.6,0.4,1.1,1.1,1.7,1.7c0.2,0.4,0.6,0.6,0.9,0.9c0.2,0.2,0.6,0.2,0.9,0.2c0.6,0,1.1-0.2,1.5-0.4c0.4-0.4,0.6-0.9,0.6-1.3
		c0-0.4-0.2-1.1-0.4-1.5c-0.4-0.6-0.9-1.1-1.5-1.7c-0.6-0.4-1.5-0.9-2.6-1.3c-1.1-0.2-2.1-0.4-3.2-0.4c-1.9,0-3.4,0.4-4.9,1.1
		c-1.3,0.6-2.4,1.7-3,3s-1.1,2.8-1.1,4.5c0,2.6,0.9,4.5,2.4,6.2c1.5,1.5,3.6,2.4,6.4,2.4c1.3,0,2.6-0.2,3.4-0.4
		c1.1-0.4,1.9-0.9,2.6-1.3c0.6-0.6,1.3-1.1,1.5-1.7c0.4-0.6,0.4-1.1,0.4-1.7C-75.5,333.3-75.8,332.8-76,332.4 M-60.6,338.4
		c0.2,0.2,0.6,0.4,1.3,0.4c0.6,0,1.1-0.2,1.5-0.6c0.4-0.4,0.6-0.9,0.6-1.5c0-0.2,0-0.4-0.2-0.9c-0.2-0.2-0.4-0.6-0.6-1.1l-4.7-6.9
		l2.4-2.1c1.3-1.1,1.9-1.9,1.9-2.6c0-0.4-0.2-0.9-0.6-1.3c-0.4-0.4-0.9-0.4-1.5-0.4c-0.4,0-0.9,0.2-1.3,0.4
		c-0.4,0.2-0.9,0.6-1.5,1.3l-5.1,4.9v-10.3c0-0.9-0.2-1.5-0.6-1.9c-0.4-0.4-0.9-0.6-1.7-0.6c-0.6,0-1.3,0.2-1.7,0.6
		c-0.4,0.4-0.6,1.3-0.6,2.1v18c0,0.9,0.2,1.5,0.6,1.9c0.4,0.4,0.9,0.6,1.7,0.6c0.6,0,1.1-0.2,1.5-0.6c0.4-0.4,0.6-1.1,0.6-1.9v-3
		l2.4-2.1l4.1,6.2C-61.2,337.8-60.8,338.2-60.6,338.4 M-42.1,338.4c0.4,0.4,0.9,0.6,1.3,0.6c0.6,0,1.1-0.2,1.5-0.4
		c0.4-0.4,0.6-0.6,0.6-1.3c0-0.2-0.2-0.9-0.4-1.7c-0.2-0.9-0.4-1.7-0.4-2.6s0-1.7,0-2.4s0-1.5,0-2.6c0-1.5-0.2-2.8-0.6-3.9
		c-0.4-0.9-1.3-1.7-2.4-2.1c-1.1-0.4-2.8-0.6-4.7-0.6c-1.7,0-3.2,0.2-4.5,0.6c-1.3,0.4-2.1,1.1-2.6,1.7c-0.6,0.6-0.9,1.5-0.9,2.1
		c0,0.4,0.2,0.9,0.6,1.1c0.4,0.2,0.9,0.4,1.3,0.4c0.6,0,0.9,0,1.1-0.2c0.2-0.2,0.4-0.6,0.9-1.3s0.9-1.1,1.5-1.3
		c0.6-0.2,1.5-0.4,2.6-0.4c1.3,0,2.1,0.2,2.6,0.9c0.4,0.4,0.6,1.3,0.6,2.4c-0.9,0.2-1.7,0.4-2.6,0.6c-0.9,0.2-1.7,0.4-3,0.6
		c-1.1,0.2-1.9,0.4-2.1,0.4c-1.3,0.2-2.4,0.9-3.2,1.7c-0.4,1.1-0.9,2.1-0.9,3.2c0,0.9,0.2,1.7,0.6,2.4s1.1,1.3,1.9,1.7
		c0.9,0.4,1.9,0.6,3,0.6c1.3,0,2.4-0.2,3.4-0.6c1.1-0.4,2.1-1.1,3.2-1.7C-43,337.3-42.6,338-42.1,338.4 M-43.8,331.1
		c0,1.5-0.2,2.6-0.6,3.2c-0.4,0.6-0.9,1.1-1.7,1.5c-0.9,0.4-1.5,0.6-2.4,0.6c-0.9,0-1.5-0.2-1.9-0.6c-0.4-0.4-0.9-1.1-0.9-1.7
		s0.2-1.1,0.6-1.5c0.4-0.4,0.9-0.6,1.3-0.6c0.4-0.2,1.3-0.2,2.6-0.6c1.3-0.2,2.1-0.4,2.8-0.6v0.4H-43.8z M-30.1,329.6
		c0-0.9,0.2-1.7,0.4-2.4c0.2-0.6,0.6-1.1,1.1-1.5c0.4-0.4,0.9-0.4,1.7-0.4c0.4,0,1.1,0,1.7,0.2s1.1,0.2,1.3,0.2
		c0.4,0,0.9-0.2,1.3-0.4c0.4-0.4,0.6-0.9,0.6-1.3c0-0.6-0.4-1.3-1.3-1.7c-0.9-0.4-1.7-0.6-2.8-0.6c-0.9,0-1.7,0.2-2.4,0.6
		c-0.6,0.4-1.1,1.1-1.7,1.9c0-0.9-0.2-1.5-0.6-1.9c-0.4-0.4-0.9-0.6-1.7-0.6c-1.5,0-2.1,0.9-2.1,2.8v11.8c0,0.9,0.2,1.5,0.6,1.9
		c0.4,0.4,0.9,0.6,1.5,0.6c0.6,0,1.3-0.2,1.7-0.6c0.4-0.4,0.6-1.1,0.6-1.9v-3.4C-30.4,331.5-30.4,330.5-30.1,329.6 M4.5,326.8
		c-0.4-1.1-1.1-1.9-1.7-2.8c-0.9-0.6-1.7-1.3-3-1.7c-1.1-0.4-2.4-0.6-3.6-0.6c-1.3,0-2.6,0.2-3.6,0.6c-1.1,0.4-2.1,1.1-2.8,1.7
		c-0.9,0.9-1.3,1.7-1.7,2.8c-0.4,1.1-0.6,2.1-0.6,3.4s0.2,2.4,0.6,3.4c0.4,1.1,1.1,1.9,1.7,2.8c0.9,0.9,1.7,1.3,2.8,1.7
		c1.1,0.4,2.4,0.6,3.6,0.6c1.3,0,2.6-0.2,3.6-0.6c1.1-0.4,2.1-1.1,2.8-1.7c0.9-0.9,1.5-1.7,1.7-2.8c0.4-1.1,0.6-2.1,0.6-3.4
		C5.2,329.2,5,327.9,4.5,326.8 M-0.6,334.3c-0.9,0.9-1.9,1.5-3.2,1.5c-0.9,0-1.7-0.2-2.4-0.6c-0.6-0.4-1.1-1.1-1.5-1.9
		c-0.4-0.9-0.4-1.7-0.4-2.8c0-1.1,0.2-2.1,0.6-3s0.9-1.5,1.5-1.9c0.6-0.4,1.5-0.6,2.4-0.6c1.3,0,2.4,0.4,3.2,1.5
		c0.9,0.9,1.3,2.4,1.3,4.1C0.7,332,0.3,333.5-0.6,334.3 M24.2,332.4c-0.4-0.4-0.9-0.6-1.3-0.6s-0.9,0.2-1.1,0.4
		c-0.2,0.2-0.6,0.6-0.9,1.1c-0.4,0.9-1.1,1.5-1.7,1.7c-0.6,0.4-1.5,0.6-2.4,0.6c-0.6,0-1.3-0.2-1.9-0.4s-1.1-0.6-1.5-1.1
		c-0.4-0.4-0.6-1.1-0.9-1.7s-0.2-1.5-0.2-2.1c0-1.7,0.4-3,1.3-4.1c0.9-1.1,1.9-1.5,3.2-1.5c0.9,0,1.7,0.2,2.4,0.6
		c0.6,0.4,1.1,1.1,1.7,1.7c0.2,0.4,0.6,0.6,0.9,0.9c0.2,0.2,0.6,0.2,0.9,0.2c0.6,0,1.1-0.2,1.5-0.4c0.4-0.4,0.6-0.9,0.6-1.3
		c0-0.4-0.2-1.1-0.6-1.5c-0.4-0.6-0.9-1.1-1.5-1.7c-0.6-0.4-1.5-0.9-2.6-1.3c-1.1-0.2-2.1-0.4-3.2-0.4c-1.9,0-3.4,0.4-4.9,1.1
		c-1.3,0.6-2.4,1.7-3,3C8.4,326.8,8,328.3,8,330c0,2.6,0.9,4.5,2.4,6.2c1.5,1.5,3.6,2.4,6.4,2.4c1.3,0,2.6-0.2,3.4-0.4
		c1.1-0.4,1.9-0.9,2.6-1.3c0.6-0.6,1.3-1.1,1.5-1.7c0.4-0.6,0.4-1.1,0.4-1.7C24.9,333.3,24.7,332.8,24.2,332.4 M31.7,316.1
		c-0.4-0.4-0.9-0.6-1.7-0.6c-0.6,0-1.3,0.2-1.7,0.6c-0.4,0.4-0.6,1.1-0.6,1.9v18.2c0,1.7,0.6,2.6,2.1,2.6c0.6,0,1.3-0.2,1.7-0.6
		c0.4-0.4,0.6-1.1,0.6-1.9v-5.6c0-1.7,0.2-2.8,0.4-3.4c0.2-0.6,0.9-1.3,1.5-1.7c0.6-0.4,1.3-0.6,2.1-0.6c1.3,0,1.9,0.4,2.4,1.1
		c0.4,0.6,0.6,1.7,0.6,3.2v7.1c0,1.7,0.6,2.6,2.1,2.6c0.6,0,1.3-0.2,1.7-0.6c0.4-0.4,0.6-1.1,0.6-1.9v-8.1c0-0.9,0-1.5-0.2-2.1
		s-0.2-1.3-0.6-1.7c-0.4-0.9-1.3-1.5-2.1-1.9c-0.9-0.4-1.9-0.6-3-0.6c-0.9,0-1.5,0-2.1,0.2c-0.6,0.2-1.3,0.4-1.7,0.9
		c-0.6,0.4-1.1,0.9-1.7,1.5v-6.2C32.4,317.2,32.2,316.6,31.7,316.1 M72.2,332.4c-0.4-0.4-0.9-0.6-1.3-0.6s-0.9,0.2-1.1,0.4
		c-0.2,0.2-0.6,0.6-0.9,1.1c-0.4,0.9-1.1,1.5-1.7,1.7c-0.6,0.4-1.5,0.6-2.4,0.6c-0.6,0-1.3-0.2-1.9-0.4c-0.6-0.2-1.1-0.6-1.5-1.1
		c-0.4-0.4-0.6-1.1-0.9-1.7s-0.2-1.5-0.2-2.1c0-1.7,0.4-3,1.3-4.1c0.9-1.1,1.9-1.5,3.2-1.5c0.9,0,1.7,0.2,2.4,0.6
		c0.6,0.4,1.1,1.1,1.7,1.7c0.2,0.4,0.6,0.6,0.9,0.9c0.2,0.2,0.6,0.2,0.9,0.2c0.6,0,1.1-0.2,1.5-0.4c0.4-0.4,0.6-0.9,0.6-1.3
		c0-0.4-0.2-1.1-0.4-1.5c-0.4-0.6-0.9-1.1-1.5-1.7c-0.6-0.4-1.5-0.9-2.6-1.3c-1.1-0.2-2.1-0.4-3.2-0.4c-1.9,0-3.4,0.4-4.9,1.1
		c-1.3,0.6-2.4,1.7-3,3s-1.1,2.8-1.1,4.5c0,2.6,0.9,4.5,2.4,6.2c1.5,1.5,3.6,2.4,6.4,2.4c1.3,0,2.6-0.2,3.4-0.4
		c1.1-0.4,1.9-0.9,2.6-1.3c0.6-0.6,1.3-1.1,1.5-1.7c0.4-0.6,0.4-1.1,0.4-1.7C72.9,333.3,72.6,332.8,72.2,332.4 M92.8,326.8
		c-0.4-1.1-1.1-1.9-1.7-2.8c-0.9-0.9-1.7-1.3-2.8-1.7c-1.1-0.4-2.4-0.6-3.6-0.6c-1.3,0-2.6,0.2-3.6,0.6c-1.1,0.4-2.1,1.1-2.8,1.7
		c-0.9,0.9-1.3,1.7-1.7,2.8c-0.4,1.1-0.6,2.1-0.6,3.4s0.2,2.4,0.6,3.4c0.4,1.1,1.1,1.9,1.7,2.8c0.9,0.9,1.7,1.3,2.8,1.7
		c1.1,0.4,2.4,0.6,3.6,0.6c1.3,0,2.6-0.2,3.6-0.6c1.1-0.4,2.1-1.1,2.8-1.7c0.9-0.9,1.5-1.7,1.7-2.8c0.4-1.1,0.6-2.1,0.6-3.4
		C93.4,329.2,93.2,327.9,92.8,326.8 M87.8,334.3c-0.9,0.9-1.9,1.5-3.2,1.5c-0.9,0-1.7-0.2-2.4-0.6c-0.6-0.4-1.1-1.1-1.5-1.9
		s-0.4-1.7-0.4-2.8c0-1.1,0.2-2.1,0.6-3c0.4-0.9,0.9-1.5,1.5-1.9c0.6-0.4,1.5-0.6,2.4-0.6c1.3,0,2.4,0.4,3.2,1.5
		c0.9,0.9,1.3,2.4,1.3,4.1C88.9,332,88.5,333.5,87.8,334.3 M100.9,322.8c-0.2-0.4-0.4-0.6-0.9-0.9c-0.2-0.2-0.6-0.2-1.1-0.2
		c-0.6,0-1.1,0.2-1.5,0.6c-0.4,0.4-0.6,1.1-0.6,1.7v12.2c0,0.9,0.2,1.5,0.6,1.9c0.4,0.4,0.9,0.6,1.5,0.6c0.6,0,1.3-0.2,1.7-0.6
		c0.4-0.4,0.6-1.1,0.6-1.9v-5.4c0-1.7,0.2-3,0.4-3.4c0.2-0.9,0.9-1.5,1.5-1.9c0.6-0.4,1.3-0.6,2.1-0.6c1.3,0,2.1,0.4,2.4,1.1
		c0.4,0.6,0.6,1.7,0.6,3.2v7.1c0,0.9,0.2,1.5,0.6,1.9c0.4,0.4,0.9,0.6,1.7,0.6c0.6,0,1.3-0.2,1.5-0.6c0.4-0.4,0.6-1.1,0.6-1.9v-7.9
		c0-0.9,0-1.7-0.2-2.4c0-0.6-0.2-1.1-0.6-1.7c-0.4-0.9-1.1-1.5-2.1-2.1c-0.9-0.4-1.9-0.6-3.2-0.6s-2.4,0.2-3.2,0.6
		c-0.9,0.4-1.7,1.3-2.6,2.1v-0.4C101.1,323.6,100.9,323.2,100.9,322.8 M116.1,322.6c-0.4,0.2-0.4,0.6-0.4,1.1c0,0.4,0.2,0.9,0.4,1.1
		c0.4,0.2,0.9,0.4,1.5,0.4h0.6v8.1c0,1.3,0.2,2.4,0.4,3.2s0.6,1.5,1.5,1.9c0.6,0.4,1.7,0.6,3.2,0.6s2.6-0.2,3.4-0.6
		c0.9-0.4,1.3-0.9,1.3-1.5c0-0.4-0.2-0.6-0.4-1.1c-0.2-0.2-0.6-0.4-1.1-0.4c-0.2,0-0.6,0-1.1,0.2c-0.4,0-0.9,0.2-1.1,0.2
		c-0.4,0-0.9-0.2-1.1-0.4s-0.4-0.4-0.4-0.9c0-0.4,0-0.9,0-1.5v-7.7h0.9c0.9,0,1.5-0.2,2.1-0.4c0.4-0.2,0.6-0.6,0.6-1.3
		c0-0.4-0.2-0.9-0.4-1.1c-0.4-0.2-0.9-0.4-1.5-0.4H123v-2.8c0-0.6,0-1.3-0.2-1.7c0-0.4-0.2-0.6-0.6-1.1c-0.4-0.4-1.1-0.6-1.5-0.6
		s-0.9,0-1.1,0.2c-0.4,0.2-0.6,0.4-0.9,0.6c-0.2,0.2-0.2,0.6-0.4,1.1c0,0.4,0,0.9,0,1.5v2.6h-0.6C117,322.1,116.3,322.3,116.1,322.6
		 M142,338.4c0.4,0.4,0.9,0.6,1.3,0.6c0.6,0,1.1-0.2,1.5-0.4c0.4-0.4,0.6-0.9,0.6-1.3c0-0.2-0.2-0.9-0.4-1.7
		c-0.2-0.9-0.4-1.7-0.4-2.6s0-1.7,0-2.4s0-1.5,0-2.6c0-1.5-0.2-2.8-0.6-3.9c-0.4-0.9-1.3-1.7-2.4-2.1c-1.1-0.4-2.8-0.6-4.7-0.6
		c-1.7,0-3.2,0.2-4.5,0.6c-1.3,0.4-2.1,1.1-2.6,1.7c-0.6,0.6-0.9,1.5-0.9,2.1c0,0.4,0.2,0.9,0.6,1.1s0.9,0.4,1.3,0.4
		c0.6,0,0.9,0,1.1-0.2c0.2-0.2,0.4-0.6,0.9-1.3s0.9-1.1,1.5-1.3c0.6-0.2,1.5-0.4,2.6-0.4c1.3,0,2.1,0.2,2.6,0.9
		c0.4,0.4,0.6,1.3,0.6,2.4c-0.9,0.2-1.7,0.4-2.6,0.6c-0.9,0.2-1.7,0.4-3,0.6c-1.1,0.2-1.9,0.4-2.1,0.4c-1.3,0.2-2.4,0.9-3.2,1.7
		s-1.1,1.7-1.1,3c0,0.9,0.2,1.7,0.6,2.4c0.4,0.6,1.1,1.3,1.9,1.7c0.9,0.4,1.9,0.6,3,0.6c1.3,0,2.4-0.2,3.4-0.6
		c1.1-0.4,2.1-1.1,3.2-1.7C141.2,337.3,141.6,338,142,338.4 M140.3,331.1c0,1.5-0.2,2.6-0.6,3.2s-0.9,1.1-1.7,1.5
		c-0.9,0.4-1.5,0.6-2.4,0.6s-1.5-0.2-1.9-0.6c-0.4-0.4-0.9-1.1-0.9-1.7s0.2-1.1,0.6-1.5c0.4-0.4,0.9-0.6,1.3-0.6
		c0.4-0.2,1.3-0.2,2.6-0.6c1.3-0.2,2.1-0.4,2.8-0.6v0.4H140.3z M153.2,322.6c-0.4-0.4-1.1-0.6-1.7-0.6s-1.3,0.2-1.5,0.6
		c-0.4,0.4-0.6,1.1-0.6,1.9v12c0,0.9,0.2,1.5,0.6,1.9c0.4,0.4,0.9,0.6,1.5,0.6s1.3-0.2,1.7-0.6c0.4-0.4,0.6-1.1,0.6-1.9v-12.2
		C153.8,323.4,153.6,323,153.2,322.6 M153.2,319.3c0.4-0.4,0.6-0.9,0.6-1.5s-0.2-1.3-0.6-1.5c-0.4-0.4-1.1-0.4-1.5-0.4
		c-0.6,0-1.1,0.2-1.5,0.6c-0.4,0.4-0.6,0.9-0.6,1.5s0.2,1.1,0.6,1.5c0.4,0.4,1.1,0.6,1.5,0.6C152.3,319.8,152.7,319.8,153.2,319.3
		 M162.1,322.8c-0.2-0.4-0.4-0.6-0.9-0.9c-0.2-0.2-0.6-0.2-1.1-0.2c-0.6,0-1.1,0.2-1.5,0.6c-0.4,0.4-0.6,1.1-0.6,1.7v12.2
		c0,0.9,0.2,1.5,0.6,1.9c0.4,0.4,0.9,0.6,1.5,0.6c0.6,0,1.3-0.2,1.7-0.6c0.4-0.4,0.6-1.1,0.6-1.9v-5.4c0-1.7,0.2-3,0.4-3.4
		c0.2-0.9,0.9-1.5,1.5-1.9c0.6-0.4,1.3-0.6,2.1-0.6c1.3,0,2.1,0.4,2.4,1.1c0.4,0.6,0.6,1.7,0.6,3.2v7.1c0,0.9,0.2,1.5,0.6,1.9
		c0.4,0.4,0.9,0.6,1.7,0.6c0.6,0,1.3-0.2,1.5-0.6c0.4-0.4,0.6-1.1,0.6-1.9v-7.9c0-0.9,0-1.7-0.2-2.4c0-0.6-0.2-1.1-0.6-1.7
		c-0.4-0.9-1.1-1.5-2.1-2.1c-0.9-0.4-1.9-0.6-3.2-0.6s-2.4,0.2-3.2,0.6c-0.9,0.4-1.7,1.3-2.6,2.1v-0.4
		C162.6,323.6,162.4,323.2,162.1,322.8 M183.3,329.6c0-0.9,0.2-1.7,0.4-2.4c0.2-0.6,0.6-1.1,1.1-1.5c0.4-0.4,0.9-0.4,1.7-0.4
		c0.4,0,1.1,0,1.7,0.2c0.6,0.2,1.1,0.2,1.3,0.2c0.4,0,0.9-0.2,1.3-0.4c0.4-0.4,0.6-0.9,0.6-1.3c0-0.6-0.4-1.3-1.3-1.7
		c-0.9-0.4-1.7-0.6-2.8-0.6c-0.9,0-1.7,0.2-2.4,0.6c-0.6,0.4-1.1,1.1-1.7,1.9c0-0.9-0.2-1.5-0.6-1.9c-0.4-0.4-0.9-0.6-1.7-0.6
		c-1.5,0-2.1,0.9-2.1,2.8v11.8c0,0.9,0.2,1.5,0.6,1.9c0.4,0.4,0.9,0.6,1.5,0.6c0.6,0,1.3-0.2,1.7-0.6c0.4-0.4,0.6-1.1,0.6-1.9v-3.4
		C183.3,331.5,183.3,330.5,183.3,329.6 M205.4,338.4c0.4,0.4,0.9,0.6,1.3,0.6c0.6,0,1.1-0.2,1.5-0.4c0.4-0.4,0.6-0.9,0.6-1.3
		c0-0.2-0.2-0.9-0.4-1.7c-0.2-0.9-0.4-1.7-0.4-2.6s0-1.7,0-2.4s0-1.5,0-2.6c0-1.5-0.2-2.8-0.6-3.9c-0.4-0.9-1.3-1.7-2.4-2.1
		c-1.1-0.4-2.8-0.6-4.7-0.6c-1.7,0-3.2,0.2-4.5,0.6c-1.3,0.4-2.1,1.1-2.6,1.7c-0.6,0.6-0.9,1.5-0.9,2.1c0,0.4,0.2,0.9,0.6,1.1
		s0.9,0.4,1.3,0.4c0.6,0,0.9,0,1.1-0.2c0.2-0.2,0.4-0.6,0.9-1.3c0.4-0.6,0.9-1.1,1.5-1.3c0.6-0.2,1.5-0.4,2.6-0.4
		c1.3,0,2.1,0.2,2.6,0.9c0.4,0.4,0.6,1.3,0.6,2.4c-0.9,0.2-1.7,0.4-2.6,0.6c-0.9,0.2-1.7,0.4-3,0.6c-1.1,0.2-1.9,0.4-2.1,0.4
		c-1.3,0.2-2.4,0.9-3.2,1.7c-0.9,0.9-1.1,1.7-1.1,3c0,0.9,0.2,1.7,0.6,2.4c0.4,0.6,1.1,1.3,1.9,1.7c0.9,0.4,1.9,0.6,3,0.6
		c1.3,0,2.4-0.2,3.4-0.6c1.1-0.4,2.1-1.1,3.2-1.7C204.5,337.3,205,338,205.4,338.4 M203.7,331.1c0,1.5-0.2,2.6-0.6,3.2
		c-0.4,0.6-0.9,1.1-1.7,1.5c-0.9,0.4-1.5,0.6-2.4,0.6c-0.9,0-1.5-0.2-1.9-0.6c-0.4-0.4-0.9-1.1-0.9-1.7s0.2-1.1,0.6-1.5
		c0.4-0.4,0.9-0.6,1.3-0.6c0.4-0.2,1.3-0.2,2.6-0.6c1.3-0.2,2.1-0.4,2.8-0.6v0.4H203.7z M217.4,329.6c0-0.9,0.2-1.7,0.4-2.4
		c0.2-0.6,0.6-1.1,1.1-1.5c0.4-0.4,0.9-0.4,1.7-0.4c0.4,0,1.1,0,1.7,0.2c0.6,0.2,1.1,0.2,1.3,0.2c0.4,0,0.9-0.2,1.3-0.4
		c0.4-0.4,0.6-0.9,0.6-1.3c0-0.6-0.4-1.3-1.3-1.7c-0.9-0.4-1.7-0.6-2.8-0.6c-0.9,0-1.7,0.2-2.4,0.6c-0.6,0.4-1.1,1.1-1.7,1.9
		c0-0.9-0.2-1.5-0.6-1.9c-0.4-0.4-0.9-0.6-1.7-0.6c-1.5,0-2.1,0.9-2.1,2.8v11.8c0,0.9,0.2,1.5,0.6,1.9c0.4,0.4,0.9,0.6,1.5,0.6
		c0.6,0,1.3-0.2,1.7-0.6c0.4-0.4,0.6-1.1,0.6-1.9v-3.4C217.2,331.5,217.2,330.5,217.4,329.6 M234.5,322.6c-0.4,0.2-0.6,0.6-0.6,1.1
		c0,0.4,0.2,0.9,0.4,1.1c0.4,0.2,0.9,0.4,1.5,0.4h0.6v8.1c0,1.3,0.2,2.4,0.4,3.2c0.2,0.9,0.6,1.5,1.5,1.9c0.6,0.4,1.7,0.6,3.2,0.6
		c1.5,0,2.6-0.2,3.4-0.6c0.9-0.4,1.3-0.9,1.3-1.5c0-0.4-0.2-0.6-0.4-1.1c-0.2-0.2-0.6-0.4-1.1-0.4c-0.2,0-0.6,0-1.1,0.2
		c-0.4,0-0.9,0.2-1.1,0.2c-0.4,0-0.9-0.2-1.1-0.4s-0.4-0.4-0.4-0.9c0-0.4,0-0.9,0-1.5v-7.7h0.9c0.9,0,1.5-0.2,2.1-0.4
		c0.4-0.2,0.6-0.6,0.6-1.3c0-0.4-0.2-0.9-0.4-1.1c-0.4-0.2-0.9-0.4-1.5-0.4h-1.7v-2.8c0-0.6,0-1.3-0.2-1.7c0-0.4-0.2-0.6-0.6-1.1
		c-0.4-0.4-1.1-0.6-1.5-0.6s-0.9,0-1.1,0.2c-0.4,0.2-0.6,0.4-0.9,0.6c-0.2,0.2-0.2,0.6-0.4,1.1c0,0.4,0,0.9,0,1.5v2.6H236
		C235.4,322.1,235,322.3,234.5,322.6 M251.7,322.6c-0.4-0.4-1.1-0.6-1.7-0.6c-0.6,0-1.3,0.2-1.5,0.6c-0.4,0.4-0.6,1.1-0.6,1.9v12
		c0,0.9,0.2,1.5,0.6,1.9c0.4,0.4,0.9,0.6,1.5,0.6c0.6,0,1.3-0.2,1.7-0.6c0.4-0.4,0.6-1.1,0.6-1.9v-12.2
		C252.3,323.4,252.1,323,251.7,322.6 M251.7,319.3c0.4-0.4,0.6-0.9,0.6-1.5s-0.2-1.1-0.6-1.5c-0.4-0.4-1.1-0.4-1.5-0.4
		c-0.6,0-1.1,0.2-1.5,0.6c-0.4,0.4-0.6,0.9-0.6,1.5s0.2,1.1,0.6,1.5c0.4,0.4,1.1,0.6,1.5,0.6C250.8,320,251.2,319.8,251.7,319.3
		 M257.7,338.4c0.4,0.4,0.9,0.6,1.5,0.6c0.6,0,1.3-0.2,1.7-0.6c0.4-0.4,0.6-1.1,0.6-1.9v-18.2c0-0.9-0.2-1.5-0.6-1.9
		c-0.4-0.4-1.1-0.6-1.7-0.6c-0.6,0-1.3,0.2-1.7,0.6c-0.4,0.4-0.6,1.1-0.6,1.9v18.2C257,337.3,257.2,338,257.7,338.4 M266.6,338.4
		c0.4,0.4,0.9,0.6,1.5,0.6s1.3-0.2,1.7-0.6c0.4-0.4,0.6-1.1,0.6-1.9v-18.2c0-0.9-0.2-1.5-0.6-1.9c-0.4-0.4-1.1-0.6-1.7-0.6
		s-1.3,0.2-1.7,0.6c-0.4,0.4-0.6,1.1-0.6,1.9v18.2C266,337.3,266.2,338,266.6,338.4 M281,323.8c0,0.4,0.2,0.9,0.6,1.1
		c0.4,0.2,0.9,0.4,1.5,0.4h1.3v11.1c0,0.9,0.2,1.5,0.6,1.9c0.4,0.4,0.9,0.6,1.5,0.6s1.3-0.2,1.7-0.6c0.4-0.4,0.6-1.1,0.6-1.9v-11.1
		h1.1c0.9,0,1.5,0,1.9-0.2c0.4-0.2,0.6-0.6,0.6-1.3c0-1.1-0.9-1.5-2.6-1.5h-1.1v-1.1c0-0.9,0.2-1.5,0.4-1.9c0.2-0.4,0.9-0.6,1.5-0.6
		c0.2,0,0.6,0,1.1,0c0.4,0,0.6,0,0.9,0c0.4,0,0.6-0.2,1.1-0.4c0.2-0.2,0.4-0.6,0.4-1.1c0-1.3-1.3-1.7-3.9-1.7
		c-1.5,0-2.6,0.2-3.4,0.4c-0.9,0.4-1.5,0.9-1.7,1.7c-0.4,0.9-0.6,1.9-0.6,3.2v1.3h-1.1C281.8,322.1,281,322.8,281,323.8
		 M307.1,338.4c0.4,0.4,0.9,0.6,1.3,0.6c0.6,0,1.1-0.2,1.5-0.4c0.4-0.4,0.6-0.6,0.6-1.3c0-0.2-0.2-0.9-0.4-1.7
		c-0.2-0.9-0.4-1.7-0.4-2.6s0-1.7,0-2.4s0-1.5,0-2.6c0-1.5-0.2-2.8-0.6-3.9c-0.4-0.9-1.3-1.7-2.4-2.1c-1.1-0.4-2.8-0.6-4.7-0.6
		c-1.7,0-3.2,0.2-4.5,0.6c-1.3,0.4-2.1,1.1-2.6,1.7c-0.6,0.6-0.9,1.5-0.9,2.1c0,0.4,0.2,0.9,0.6,1.1s0.9,0.4,1.3,0.4
		c0.6,0,0.9,0,1.1-0.2s0.4-0.6,0.9-1.3c0.4-0.6,0.9-1.1,1.5-1.3c0.6-0.2,1.5-0.4,2.6-0.4c1.3,0,2.1,0.2,2.6,0.9
		c0.4,0.4,0.6,1.3,0.6,2.4c-0.9,0.2-1.7,0.4-2.6,0.6c-0.9,0.2-1.7,0.4-3,0.6c-1.1,0.2-1.9,0.4-2.1,0.4c-1.3,0.2-2.4,0.9-3.2,1.7
		c-0.9,0.9-1.1,1.7-1.1,3c0,0.9,0.2,1.7,0.6,2.4c0.4,0.6,1.1,1.3,1.9,1.7c0.9,0.4,1.9,0.6,3,0.6c1.3,0,2.4-0.2,3.4-0.6
		c1.1-0.4,2.1-1.1,3.2-1.7C306.3,337.3,306.7,338,307.1,338.4 M305.4,331.1c0,1.5-0.2,2.6-0.6,3.2s-0.9,1.1-1.7,1.5
		c-0.9,0.4-1.5,0.6-2.4,0.6s-1.5-0.2-1.9-0.6c-0.4-0.4-0.9-1.1-0.9-1.7s0.2-1.1,0.6-1.5c0.4-0.4,0.9-0.6,1.3-0.6
		c0.4-0.2,1.3-0.2,2.6-0.6c1.3-0.2,2.1-0.4,2.8-0.6v0.4H305.4z M328.1,331.3c-0.4-0.6-1.1-1.1-1.9-1.5c-0.9-0.4-1.9-0.9-3.4-1.1
		c-1.1-0.2-2.1-0.4-2.8-0.6c-0.6-0.2-1.3-0.4-1.5-0.6c-0.4-0.2-0.6-0.6-0.6-1.1s0.2-0.9,0.9-1.3c0.6-0.4,1.3-0.4,1.9-0.4
		c0.9,0,1.5,0.2,1.9,0.4c0.4,0.2,0.9,0.6,1.3,1.1c0.4,0.4,0.9,0.9,1.1,1.1c0.4,0.2,0.6,0.4,1.1,0.4c0.6,0,1.1-0.2,1.5-0.4
		c0.4-0.2,0.4-0.6,0.4-1.3c0-0.4-0.2-0.9-0.4-1.3c-0.4-0.4-0.9-0.9-1.5-1.3c-0.6-0.4-1.5-0.6-2.4-0.9s-1.9-0.4-3.2-0.4
		c-1.5,0-2.8,0.2-3.9,0.6c-1.1,0.4-1.9,1.1-2.4,1.7c-0.6,0.9-0.9,1.5-0.9,2.4c0,0.9,0.2,1.7,0.9,2.4c0.6,0.6,1.3,1.1,2.4,1.5
		c1.1,0.4,2.1,0.9,3.9,1.1c1.3,0.2,2.4,0.6,3,1.1c0.6,0.4,0.9,0.9,0.9,1.7c0,0.4-0.2,0.9-0.9,1.3c-0.6,0.4-1.3,0.6-2.1,0.6
		c-1.1,0-1.9-0.2-2.6-0.6c-0.6-0.4-1.3-0.9-1.7-1.7c-0.2-0.4-0.4-0.6-0.6-0.9c-0.2-0.2-0.6-0.4-1.1-0.4c-0.6,0-1.1,0.2-1.3,0.4
		c-0.4,0.4-0.4,0.6-0.4,1.3s0.2,1.5,0.9,2.1c0.6,0.6,1.5,1.3,2.6,1.7c1.1,0.4,2.6,0.6,4.1,0.6c1.7,0,3.2-0.2,4.3-0.6
		c1.1-0.4,2.1-1.1,2.6-1.9c0.6-0.9,0.9-1.9,0.9-3C329,332.6,328.7,332,328.1,331.3 M331.3,322.6c-0.4,0.2-0.4,0.6-0.4,1.1
		c0,0.4,0.2,0.9,0.4,1.1c0.4,0.2,0.9,0.4,1.5,0.4h0.6v8.1c0,1.3,0.2,2.4,0.4,3.2c0.2,0.9,0.6,1.5,1.5,1.9c0.6,0.4,1.7,0.6,3.2,0.6
		s2.6-0.2,3.4-0.6c0.9-0.4,1.3-0.9,1.3-1.5c0-0.4-0.2-0.6-0.4-1.1c-0.2-0.2-0.6-0.4-1.1-0.4c-0.2,0-0.6,0-1.1,0.2
		c-0.4,0-0.9,0.2-1.1,0.2c-0.4,0-0.9-0.2-1.1-0.4s-0.4-0.4-0.4-0.9c0-0.4,0-0.9,0-1.5v-7.7h0.9c0.9,0,1.5-0.2,2.1-0.4
		c0.4-0.2,0.6-0.6,0.6-1.3c0-0.4-0.2-0.9-0.4-1.1c-0.4-0.2-0.9-0.4-1.5-0.4h-1.7v-2.8c0-0.6,0-1.3-0.2-1.7c0-0.4-0.2-0.6-0.6-1.1
		c-0.4-0.4-1.1-0.6-1.5-0.6s-0.9,0-1.1,0.2c-0.4,0.2-0.6,0.4-0.9,0.6c-0.2,0.2-0.2,0.6-0.2,1.1c0,0.4,0,0.9,0,1.5v2.6h-0.4
		C332.2,322.1,331.7,322.3,331.3,322.6 M357.4,338.4c0.4,0.4,0.9,0.6,1.3,0.6c0.6,0,1.1-0.2,1.5-0.4c0.4-0.4,0.6-0.6,0.6-1.3
		c0-0.2-0.2-0.9-0.4-1.7c-0.2-0.9-0.4-1.7-0.4-2.6s0-1.7,0-2.4s0-1.5,0-2.6c0-1.5-0.2-2.8-0.6-3.9c-0.4-0.9-1.3-1.7-2.4-2.1
		c-1.1-0.4-2.8-0.6-4.7-0.6c-1.7,0-3.2,0.2-4.5,0.6c-1.3,0.4-2.1,1.1-2.6,1.7c-0.6,0.6-0.9,1.5-0.9,2.1c0,0.4,0.2,0.9,0.6,1.1
		s0.9,0.4,1.3,0.4c0.6,0,0.9,0,1.1-0.2s0.4-0.6,0.9-1.3s0.9-1.1,1.5-1.3c0.6-0.2,1.5-0.4,2.6-0.4c1.3,0,2.1,0.2,2.6,0.9
		c0.4,0.4,0.6,1.3,0.6,2.4c-0.9,0.2-1.7,0.4-2.6,0.6c-0.9,0.2-1.7,0.4-3,0.6c-1.1,0.2-1.9,0.4-2.1,0.4c-1.3,0.2-2.4,0.9-3.2,1.7
		s-1.1,1.7-1.1,3c0,0.9,0.2,1.7,0.6,2.4c0.4,0.6,1.1,1.3,1.9,1.7c0.9,0.4,1.9,0.6,3,0.6c1.3,0,2.4-0.2,3.4-0.6
		c1.1-0.4,2.1-1.1,3.2-1.7C356.4,337.3,357,338,357.4,338.4 M355.7,331.1c0,1.5-0.2,2.6-0.6,3.2s-0.9,1.1-1.7,1.5
		c-0.9,0.4-1.5,0.6-2.4,0.6c-0.9,0-1.5-0.2-1.9-0.6c-0.4-0.4-0.9-1.1-0.9-1.7s0.2-1.1,0.6-1.5c0.4-0.4,0.9-0.6,1.3-0.6
		c0.4-0.2,1.3-0.2,2.6-0.6c1.3-0.2,2.1-0.4,2.8-0.6v0.4H355.7z M376.5,322.6c-0.4-0.4-0.9-0.6-1.5-0.6c-0.6,0-1.1,0.2-1.5,0.6
		c-0.4,0.4-0.6,1.1-0.6,1.7v18.2c0,0.9,0.2,1.7,0.4,2.1c0.2,0.4,0.9,0.6,1.7,0.6c1.5,0,2.1-0.9,2.1-2.8V336c0.9,0.9,1.7,1.7,2.6,2.1
		c0.9,0.4,1.9,0.6,3.2,0.6c1.1,0,2.1-0.2,3-0.6c0.9-0.4,1.7-1.1,2.4-1.7c0.6-0.6,1.3-1.7,1.5-2.8c0.4-1.1,0.6-2.4,0.6-3.6
		c0-1.7-0.4-3.2-1.1-4.5c-0.6-1.3-1.5-2.4-2.8-3c-1.1-0.6-2.4-1.1-3.9-1.1c-1.1,0-2.1,0.2-3,0.6c-0.9,0.4-1.7,1.1-2.6,2.1v-0.4
		C377.1,323.4,376.9,323,376.5,322.6 M385.5,333.3c-0.4,0.9-0.9,1.5-1.5,1.9c-0.6,0.4-1.3,0.6-2.1,0.6c-1.3,0-2.4-0.4-3.2-1.5
		c-0.9-0.9-1.3-2.1-1.3-3.9c0-1.7,0.4-3.2,1.3-4.1s1.9-1.3,3.2-1.3c0.9,0,1.5,0.2,2.1,0.6c0.6,0.4,1.1,1.1,1.5,1.9
		c0.4,0.9,0.6,1.7,0.6,2.8C385.9,331.5,385.7,332.4,385.5,333.3 M398.8,329.6c0-0.9,0.2-1.7,0.4-2.4c0.2-0.6,0.6-1.1,1.1-1.5
		c0.4-0.4,0.9-0.4,1.7-0.4c0.4,0,1.1,0,1.7,0.2c0.6,0.2,1.1,0.2,1.3,0.2c0.4,0,0.9-0.2,1.3-0.4c0.4-0.4,0.6-0.9,0.6-1.3
		c0-0.6-0.4-1.3-1.3-1.7c-0.9-0.4-1.7-0.6-2.8-0.6c-0.9,0-1.7,0.2-2.4,0.6c-0.6,0.4-1.1,1.1-1.7,1.9c0-0.9-0.2-1.5-0.6-1.9
		c-0.4-0.4-0.9-0.6-1.7-0.6c-1.5,0-2.1,0.9-2.1,2.8v11.8c0,0.9,0.2,1.5,0.6,1.9c0.4,0.4,0.9,0.6,1.5,0.6c0.6,0,1.3-0.2,1.7-0.6
		c0.4-0.4,0.6-1.1,0.6-1.9v-3.4C398.6,331.8,398.6,330.7,398.8,329.6 M412.7,322.6c-0.4-0.4-1.1-0.6-1.7-0.6c-0.6,0-1.3,0.2-1.5,0.6
		c-0.4,0.4-0.6,1.1-0.6,1.9v12c0,0.9,0.2,1.5,0.6,1.9c0.4,0.4,0.9,0.6,1.5,0.6c0.6,0,1.3-0.2,1.7-0.6c0.4-0.4,0.6-1.1,0.6-1.9v-12.2
		C413.3,323.4,413.1,323,412.7,322.6 M412.7,319.3c0.4-0.4,0.6-0.9,0.6-1.5s-0.2-1.1-0.6-1.5c-0.4-0.4-1.1-0.4-1.5-0.4
		c-0.6,0-1.1,0.2-1.5,0.6c-0.4,0.4-0.6,0.9-0.6,1.5s0.2,1.1,0.6,1.5c0.4,0.4,1.1,0.6,1.5,0.6C411.6,320,412.3,319.8,412.7,319.3
		 M431.7,331.5c-0.4-0.6-1.1-1.1-1.9-1.5c-0.9-0.4-1.9-0.9-3.4-1.1c-1.1-0.2-2.1-0.4-2.8-0.6c-0.6-0.2-1.3-0.4-1.5-0.6
		c-0.4-0.2-0.6-0.6-0.6-1.1c0-0.4,0.2-0.9,0.9-1.3c0.6-0.4,1.3-0.4,1.9-0.4c0.9,0,1.5,0.2,1.9,0.4c0.4,0.2,0.9,0.6,1.3,1.1
		s0.9,0.9,1.1,1.1c0.4,0.2,0.6,0.4,1.1,0.4c0.6,0,1.1-0.2,1.5-0.4c0.4-0.2,0.4-0.6,0.4-1.3c0-0.4-0.2-0.9-0.4-1.3
		c-0.4-0.4-0.9-0.9-1.5-1.3c-0.6-0.4-1.5-0.6-2.4-0.9c-0.9-0.2-1.9-0.4-3.2-0.4c-1.5,0-2.8,0.2-3.9,0.6c-1.1,0.4-1.9,1.1-2.4,1.7
		c-0.6,0.9-0.9,1.5-0.9,2.4s0.2,1.7,0.9,2.4s1.3,1.1,2.4,1.5c1.1,0.4,2.1,0.9,3.9,1.1c1.3,0.2,2.4,0.6,3,1.1
		c0.6,0.4,0.9,0.9,0.9,1.7c0,0.4-0.2,0.9-0.9,1.3c-0.6,0.4-1.3,0.6-2.1,0.6c-1.1,0-1.9-0.2-2.6-0.6c-0.6-0.4-1.3-0.9-1.7-1.7
		c-0.2-0.4-0.4-0.6-0.6-0.9c-0.2-0.2-0.6-0.4-1.1-0.4c-0.6,0-1.1,0.2-1.3,0.4c-0.4,0.4-0.4,0.6-0.4,1.3s0.2,1.5,0.9,2.1
		c0.6,0.6,1.5,1.3,2.6,1.7c1.1,0.4,2.6,0.6,4.1,0.6c1.7,0,3.2-0.2,4.3-0.6c1.3-0.4,2.1-1.1,2.6-1.9c0.6-0.9,0.9-1.9,0.9-3
		C432.4,332.8,432.2,332,431.7,331.5 M451.4,331.1c0.6-0.2,1.1-1.1,1.1-2.1c0-1.1-0.2-2.4-0.9-3.4c-0.6-1.1-1.5-1.9-2.8-2.8
		c-1.3-0.6-2.8-1.1-4.5-1.1c-1.3,0-2.6,0.2-3.6,0.6c-1.1,0.4-2.1,1.1-2.8,1.7c-0.9,0.9-1.3,1.7-1.7,2.8c-0.4,1.1-0.6,2.1-0.6,3.4
		c0,2.6,0.9,4.7,2.4,6.2s3.9,2.4,6.6,2.4c1.3,0,2.4-0.2,3.4-0.4c1.1-0.2,1.7-0.6,2.4-1.1c0.6-0.4,1.1-0.9,1.5-1.5
		c0.2-0.4,0.4-0.9,0.4-1.3c0-0.4-0.2-0.9-0.4-1.1c-0.2-0.2-0.6-0.4-1.1-0.4c-0.4,0-0.9,0-1.1,0.2c-0.6,0.4-1.1,0.9-1.3,1.1
		c-0.4,0.2-0.6,0.6-1.1,0.9c-0.4,0.2-0.9,0.4-1.3,0.6c-0.4,0.2-0.9,0.2-1.5,0.2c-0.9,0-1.5-0.2-2.1-0.6s-1.3-0.9-1.5-1.7
		c-0.4-0.6-0.6-1.5-0.6-2.6h8.8C449.9,331.5,450.8,331.3,451.4,331.1 M441.4,326c0.6-0.6,1.7-1.1,2.8-1.1c1.1,0,2.1,0.4,2.8,1.1
		c0.6,0.6,1.1,1.7,1.3,3.2h-8.1C440.1,327.7,440.5,326.6,441.4,326 M460.9,329.6c0-0.9,0.2-1.7,0.4-2.4s0.6-1.1,1.1-1.5
		c0.4-0.4,0.9-0.4,1.7-0.4c0.4,0,1.1,0,1.7,0.2s1.1,0.2,1.3,0.2c0.4,0,0.9-0.2,1.3-0.4c0.4-0.4,0.6-0.9,0.6-1.3
		c0-0.6-0.4-1.3-1.3-1.7c-0.9-0.4-1.7-0.6-2.8-0.6c-0.9,0-1.7,0.2-2.4,0.6c-0.6,0.4-1.1,1.1-1.7,1.9c0-0.9-0.2-1.5-0.6-1.9
		c-0.4-0.4-0.9-0.6-1.7-0.6c-1.5,0-2.1,0.9-2.1,2.8v11.8c0,0.9,0.2,1.5,0.6,1.9c0.4,0.4,0.9,0.6,1.5,0.6c0.6,0,1.3-0.2,1.7-0.6
		c0.4-0.4,0.6-1.1,0.6-1.9V333C460.6,331.8,460.6,330.7,460.9,329.6"/>
</g>
</svg>
