<?xml version="1.0" encoding="utf-8"?>
<!-- Generator: Adobe Illustrator 19.0.0, SVG Export Plug-In . SVG Version: 6.00 Build 0)  -->
<svg version="1.1" id="layer" xmlns="http://www.w3.org/2000/svg" xmlns:xlink="http://www.w3.org/1999/xlink" x="0px" y="0px"
	 viewBox="-153 -46 652 652" style="enable-background:new -153 -46 652 652;" xml:space="preserve">
<style type="text/css">
	.st0{fill:#644D3B;}
	.st1{fill:#E6332A;}
</style>
<path class="st0" d="M-94.3,305.7c-19.8,0-31.5,12.4-31.5,33.1v12.5c0,29.6,20.2,33.9,32.1,33.9c8.7,0,16.5-0.7,25-2.4
	c2.3-0.4,3.2-1.5,3.2-3.8v-4.7c0-1.7-1.3-2.6-2.8-2.6h-0.8c-5.9,0.9-16,1.5-24.7,1.5c-13.2,0-18.8-6.6-18.8-22.2v-1.3h46
	c1.9,0,3.2-1.5,3.2-3.6v-7.3C-63.3,317.8-74.6,305.7-94.3,305.7z M-94.3,317.5c12.4,0,17.6,6.3,17.6,21.2v0.7h-35.8v-0.7
	C-112.5,324.6-106.4,317.5-94.3,317.5z M-17.7,344l23.1-32.9c0.4-0.7,0.8-1.3,0.8-2.2c0-1.3-0.9-2.2-2.4-2.2h-8.1
	c-1.5,0-2,0.3-3.4,2.2L-25,334.5l-17.2-25.4c-1.1-1.6-1.9-2.2-3.2-2.2h-9c-1.6,0-2.7,0.9-2.7,2.2c0,0.7,0.4,1.5,0.8,2.2l23.4,33.7
	l-24.7,35.3c-0.7,0.9-0.8,1.7-0.8,2.2c0,0.9,0.5,1.9,2.2,1.9h8.5c1.5,0,1.9-0.3,2.8-1.6l19.5-28.1l19.4,28.2
	c0.5,0.9,1.2,1.3,2.4,1.3h9.5c1.5,0,2.4-0.8,2.4-2c0-0.8-0.3-1.3-0.7-2L-17.7,344L-17.7,344z M44.1,305.7c-7.9,0-17.5,1.2-25.7,3.2
	c-2.8,0.7-3.4,1.7-3.4,3.8v95.7c0,1.7,1.3,3.2,3.1,3.2h7.1c1.7,0,3.2-1.5,3.2-3.2v-24.5c5,0.8,11.3,1.5,15.7,1.5
	c20.2,0,30.9-12,30.9-34.7v-9.9C74.9,318.1,64,305.7,44.1,305.7L44.1,305.7z M28.4,318.5c3.9-0.7,10.1-1.3,15.7-1.3
	c12.1,0,17.5,7.3,17.5,23.5v9.9c0,16.1-5.4,23.3-17.5,23.3c-4,0-11-0.5-15.7-1.3C28.4,372.5,28.4,318.5,28.4,318.5z M110.8,305.7
	c-9.7,0-16.1,0.8-21.6,1.7c-2.3,0.3-3.4,1.3-3.4,3.2v4.8c0,1.1,0.4,2.8,3.1,2.8h0.8c5.8-0.5,12.4-1.1,21.2-1.1
	c10.8,0,14.4,3.8,14.4,15.2v5h-9.7c-23.9,0-34,6.9-34,23.1v1.6c0,10.5,4,23.1,23.3,23.1c6.6,0,13-2,20.8-6.5v2.2
	c0,1.9,1.5,3.4,3.4,3.4h6.5c1.9,0,3.4-1.5,3.4-3.4v-48.5C138.3,314.4,129.3,305.7,110.8,305.7L110.8,305.7z M94.5,362v-1.6
	c0-8.9,3.1-13,20.7-13h9.7v21.5c-7,3.8-12.5,5.4-18.3,5.4C99.5,374.1,94.5,372.1,94.5,362L94.5,362z M184.4,305.7
	c-7.5,0-13.7,1.7-21.5,6V310c0-1.9-1.3-3.4-3.2-3.4h-7c-1.7,0-3.2,1.5-3.2,3.4v71c0,1.7,1.5,3.4,3.2,3.4h6.9c1.7,0,3.4-1.6,3.4-3.4
	v-58.3c7-3.5,13.2-5.2,18.3-5.2c10.9,0,14.8,4.7,14.8,17.7v45.7c0,1.9,1.5,3.4,3.4,3.4h6.7c1.9,0,3.4-1.5,3.4-3.4v-45.7
	C209.1,315.6,200.8,305.7,184.4,305.7L184.4,305.7z M274.7,278.7h-7.1c-1.7,0-3.2,1.5-3.2,3.2v25.3c-5.6-0.9-12-1.3-15.7-1.3
	c-20.2,0-30.9,12-30.9,34.7v9.9c0,22.4,11,34.9,30.9,34.9c9,0,17.5-0.8,25.7-2.4c2.8-0.5,3.4-1.7,3.4-3.8v-97.4
	C277.7,280,276.3,278.7,274.7,278.7z M231.2,340.4c0-16,5.2-22.8,17.5-22.8c4.8,0,11.3,0.1,15.7,0.9v54.2
	c-4.7,0.4-11.2,0.8-15.7,0.8c-12.5,0-17.5-6.7-17.5-23.1V340.4L231.2,340.4z M299.7,306.6H293c-1.9,0-3.4,1.5-3.4,3.4v71
	c0,1.9,1.5,3.4,3.4,3.4h6.7c1.9,0,3.4-1.5,3.4-3.4v-71C303.1,308.3,301.6,306.6,299.7,306.6z M300,281.6h-7.1
	c-1.9,0-3.4,1.5-3.4,3.4v7.3c0,1.9,1.5,3.4,3.4,3.4h7.1c1.9,0,3.4-1.5,3.4-3.4V285C303.4,283.1,301.9,281.6,300,281.6L300,281.6z
	 M340.7,305.7c-9.7,0-16.1,0.8-21.6,1.7c-2.3,0.3-3.4,1.3-3.4,3.2v4.8c0,1.1,0.4,2.8,3.1,2.8h0.8c5.8-0.5,12.4-1.1,21.2-1.1
	c10.8,0,14.4,3.8,14.4,15.2v5h-9.7c-23.9,0-34,6.9-34,23.1v1.6c0,10.5,4,23.1,23.3,23.1c6.6,0,13-2,20.8-6.5v2.2
	c0,1.9,1.5,3.4,3.4,3.4h6.5c1.9,0,3.4-1.5,3.4-3.4v-48.5C368.4,314.4,359.3,305.7,340.7,305.7L340.7,305.7z M324.6,362v-1.6
	c0-8.9,3.1-13,20.7-13h9.7v21.5c-7,3.8-12.5,5.4-18.3,5.4C329.4,374.1,324.6,372.1,324.6,362z"/>
<path class="st1" d="M464.1,179.5l-45.6-26.3c-2.8-1.6-6.5-2.6-10.1-2.6c-3.8,0-7.4,0.9-10.1,2.6l-45.7,26.3
	c-5.8,3.4-10.1,10.9-10.1,17.5v52.7c0,6.7,4.3,14.2,10.1,17.5l45.7,26.3c1.2,0.7,2.6,1.2,4,1.6v26.3c0,7.5,4.3,15.9,9.9,19.1
	l4.6,2.7c0.4,0.3,0.8,0.4,1.3,0.4c0.9,0,1.9-0.5,2.3-1.3h0.1l3.2-5.6v-0.1c0.3-0.4,0.4-0.8,0.4-1.3c0-1.1-0.5-1.9-1.3-2.3l-4.6-2.7
	c-1.6-0.9-4-5-4-8.7v-26.3c1.5-0.4,2.8-0.9,4-1.6l45.7-26.3c5.8-3.4,10.1-10.9,10.1-17.5V197C474.3,190.4,469.9,182.7,464.1,179.5z
	 M396.9,223.6c2.8,1.6,5.5,6.3,5.5,9.5v14.2l-47.8-27.6v-20.6C354.6,199.2,396.9,223.6,396.9,223.6z M462.2,219.8l-47.8,27.6v-14.2
	c0-3.2,2.7-7.9,5.5-9.5l42.3-24.5V219.8z M404.3,163.5c0.9-0.5,2.6-0.9,4-0.9c1.6,0,3.1,0.3,4,0.9l43.8,25.3l-42.3,24.5
	c-2,1.2-3.9,2.8-5.5,4.7c-1.6-1.9-3.5-3.6-5.5-4.7l-42.3-24.5C360.5,188.8,404.3,163.5,404.3,163.5z M358.6,256.8
	c-2-1.2-4-4.7-4-7.1v-15.9l47.8,27.6V282L358.6,256.8z M458.2,256.8L414.5,282v-20.7l47.8-27.6v15.9
	C462.2,252.1,460.2,255.6,458.2,256.8z"/>
</svg>
