<?xml version="1.0" encoding="utf-8"?>
<!-- Generator: Adobe Illustrator 19.2.1, SVG Export Plug-In . SVG Version: 6.00 Build 0)  -->
<svg version="1.1" id="layer" xmlns="http://www.w3.org/2000/svg" xmlns:xlink="http://www.w3.org/1999/xlink" x="0px" y="0px"
	 viewBox="0 0 652 652" style="enable-background:new 0 0 652 652;" xml:space="preserve">
<style type="text/css">
	.st0{filter:url(#Adobe_OpacityMaskFilter);}
	.st1{fill:#FFFFFF;}
	.st2{mask:url(#SVGID_1_);}
	.st3{fill:#F99D1C;}
</style>
<g>
	<g>
		<defs>
			<filter id="Adobe_OpacityMaskFilter" filterUnits="userSpaceOnUse" x="20.9" y="266" width="600" height="112.2">
				<feColorMatrix  type="matrix" values="1 0 0 0 0  0 1 0 0 0  0 0 1 0 0  0 0 0 1 0"/>
			</filter>
		</defs>
		<mask maskUnits="userSpaceOnUse" x="20.9" y="266" width="600" height="112.2" id="SVGID_1_">
			<g class="st0">
				<rect x="15" y="261.3" class="st1" width="1964.9" height="2762.1"/>
			</g>
		</mask>
		<g class="st2">
			<g>
				<g>
					<path d="M196.1,310.1h-11.4c-1.6,0-2.2,0.6-2.4,2.4h-1.4v-11.2h1.4c0.2,1.9,1,2.5,2.4,2.5h22.4v1.4c-1.5,0.3-2.5,1.2-2.5,3.9
						v9.1c0,1.8,0,3.6,1,4.2v0.8c-3.3,3.8-9.1,10-22.4,10c-16.7,0-26.9-13.3-26.9-30.5c0-17.2,10.2-30.5,26.9-30.5
						c10.9,0,16.6,6.3,18.7,6.3c0.7,0,1.2-0.2,1.6-0.6l0.9,0.5l-6.6,10.8l-1.2-0.7c0.4-0.4,0.7-1.2,0.7-2.2c0-1.8-5.7-7.1-14.5-7.1
						c-11.3,0-18,10-18,23.5c0,14.2,6.6,23.5,18.7,23.5c5.7,0,10-1.5,12.7-4.3L196.1,310.1L196.1,310.1z"/>
				</g>
				<g>
					<path d="M230.2,308.2h17.7l-9-27.9h-0.2L230.2,308.2z M214.4,332.4v-0.9c0.6-0.4,1.1-0.9,1.4-1.6l15.9-48.8
						c0.6-1.7,1.3-3.4,1.3-4.8c0-1.2-0.6-2-1.7-2.2v-1.4h15.9v1.4c-1,0.2-1.4,1.1-1.4,2.2c0,1.4,0.7,3.1,1.2,4.8l16.4,47.2
						c0.6,1.6,1,2.4,2.1,2.7v1.4h-12V331c0.9-0.4,1.6-0.9,1.6-1.9c0-1.8-4-11.6-4.6-14h-22.5c-1,3.6-4.2,12.1-4.2,13.4
						s0.5,2.6,1.7,3v1H214.4z"/>
				</g>
				<g>
					<path d="M285.3,300.4h14.5c7.8,0,11.7-3.8,11.7-10.3c0-6.5-4.1-10.3-12.8-10.3h-13.4V300.4z M276.8,278.2
						c0-3.3-0.8-3.8-3.6-4.1v-1.4h25.2c14.2,0,21.5,7.4,21.5,17.9c0,7.9-5.3,14.5-12.8,15.3l10.9,19.7c1.4,2.4,2.2,4.8,4.6,5.3v1.4
						h-13.5V331c1.3-0.2,1.9-0.8,1.9-1.4c0-0.8-0.9-2.3-1.9-4l-10.3-18.9h-13.5v20.2c0,3.3,0.8,3.9,3.1,4.1v1.4h-14.9V331
						c2.5-0.2,3.3-0.8,3.3-4.1V278.2z"/>
				</g>
				<g>
					<path d="M346.7,308.2h17.7l-9-27.9h-0.2L346.7,308.2z M330.9,332.4v-0.9c0.6-0.4,1.2-0.9,1.4-1.6l15.9-48.8
						c0.6-1.7,1.3-3.4,1.3-4.8c0-1.2-0.6-2-1.7-2.2v-1.4h15.9v1.4c-1,0.2-1.4,1.1-1.4,2.2c0,1.4,0.7,3.1,1.3,4.8l16.4,47.2
						c0.6,1.6,1,2.4,2.1,2.7v1.4h-12V331c0.9-0.4,1.6-0.9,1.6-1.9c0-1.8-4-11.6-4.6-14h-22.5c-1,3.6-4.2,12.1-4.2,13.4
						s0.4,2.6,1.7,3v1H330.9z"/>
				</g>
				<g>
					<path d="M391.6,332.4V331c1.3-0.2,2.1-0.8,2.1-4.1v-48.7c0-3.3-0.8-3.8-2.3-4.1v-1.4h17.4v1.4c-0.9,0-2.4,0.5-2.4,1.5
						c0,1.4,1.7,3.5,3.3,6.2l19.5,33.1h0.4v-36.7c0-3.3-0.8-3.8-2.7-4.1v-1.4h12.9v1.4c-2.2,0-2.6,0.3-2.6,2.2v50.6
						c0,3.3,0.8,3.9,3.2,4.1v1.4h-14.6V331c1.7-0.3,3-0.7,3-1.5c0-1.2-2.1-3.9-3.4-6.1L401.4,283h-0.2v43.9c0,3.3,0.8,3.9,2.6,4.1
						v1.4H391.6z"/>
				</g>
				<g>
					<path d="M489,272.8c3.2,0,3.9-0.6,4.1-2h1.4V282h-1.4c-0.2-1.6-1.4-2.2-4.1-2.2h-12.8v47.1c0,3.3,0.8,3.9,3.6,4.1v1.4h-15.6
						V331c2.7-0.2,3.5-0.8,3.5-4.1v-47.1h-12.8c-2.6,0-3.9,0.6-4.1,2.2h-1.4v-11.2h1.4c0.2,1.5,0.9,2,4.1,2H489z"/>
				</g>
				<g>
					<path d="M551.5,272.8v1.4c-1.6,0.2-2.4,0.8-2.4,4.1v38.3c0,9.3-7.9,16.5-21.4,16.5c-13.5,0-21.4-7.2-21.4-16.5v-38.3
						c0-3.3-0.8-3.8-2.4-4.1v-1.4h13v1.4c-1.6,0.2-2.2,0.8-2.2,4.1v33.4c0,9.3,2.6,14.4,12.9,14.4s12.9-5.1,12.9-14.4v-33.4
						c0-3.3-0.6-3.8-2.2-4.1v-1.4H551.5z"/>
				</g>
				<g>
					<path d="M620.4,272.8v1.4c-1.8,0.2-2.4,0.8-2.4,4.1v48.7c0,3.3,0.7,3.7,2.9,4.1v1.4h-13.5V331c2.3-0.3,2.6-0.8,2.6-4.1v-41
						h-0.2l-17.1,45.9h-1.5l-17.7-45.9h-0.2v41c0,3.3,0.8,3.9,2.6,4.1v1.4h-12.7V331c1.3-0.2,2.1-0.8,2.1-4.1v-48.7
						c0-3.3-0.8-3.8-2.4-4.1v-1.4h16.8v1.4c-1.2,0.2-2.4,1-2.4,2.2c0,1.1,0.6,2.5,1.5,4.8l13,32.5h0.2l12-33.6
						c0.7-1.9,1.3-3.2,1.3-4c0-1-1.3-1.6-2.4-1.8v-1.4H620.4z"/>
				</g>
				<g>
					<polygon points="171,351.2 171,357.6 178.4,357.6 178.4,359.6 171,359.6 171,368.6 168.5,368.6 168.5,349.3 178.8,349.3 
						178.8,351.2 					"/>
					<path d="M205.1,350.8c-4.7,0-5.6,4.5-5.6,8.3c0,3.7,1.1,8.1,5.4,8.1c4.5,0,5.4-4.4,5.4-8.2
						C210.3,355.2,209.5,350.8,205.1,350.8z M205,368.9c-5.8,0-8.3-5.1-8.3-10c0-4.9,2.5-10,8.4-10c5.7,0,8.1,5.1,8.1,10.1
						C213.1,363.8,210.9,368.9,205,368.9z"/>
					<polygon points="243.7,368.6 234.2,352.5 234.1,368.6 231.9,368.6 231.9,349.3 235.2,349.3 243.9,364.2 243.9,349.3 
						246.1,349.3 246.1,368.6 					"/>
					<path d="M274,351.2h-3.8v15.5h4.3c3.6,0,5.5-3.2,5.5-7.9C279.9,355.6,278.2,351.2,274,351.2z M274.3,368.6h-6.6v-19.3h6.7
						c5,0,8.3,3.5,8.3,9.8C282.7,365.1,279.4,368.6,274.3,368.6z"/>
					<polygon points="313.9,368.6 307.6,359.1 305.4,361.4 305.4,368.6 302.9,368.6 302.9,349.3 305.4,349.3 305.4,358.7 314,349.3 
						316.7,349.3 309.4,357.5 317,368.6 					"/>
					<path d="M343.3,350.8c-4.7,0-5.6,4.5-5.6,8.3c0,3.7,1.1,8.1,5.4,8.1c4.4,0,5.3-4.4,5.3-8.2
						C348.5,355.2,347.7,350.8,343.3,350.8z M343.1,368.9c-5.9,0-8.3-5.1-8.3-10c0-4.9,2.5-10,8.4-10c5.7,0,8.1,5.1,8.1,10.1
						C351.3,363.8,349.1,368.9,343.1,368.9z"/>
					<polygon points="388.6,368.6 387.5,351.6 381.3,368.6 379.5,368.6 374,351.5 372.9,368.6 370.6,368.6 372.1,349.3 375.8,349.3 
						380.8,364.4 386.2,349.3 389.8,349.3 391.1,368.6 					"/>
					<polygon points="429,368.6 427.9,351.6 421.7,368.6 420,368.6 414.4,351.5 413.3,368.6 411,368.6 412.5,349.3 416.3,349.3 
						421.2,364.4 426.6,349.3 430.3,349.3 431.6,368.6 					"/>
					<rect x="452.5" y="349.3" width="2.5" height="19.3"/>
					<path d="M481,369c-2.6,0-4-0.6-5.8-1.9l1.3-1.7c1.5,1.2,2.8,1.6,4.8,1.7c1.6,0,3.6-1.2,3.8-2.9c0.4-2.6-1.6-3.8-4.5-5
						c-2.5-1-4.7-2.1-4.7-5.2c0-3.3,3.2-5,6.5-5c2.4,0,4,0.9,5.1,1.8l-1.3,1.4c-0.9-0.6-1.7-1.4-3.8-1.4c-2.2,0-3.8,0.9-3.8,2.9
						c0,2.2,2,3,4.6,3.9c2.8,1.1,4.8,3.1,4.8,5.7C487.9,366.6,485,368.9,481,369z"/>
					<path d="M512.5,369c-2.6,0-4-0.6-5.8-1.9l1.3-1.7c1.5,1.2,2.8,1.6,4.8,1.7c1.6,0,3.6-1.2,3.8-2.9c0.4-2.6-1.7-3.8-4.6-5
						c-2.5-1-4.7-2.1-4.7-5.2c0-3.3,3.2-5,6.5-5c2.4,0,4,0.9,5.2,1.8l-1.3,1.4c-0.9-0.6-1.7-1.4-3.8-1.4c-2.2,0-3.8,0.9-3.8,2.9
						c0,2.2,2.1,3,4.7,3.9c2.8,1.1,4.8,3.1,4.8,5.7C519.4,366.6,516.5,368.9,512.5,369z"/>
					<rect x="539.9" y="349.3" width="2.5" height="19.3"/>
					<path d="M572.2,350.8c-4.7,0-5.6,4.5-5.6,8.3c0,3.7,1.1,8.1,5.4,8.1c4.4,0,5.3-4.4,5.3-8.2
						C577.4,355.2,576.6,350.8,572.2,350.8z M572.1,368.9c-5.9,0-8.3-5.1-8.3-10c0-4.9,2.5-10,8.4-10c5.7,0,8.1,5.1,8.1,10.1
						C580.2,363.8,578,368.9,572.1,368.9z"/>
					<polygon points="611.3,368.6 601.7,352.5 601.7,368.6 599.5,368.6 599.5,349.3 602.8,349.3 611.5,364.2 611.5,349.3 
						613.7,349.3 613.7,368.6 					"/>
				</g>
				<g>
					<path class="st3" d="M23.1,266.2c0,0-2.1-0.5-2.2,2c-0.1,2.4,0,110,0,110L74.5,273c0,0,2.7-4,5.4,0
						c2.6,3.8,53.4,105.2,53.4,105.2l0.2-110c0,0,0.3-2-1.7-2.1C129.9,266,23.1,266.2,23.1,266.2z"/>
				</g>
			</g>
		</g>
	</g>
</g>
</svg>
