<?xml version="1.0" encoding="utf-8"?>
<!-- Generator: Adobe Illustrator 19.2.1, SVG Export Plug-In . SVG Version: 6.00 Build 0)  -->
<svg version="1.1" id="layer" xmlns="http://www.w3.org/2000/svg" xmlns:xlink="http://www.w3.org/1999/xlink" x="0px" y="0px"
	 viewBox="0 0 652 652" style="enable-background:new 0 0 652 652;" xml:space="preserve">
<style type="text/css">
	.st0{fill:#FFFFFF;}
</style>
<path d="M654,551.9c1.6,0.3,3.3,0.1,4.8-0.5l1.1,4.6c-1.8,0.6-3.6,1-5.5,1.2c-0.7,0-1.4,0-2.2-0.1c-4-0.7-5.9-3.6-5.9-10.4v-21h-5.3
	v-4.8h5.3v-9.9h5.7v9.9h8.2v4.8h-8.2v20.7C652.1,549.5,652.6,551.4,654,551.9z"/>
<path d="M574.8,543.4v-4.5c0-16.6,4-18.9,14.7-18.9c9.7,0,10.8,5.1,10.8,10.7v4.1c0,2.6-2.7,5-19.9,5.1c0,7.1,1.1,12.6,8.1,12.6
	c3.3-0.1,6.7-0.5,9.9-1.3l1,4.7c-3.6,0.9-7.2,1.4-10.9,1.4C579.4,557.3,574.8,552.3,574.8,543.4z M594.6,530.3
	c0-3.4-1.7-5.5-5.2-5.5c-6.6,0-8.8,2-8.9,10.2c8.1,0,13.2-0.5,14.1-2V530.3z"/>
<path d="M517.4,556.4h-5.6v-30.4c0-2.6,7.5-6.2,17.6-6.2c8.3,0,8.7,5.8,8.7,12.4v24.1h-5.7v-22.3c0-5.3-0.2-9.4-4-9.4
	c-6.1,0-11,1.6-11,2.7L517.4,556.4z"/>
<path d="M470.1,555.3c-3.5,1.3-7.2,1.9-10.9,1.9h-0.8c-13,0-19.3-4.5-19.3-18.3v-14.2c0-13.8,6.2-18.2,19.3-18.2h0.8
	c3.7,0,7.4,0.6,10.9,1.8l-1.2,4.8c-3.2-1-6.4-1.5-9.7-1.5h-0.8c-9.8,0-13,3.4-13,13.1v14.2c0,9.7,3.2,13.1,13,13.1h0.8
	c3.3,0,6.6-0.5,9.7-1.4L470.1,555.3z"/>
<path d="M502.9,546.5c0,7.3-4.3,10.6-13.6,10.6c-9.3,0-13.5-3.3-13.5-10.6V530c0-7.3,4.3-10.6,13.5-10.6c9.3,0,13.6,3.3,13.6,10.6
	V546.5z M497.2,530c0-4.1-2.2-6.3-7.8-6.3s-7.7,2.3-7.7,6.3v16.4c0,4,2.1,6.4,7.7,6.4s7.8-2.4,7.8-6.4V530z"/>
<path d="M568.6,556.2c-2.8,0.8-5.7,1.1-8.6,1.1c-10.2,0-13-5.6-13-15.3v-7.3c0-9.7,2.8-15.3,13-15.3c2.9,0,5.8,0.3,8.6,1.1l-0.9,4.3
	c-2.3-0.5-4.6-0.8-6.9-0.8c-7,0-8.1,4.4-8.1,10.7v7.3c0,6.3,1.1,10.7,8.1,10.7c2.3,0,4.7-0.3,6.9-0.8L568.6,556.2z"/>
<path d="M608.9,571.2v-45.3c0-2.7,7.7-6.5,17.8-6.5c8.5,0,8.9,6,8.9,12.9v12.6c0,6.6-0.4,12.4-8.3,12.4c-4.5,0.2-9-1.2-12.6-4v18.1
	L608.9,571.2z M630.4,532.2c0-6.2-0.7-7.6-4.5-7.6c-6.1,0-11.3,2.2-11.3,3.7v18.8c2.7,3.2,6.6,5,10.8,4.9c4.9,0,4.9-2,4.9-7.3
	L630.4,532.2z"/>
<path d="M-13.4,536.8c0,10.4,0.9,15.3,12.6,15.3h0.6c2.8,0,5.6-0.4,8.3-1.4v-15.2h6v18.3c-4.1,2.6-9.3,3.4-14.3,3.4h-0.6
	c-12.9,0-19-4.5-19-18.2v-13.9c0-13.7,6.2-18.2,19-18.2h0.6c3.7-0.1,7.4,0.5,10.9,1.8l-1.1,4.8c-3.2-1-6.5-1.5-9.8-1.4h-0.6
	c-11.7,0-12.6,4.9-12.6,15.3L-13.4,536.8z"/>
<path d="M28.4,527.6v28.8h-5.6v-30.4c0-3.7,7.5-6.2,14.4-6.2c0.9,0,1.8,0.1,2.7,0.2l1.5,0.1l-1,4.8c-1-0.1-2.1-0.2-3.1-0.3
	C35,524.8,29.1,525.3,28.4,527.6z"/>
<path d="M45,543.4v-4.5c0-16.6,4-18.9,14.7-18.9c9.7,0,10.8,5.1,10.8,10.7v4.1c0,2.6-2.7,5-19.9,5.1c0,7.1,1.1,12.6,8,12.6
	c3.3-0.1,6.7-0.5,9.9-1.3l1,4.7c-3.6,0.9-7.2,1.4-10.9,1.4C49.7,557.3,45,552.3,45,543.4z M64.8,530.3c0-3.4-1.6-5.5-5.2-5.5
	c-6.6,0-8.8,2-8.9,10.2c8.1,0,13.2-0.5,14.1-2V530.3z"/>
<path d="M78.4,543.4v-4.5c0-16.6,4-18.9,14.7-18.9c9.7,0,10.8,5.1,10.8,10.7v4.1c0,2.6-2.7,5-19.9,5.1c0,7.1,1.1,12.6,8.1,12.6
	c3.3-0.1,6.7-0.5,10-1.3l0.9,4.7c-3.6,0.9-7.2,1.4-10.9,1.4C83.2,557.3,78.4,552.3,78.4,543.4z M98.2,530.3c0-3.4-1.6-5.5-5.2-5.5
	c-6.6,0-8.8,2-8.9,10.2c8.1,0,13.2-0.5,14.1-2V530.3z"/>
<path d="M118.1,556.4h-5.6v-30.4c0-2.6,7.5-6.2,17.6-6.2c8.3,0,8.7,5.8,8.7,12.4v24.1h-5.7v-22.3c0-5.3-0.2-9.4-4-9.4
	c-6.1,0-11,1.6-11,2.7L118.1,556.4z"/>
<path d="M163.7,507.8h28.7v5.1h-22.8v16h21.2v5.2h-21.2v22.2h-6V507.8z"/>
<path d="M225.1,551.3c0,2.2-7.5,5.9-17.7,5.9c-8.5,0-8.6-5.9-8.6-12.7v-23.7h5.7v21.5c0,5.6,0,10.1,4,10.1c6,0,10.9-1.4,10.9-2.6
	v-29.1h5.7L225.1,551.3z"/>
<path d="M240.2,527.6v28.8h-5.6v-30.4c0-3.7,7.5-6.2,14.4-6.2c0.9,0,1.8,0.1,2.7,0.2l1.5,0.1l-1,4.8c-1-0.1-2.1-0.2-3.1-0.3
	C246.8,524.8,240.8,525.3,240.2,527.6z"/>
<path d="M264.4,556.4h-5.7v-30.4c0-2.6,7.5-6.2,17.6-6.2c8.3,0,8.7,5.8,8.7,12.4v24.1h-5.7v-22.3c0-5.3-0.2-9.4-4-9.4
	c-6.1,0-11,1.6-11,2.7L264.4,556.4z"/>
<path d="M300.2,514.2h-5.7v-8.1h5.7V514.2z M300.2,546.3c0,2.9,0.3,4.7,1.4,5.4s2.6,0.5,5.3-0.3l1.2,4.7c-2,0.7-4.1,1.1-6.2,1.2
	c-4.1,0-7.2-2.4-7.2-8.7v-27.8h5.7V546.3z"/>
<path d="M320.9,551.9c1.6,0.3,3.3,0.1,4.8-0.5l1.1,4.6c-1.8,0.6-3.6,1-5.5,1.2c-0.7,0-1.4,0-2.2-0.1c-4-0.7-5.9-3.6-5.9-10.4v-21
	h-5.3v-4.8h5.4v-9.9h5.7v9.9h8.2v4.8h-8.2v20.7C319.1,549.5,319.5,551.4,320.9,551.9z"/>
<path d="M360.1,551.3c0,2.2-7.5,5.9-17.7,5.9c-8.5,0-8.6-5.9-8.6-12.7v-23.7h5.7v21.5c-0.1,5.6,0,10.1,4,10.1c6,0,10.9-1.4,10.9-2.6
	v-29.1h5.7V551.3z"/>
<path d="M375.2,527.6v28.8h-5.6v-30.4c0-3.7,7.5-6.2,14.4-6.2c0.9,0,1.8,0.1,2.7,0.2l1.5,0.1l-1,4.8c-1-0.1-2.1-0.2-3.1-0.3
	C381.7,524.8,375.8,525.3,375.2,527.6z"/>
<path d="M391.7,543.4v-4.5c0-16.6,4-18.9,14.7-18.9c9.7,0,10.8,5.1,10.8,10.7v4.1c0,2.6-2.7,5-19.9,5.1c0,7.1,1.1,12.6,8,12.6
	c3.3-0.1,6.7-0.5,10-1.3l0.9,4.7c-3.6,0.9-7.2,1.4-10.9,1.4C396.4,557.3,391.7,552.3,391.7,543.4z M411.6,530.3
	c0-3.4-1.7-5.5-5.2-5.5c-6.6,0-8.8,2-8.9,10.2c8.1,0,13.2-0.5,14.1-2V530.3z"/>
<circle cx="320.2" cy="263.4" r="192.1"/>
<path class="st0" d="M401.8,349l-0.7-69.4h-61.2v15.3l17.3,7.6l0.1,15l0.2,20.3c-7.1,2.2-14.3,3.6-21.7,4.1
	c-2.3,0.1-4.7,0.2-7.1,0.2c-8.8,0.1-17.6-0.9-26.2-2.8c-4.1-0.9-8.1-2.4-11.8-4.4c-1.1-0.6-2.1-1.2-3.1-1.9c-0.5-0.4-1-0.8-1.5-1.3
	c-1.6-1.8-2.8-3.9-3.6-6.1c-1.1-2.7-1.9-5.5-2.5-8.4c-0.7-3.1-1.3-6.3-1.6-9.4c-0.3-2.8-0.5-5.2-0.6-6.9c0-0.8,0-1.4,0-1.8v-0.4
	c0-3,0-6.4,0-10.1c0-10.9-0.1-24.5-0.1-37.9c0-10.8,0-21.4,0.2-30.2c0-5.2,0.6-10.3,1.8-15.4c0.4-1.5,0.8-2.9,1.4-4.4
	c0.2-0.5,0.4-0.8,0.5-1l0.1-0.1c1.8-2.5,4-4.7,6.4-6.6c3.8-2.8,8.1-4.7,12.7-5.7c7.9-1.7,16-2.4,24.2-2.2c10.4-0.1,20.8,1.1,31,3.4
	c3.5,0.8,6,1.6,7.6,2.1l1.6,0.6l0,0l17.7-40.4c-2.1-0.9-23.2-9.8-57.9-9.8c-16.8,0-31.4,1.6-44.9,6.6c-6.7,2.5-13,6-18.7,10.3
	c-5.6,4.3-10.6,9.3-14.9,15c-4.6,6.5-7.9,13.8-9.7,21.5c-2,8.3-3,16.8-3.1,25.3c-0.2,9.3-0.2,20.1-0.2,31c0,18,0.1,36.2,0.1,47.8
	v0.3c0,0.3,0,0.7,0,1c0.2,7.4,0.9,14.7,2.3,22c0.5,2.7,1.1,5.5,1.8,8.4c0.9,3.5,2,6.9,3.2,10.3c0.2,0.6,0.5,1.2,0.7,1.8
	c1.3,3.2,2.9,6.4,4.6,9.4c2.6,4.4,5.7,8.5,9.4,12c0.6,0.6,1.2,1.1,1.8,1.6c5.2,4.5,11,8.2,17.2,11c5.5,2.5,11.3,4.4,17.1,5.9
	c12.1,2.8,24.4,4.2,36.8,4.1c2.6,0,5.2,0,7.7-0.2h1.6c12-0.8,23.9-3.1,35.3-6.9c5.4-1.7,10.6-3.7,15.7-6l12.9-6L401.8,349z"/>
</svg>
