<?xml version="1.0" encoding="utf-8"?>
<!-- Generator: Adobe Illustrator 19.2.1, SVG Export Plug-In . SVG Version: 6.00 Build 0)  -->
<svg version="1.1" id="layer" xmlns="http://www.w3.org/2000/svg" xmlns:xlink="http://www.w3.org/1999/xlink" x="0px" y="0px"
	 viewBox="0 0 652 652" style="enable-background:new 0 0 652 652;" xml:space="preserve">
<style type="text/css">
	.st0{fill:#231F20;}
</style>
<path class="st0" d="M21.2,298.8c1.3-1.4,3.3-1.3,3.3-1.3h16.4c0,0,4.4-0.1,6.6,0.8c2.1,0.8,4.3,3.6,4.3,3.6l22.2,28.9
	c0.8,1,3.2,2,4.2,0.7c0.4-0.6,0.4-1.8,0.4-1.8L78,297.5h16.5v42.9c0,0,0,2.5-1.6,4.4c-1.6,2-5.9,1.8-5.9,1.8h-7.7
	c0,0-6.1,0.2-10.8-0.8c-3.9-0.9-9.5-8.7-9.5-8.7l-19-24.6c0,0-0.7-1.1-2.2-1.1c-1.9,0-1.6,1.1-1.6,1.1l0.6,34.1H20v-45.4
	C20,301.3,19.9,300.1,21.2,298.8 M99.4,297.5h16.2v22.6l0.1,4.5c0.1,7,1.3,9,5.9,9.6c2.7,0.4,7.8,0.7,12.9,0.7
	c11.1,0,14.4-0.5,16.1-2.3c1.4-1.5,2.1-5.2,2.1-12.5v-22.6H169v22.6l-0.2,6c-0.2,10.5-1.1,13.9-4.4,16.8c-2,1.7-4.5,2.9-7.4,3.5
	c-5.5,1-6.4,1.1-17.2,1.1c-8.4,0-14.5-0.1-19-0.2c-3.8-0.1-7.5-0.6-10.9-1.4c-5.7-1.4-8.8-4.4-9.7-9.4c-0.6-2.7-0.8-6.1-0.9-10
	V297.5z M358.9,334.5l4.8-0.1c8.4,0,10.8-1.4,11-6.3c0.2-2.4,0.2-5.8,0.2-8.2c0-7.8-0.7-9.1-5.6-9.7c-3.4-0.4-9.8-0.7-15.5-0.7
	c-11.3,0-16.6-0.1-18.2,1.2c-1.8,1.5-1.7,4.9-1.7,11.4c0,9.9,0.6,11.4,8.3,12c3.1,0.2,5.1,0.4,9.7,0.4
	C352.7,334.5,358,334.5,358.9,334.5z M354.4,296.8l14.2,0.4c11.3,0.3,16.6,1.5,19.4,4.7c2.7,3,3.3,5.8,3.3,16.9c0,1,0,2.1-0.1,3.1
	c-0.1,6.9-0.3,11.7-0.6,14.2c-0.3,3-1.6,5.5-3.5,7.1c-4,3.2-11.2,4.2-30.1,4.2c-13.4,0-22-0.5-28.2-1.6c-7.2-1.3-10.4-4.7-11-11.6
	c-0.2-2.6-0.3-5.4-0.3-8.3c0-1.2,0-2.4,0.1-3.7c0.2-6.4,0.3-10.8,0.6-13.1c0.3-3.5,1.8-6.4,3.9-8.3c3.3-2.7,8-3.7,19.5-3.9
	c4.5-0.1,7.9-0.1,10.2-0.1H354.4z M173.9,332.3c0,0,3,3.7,25.3,3.7h15.3c7.7-0.1,8.8-0.7,8.8-4.4c0-2.8-1.3-3.5-6.4-3.6
	c-2.7,0-22.7-0.9-25.6-1c-7.9-0.2-11.6-1.3-13.8-3.8c-2.2-2.4-3.1-5.4-3.1-10.4c0-10.4,3.5-14.5,12.9-15.4c4.8-0.4,12-0.7,21.1-0.7
	c11.4,0,15.8,0.3,20.4,1.3c2.6,0.6,4.7,1.6,6.1,3c1.9,2,2.7,4.9,2.7,9.5c0,0.4-4.9-2.8-24.3-2.8h-8.3c-13.6,0-14.7,0.3-14.7,3.6
	c0,2.4,0.9,3.4,3.2,3.7c2.4,0.3,33.4,1.3,37.5,2.3c2,0.4,3.8,1.3,5.1,2.4c2.5,2.2,3.5,5.2,3.5,10.7c0,5.9-1.1,10-3.3,12.2
	c-3,3.1-7.4,4.2-16.5,4.4c-6.8,0.1-11.4,0.1-13.8,0.1c-12.2,0-17.4-0.3-22.4-1.2c-3.1-0.6-5.5-1.8-7-3.4
	C174.4,340.5,173.9,338.3,173.9,332.3z M285.5,334.5c19.5,0,27.2-5.3,27.2-4.2c0,8.3-0.7,10.8-3.8,13c-3,2.3-8.4,3.4-17.5,3.7
	c-2.1,0.1-5.1,0.1-8.9,0.1c-5.9,0-12.1-0.1-16.9-0.2c-3.7-0.1-7.2-0.4-10.4-1c-6-1.1-9.6-4.2-10.4-8.9c-0.3-1.8-0.5-4.3-0.6-7.2
	l-0.1-7.5c-0.1-0.7-0.1-1.3-0.1-2c0-5.7,0.3-10.6,0.9-13.3c0.8-4.3,4.3-7.4,9.5-8.4c5.1-1,10.3-1.3,23.6-1.5h4.3
	c10.3,0,13.9,0.2,18.5,0.9c2.6,0.4,4.7,1.2,6.3,2.3c3.3,2.4,4.5,5.8,4.5,12.3c0,0.4-4.6-2.7-20.4-2.7c-3.6-0.3-7.8-0.5-12.8-0.5
	c-11.3,0-14.5,0.4-16,1.6c-1.6,1.5-2.2,4.3-2.2,10.3c0,7.9,0.5,10.4,2.2,11.7c1.6,1.2,5.2,1.6,13.3,1.6h2.4L285.5,334.5z
	 M604.6,323.9c3.8,0,6.5-0.9,8.1-2.6c1.6-1.7,2.3-4.6,2.3-8.6v-0.6c0-3.8-0.8-6.5-2.4-8c-1.6-1.5-4.3-2.3-8.2-2.3h-8.9v22.1H604.6z
	 M591,298h14.2c2.6,0,4.9,0.4,6.8,1.1c1.9,0.7,3.4,1.8,4.6,3.1c1.2,1.3,2.1,2.9,2.6,4.6c0.6,1.8,0.9,3.7,0.9,5.7
	c0,2-0.3,3.9-0.8,5.7c-0.5,1.8-1.4,3.3-2.6,4.7c-1.2,1.3-2.7,2.4-4.6,3.2c-1.9,0.8-4.2,1.2-6.9,1.2h-9.5v19.2H591V298z M572.9,298
	h4.6v48.5h-2.2l-1.9-4.5l-2.8,3.5c-0.9,0.4-2.2,0.8-3.8,1.3c-1.7,0.5-3.5,0.7-5.6,0.7c-2.5,0-4.7-0.4-6.4-1.1
	c-1.8-0.7-3.2-1.9-4.3-3.4c-1.1-1.5-1.9-3.5-2.3-5.9c-0.5-2.4-0.7-5.3-0.7-8.6V298h4.6v32.1c0,2.9,0.2,5.2,0.5,7
	c0.3,1.8,0.9,3.2,1.7,4.2c0.8,1,1.8,1.7,3,2c1.2,0.4,2.8,0.6,4.5,0.6c2.6,0,4.7-0.4,6.4-1.1c1.7-0.7,3.2-1.6,4.6-2.5V298z
	 M519.2,343.9c2.1,0,4-0.4,5.7-1.2c1.6-0.8,3-2.1,4.1-3.8c1.1-1.7,2-4,2.5-6.7c0.6-2.7,0.9-6,0.9-9.9v-1.5c0-6.9-1.1-11.9-3.3-15.1
	c-2.2-3.1-5.5-4.7-9.9-4.7c-4.4,0-7.7,1.6-9.9,4.9c-2.2,3.2-3.3,8.3-3.3,15.2v1.4c0,3.9,0.3,7.2,0.9,9.9c0.6,2.7,1.4,4.9,2.5,6.6
	c1.1,1.7,2.5,2.9,4.2,3.7C515.2,343.5,517.1,343.9,519.2,343.9z M519.1,347.5c-3,0-5.7-0.6-7.9-1.8c-2.3-1.2-4.1-2.9-5.6-5.1
	c-1.5-2.2-2.6-4.9-3.3-8c-0.7-3.1-1.1-6.6-1.1-10.4c0-3.7,0.4-7.1,1.1-10.2c0.7-3.1,1.9-5.7,3.4-7.9c1.5-2.2,3.4-3.9,5.7-5.1
	c2.3-1.2,4.9-1.8,7.9-1.8c3,0,5.6,0.6,7.9,1.8c2.3,1.2,4.2,2.9,5.7,5.1c1.5,2.2,2.6,4.8,3.4,7.9c0.7,3.1,1.1,6.4,1.1,10.2
	c0,8.2-1.5,14.5-4.4,18.9C529.9,345.3,525.3,347.5,519.1,347.5z M477.3,322.7c1.9,0,3.5-0.2,4.8-0.6c1.3-0.4,2.4-1,3.2-1.8
	c0.8-0.8,1.4-1.9,1.8-3.3c0.4-1.3,0.6-3,0.6-4.9v-0.6c0-1.9-0.2-3.5-0.6-4.7c-0.4-1.2-1-2.2-1.8-3c-0.8-0.7-1.9-1.3-3.3-1.6
	c-1.3-0.3-3-0.5-4.9-0.5h-8.9v20.9H477.3z M483.9,328.8l9.6,17.7h-5.2L477.5,326h-9.3v20.4h-4.5V298h14.2c2.6,0,4.9,0.3,6.8,1
	c1.9,0.7,3.4,1.7,4.6,2.9c1.2,1.2,2.1,2.7,2.6,4.4c0.6,1.7,0.9,3.6,0.9,5.6c0,1.5-0.2,3-0.6,4.5c-0.4,1.5-1,3-2,4.2
	s-2.3,2.4-3.9,3.3c-1.6,0.9-3.7,1.4-6.2,1.6L483.9,328.8z M444.8,346.9c-1,0.2-2,0.3-3.2,0.4c-1.1,0.1-2.2,0.1-3.2,0.1
	c-3.4,0-6.2-0.6-8.6-1.9c-2.4-1.3-4.3-3.1-5.7-5.3c-1.5-2.3-2.5-4.9-3.2-8c-0.7-3.1-1-6.5-1-10.1c0-3.6,0.4-6.9,1.1-9.9
	c0.7-3.1,1.8-5.7,3.4-7.9c1.5-2.2,3.4-4,5.8-5.3c2.3-1.3,5.1-1.9,8.3-1.9c2.6,0,4.8,0.2,6.7,0.7c1.9,0.4,3.7,1,5.5,1.8l-0.7,3.7
	c-1.1-0.3-2.2-0.7-3.2-0.9c-1-0.3-2-0.5-2.9-0.7c-0.9-0.2-1.9-0.3-2.8-0.4c-0.9-0.1-1.9-0.1-3-0.1c-1.8,0-3.6,0.3-5.2,1
	c-1.6,0.6-3,1.7-4.2,3.3c-1.2,1.5-2.1,3.6-2.8,6.2c-0.7,2.6-1,5.8-1,9.7v1.4c0,3.9,0.3,7.2,0.9,9.9c0.6,2.7,1.4,4.9,2.6,6.6
	c1.1,1.7,2.5,2.9,4.2,3.7c1.7,0.7,3.5,1.1,5.6,1.1c2.2,0,4-0.2,5.5-0.5c1.5-0.3,2.8-0.7,3.8-1v-16.7h-7.8V322H452v25h-1.9l-1.4-3.3
	L444.8,346.9z"/>
</svg>
