<?xml version="1.0" encoding="utf-8"?>
<!-- Generator: Adobe Illustrator 19.2.1, SVG Export Plug-In . SVG Version: 6.00 Build 0)  -->
<svg version="1.1" id="layer" xmlns="http://www.w3.org/2000/svg" xmlns:xlink="http://www.w3.org/1999/xlink" x="0px" y="0px"
	 viewBox="0 0 652 652" style="enable-background:new 0 0 652 652;" xml:space="preserve">
<style type="text/css">
	.st0{fill-rule:evenodd;clip-rule:evenodd;fill:#E51A38;}
	.st1{fill:#E51A38;}
</style>
<g>
	<path class="st0" d="M609.5,208.3c-0.9,0-1.8-0.3-2.7-0.6c-0.9-0.3-1.7-0.8-2.3-1.4c-0.7-0.6-1.3-1.4-1.6-2.2
		c-0.4-0.9-0.6-1.8-0.6-2.8c0-1,0.2-1.9,0.5-2.7c0.4-0.9,1-1.6,1.6-2.2c0.6-0.6,1.4-1.2,2.3-1.5c0.9-0.4,1.8-0.6,2.7-0.6
		c0.9,0,1.8,0.2,2.7,0.5c0.9,0.4,1.7,0.9,2.3,1.5c0.6,0.6,1.2,1.4,1.6,2.2c0.4,0.9,0.6,1.8,0.6,2.8c0,1.3-0.4,2.5-1,3.5
		c-0.6,1-1.5,1.9-2.6,2.5C611.9,207.9,610.7,208.3,609.5,208.3 M603.8,201.2c0,1.1,0.3,2.1,0.7,3c0.4,0.9,1.2,1.7,2,2.1
		c0.9,0.4,1.9,0.7,3,0.7c1,0,2-0.3,2.8-0.7c0.9-0.4,1.6-1.2,2.1-2.1c0.5-0.9,0.8-2,0.8-3c0-0.8-0.1-1.6-0.4-2.3
		c-0.3-0.7-0.7-1.4-1.2-1.9c-0.5-0.5-1.2-1-1.8-1.3c-0.7-0.3-1.5-0.4-2.2-0.4c-0.7,0-1.6,0.1-2.2,0.4c-0.7,0.3-1.4,0.7-1.8,1.3
		c-0.5,0.5-1,1.2-1.2,1.8C604,199.7,603.8,200.5,603.8,201.2L603.8,201.2z M608,201.7v3.6h-1.3v-8.1h3.1c0.9,0,1.7,0.2,2.1,0.5
		c0.4,0.4,0.7,1,0.7,1.8c0,0.7-0.2,1.3-0.6,1.5c-0.4,0.3-0.9,0.6-1.5,0.7l2.2,3.6h-1.3l-2.1-3.6H608z M608,200.8h1.5
		c0.6,0,1.2-0.1,1.5-0.2c0.3-0.1,0.5-0.6,0.5-1.1c0-0.8-0.7-1.3-1.8-1.3H608V200.8z"/>
	<path class="st0" d="M36.6,429.7l11.1-9.7l11.1-8.9c3.6-2.8,11.2-8.6,11.2-8.6V396v-6.6v-6.6v-6.4l-0.8,0.5l-0.8,0.4l-0.7,0.5
		l-0.7,0.4c-4.8,3-8.4,4.3-8.4-14.4v-10v-9.9v-9.7v-9.8l1.3-0.5l1-0.6l1.3-0.5l1.4-0.7l4.1,19.2l4,18.7l4.2,17.9l4.2,17.8l7.5-4.9
		l7.4-4.6l7.6-4.3l7.5-4.3v-5.8v-5.8v-5.7v-5.8l-1,0.5l-1,0.4l-0.9,0.5l-1,0.5c-7.3,3.5-9.5-0.8-12.6-13.3l-2.2-8.7l-2.4-8.9
		l-2.3-8.9c-0.6-3-3.9-6.8-2.1-9.1c8.2-10.7,17.6-28.5,17.6-54.1c0-25.6-12.4-54.6-33.3-54.6H57.9H47l-10.8-0.3H25.5v7.8v7.7v7.7
		v7.8l0.7-0.2H27l0.7-0.1l0.7-0.1c5.5-0.7,9.4,0.4,9.4,20.6v31.9v31.7v31.9v31.9c0,20.4-3.8,24.4-8.9,28.8l-1.3,1l-0.7,0.7l-0.7,0.5
		l-0.7,0.8v7.7v7.9v7.7v7.8c3.2-2.9,6-5.8,8-7.5L36.6,429.7z M58.6,294.9v-16.3v-16.4v-16.7v-16.2l0.7-0.2l0.7-0.1h0.6h0.7
		c9.9-1.1,19.2,4.3,19.2,28.5c0,25.7-8.6,36.3-17.5,37L58.6,294.9z"/>
	<path class="st0" d="M112.8,376.2l16.7-8.3c5.5-2.7,11.7-5.4,16.9-7.5l16.9-6.7l3.1-12.5l3.1-12c1-3.9,2.2-8.6,3.2-12l3.2-11.6
		l-2.6-1.2c-0.9-0.2-2-0.9-2.7-0.9c-0.6,0-2-1.1-2.6-1.1c-0.7,0-2.7-1.5-2.7-1c-9.5,28.3-15.6,40.5-31.9,43.4l-1.1,0.2l-0.9,0.5
		l-1,0.4l-1,0.4v-13v-13v-13.1v-12.9l1.1-0.2l1.3-0.5l1.2-0.1l1.3-0.4c5.7-1.4,6.9,4.4,6.9,14.2v1.7v1.8v1.8v1.8l2.8-0.8l2.7-0.8
		l2.8-0.9l2.8-0.7v-16.2v-16.2v-16.1v-16.1l-2.8,0.3l-2.8,0.3l-2.7,0.4l-2.8,0.4v1.5v1.6v1.6v1.9c0,10.6-3,15-6.9,15.6l-1.3,0.2
		l-1.2,0.3l-1.3,0.1l-1.1,0.4v-12.5V246v-12.3v-12.5h0.7h0.7l0.7-0.2h0.6c12.5-0.7,23.1,5.3,30,29.1c0.1,0.4,2-2,2.6-2.2
		c0.4-0.2,2.2-1.7,2.6-2.1l2.7-2.2c0.8-0.4,3-1.5,2.8-2.1l-3.2-10.2l-3-10.3l-3.2-10.8l-3-10.5H144l-16-0.1h-16.1l-15.9-0.2v5.8v6
		v6.1v5.9h0.6h0.7l0.7-0.1c11.1-0.8,10,6,10,16.1V264v24.9v24.9v24.8c0,10.9,1.4,16.7-8.7,21.1l-1.9,1.1l-1.4,0.6v5.8v6.1v6.1v6.1
		C100,383.2,96.4,385.3,112.8,376.2"/>
	<path class="st0" d="M318.2,327.2l8.3,0.1l11.2,0.4l11,0.7l11.4,0.9V325v-4v-4.3v-4.1h-1l-0.7-0.2h-0.7l-0.7-0.1
		c-4.8-0.3-8.4-1.3-8.4-12.8v-5.9v-6v-6v-5.8h1.2h1.1l1.3,0.1h1.5l4,13.6l4.1,13.6l4.2,13.7l4.2,13.9l7.5,1l7.3,1.1l7.6,1.2l7.5,1.3
		v-4.5v-4.4v-4.3v-4.4l-1-0.2l-1-0.1l-1-0.2l-1-0.2c-7.3-1-9.4-5.1-12.6-15.4l-2.2-7.2l-2.3-7.1l-2.3-6.9c-0.5-2.1-4.1-5.8-2.2-7
		c9-5.2,17.6-15.1,17.6-33.9c0-18.7-12.2-39.6-33.3-39.6h-10.8h-10.8h-11h-10.6v4.1v4.1v4v4.2h1h0.7h0.6h0.7c5.4,0,9.2,0.7,9.2,11.9
		v17.6v17.8v17.6v17.7c0,11.3-4.3,10.8-9.2,11.7l-0.7,0.1l-0.7,0.1h-0.7h-1v4.1l0.1,12.4C316,327.2,317.2,327.3,318.2,327.2
		 M348.5,258.2l0.1-10.1v-10v-10v-9.9h0.7h0.7h0.4h0.7c9.9,0.2,19.2,4.5,19.2,20.7c0,17-10,19-18.2,19.3L348.5,258.2z"/>
	<path class="st0" d="M426.9,341.5l11,3l10.8,3.3l10.9,3.7l10.9,3.8v-5v-5v-5v-5l-0.7-0.3l-0.7-0.3l-0.6-0.1l-0.7-0.2
		c-5.5-1.8-7.3-6.3-9.5-18.8l-5.4-30.1l-5.2-29.4l-5.3-28.5l-5.2-27.7h-4.6h-4.8h-4.7h-4.6l-5.8,26.4l-5.8,26.2l-5.9,25.5l-5.7,25.5
		c-2.7,11.1-5.1,13.1-10.4,11.9l-0.6-0.1h-0.6l-0.4-0.1h-0.4v4.1v4.3v4.4v4.4l8.6,1.4l8.9,1.7l8.9,1.8l8.9,2.1v-4.6V330v-4.4v-4.5
		l-0.7-0.1l-0.7-0.1l-0.6-0.2l-0.4-0.1c-4.6-0.9-7.1-1.4-7.1-4.9c0-2.9,0.5-4.9,1-7.4l0.7-3.3l0.7-3l0.5-3.5l0.7-3.1l5.2,0.7l5.4,1
		l5.2,1l5.3,1l0.5,3.2c0.1,1.1,0.4,2.4,0.6,3.3l0.7,3.3l0.6,3.5c0.6,3,1,6.5,1,8.6c0,3.9-3,3.2-6.7,2.7l-0.9-0.1l-0.7-0.1h-0.7
		l-0.7-0.2v4.6v4.5v4.6V341.5z M414.8,279.8l2.4-10.2c0.6-2.9,1.5-6.6,1.8-9.5c0.3-2.9,1.2-6.6,1.8-9.5l2-9.7h0.2
		c0.6,3.2,1.5,7,1.8,10c0.4,3.1,1.6,7.1,1.8,10c0.4,3,1.3,7.3,1.8,10.2c0.5,3,1.2,6.8,1.8,10.3C425.7,281,420,280.3,414.8,279.8"/>
	<path class="st0" d="M466.9,354l9.8,3.8l9.7,4l9.9,4.4v-5.4v-5.5v-5.3v-5.4l-1.1-0.4l-1.3-0.7l-1-0.2l-1.1-0.6
		c-5.4-1.9-9.3-4.3-9.3-18.6v-22v-21.8v-22v-21.8h0.2h0.1c2.1,10.3,4.8,21.5,6.9,32.1l6.8,33.4l7.2,34.6l7,36.6l4.4,2.2l4.6,2.4
		l4.4,2.6l4.6,2.7v-35.9v-35.8v-35.8v-35.7c0-16.2,3.9-16.5,9.4-16.5h0.7h1l0.7,0.1h0.6v-6.1v-6.1v-6.2v-5.9h-8.8h-9.1l-9,0.1h-8.8
		v5.2v5.6v5.5v5.6h0.4h0.7l0.7,0.1h0.5c5.4,0.4,8.1,3.5,8.1,17.1v15.9v16.1v16.2v16.4h-0.1l-5.5-27.2l-5.1-26.5l-5.4-25.5l-5.3-24.5
		l-9.3,0.1h-9.4h-9.4h-9.2v4.6v4.9v4.8v4.9l0.7,0.1h0.9h0.7h0.7c5.4,0.3,9.4,1.4,9.4,15.1v21.5v21.6v21.5v21.6c0,13.8-4,12-9.1,11.4
		l-1-0.1l-0.7-0.1l-0.9-0.4l-0.7-0.3v4.9v4.7v4.8v5.2C460.3,351.8,463.7,353.1,466.9,354"/>
	<path class="st0" d="M546.3,394.1c2.9,1.8,5.8,3.8,8.6,5.8l8.9,6.3l8.8,6.6c25.1,21.8,43.8-9.2,43.8-81.1
		c0-70.7-17-132.8-41.2-132.8h-9.5l-9.4,0.2l-9.4,0.3h-9.1v5.9v6.1v5.9v6.3l0.7,0.1h0.7h0.7l0.7,0.2c5.4,0.4,9.3,1.8,9.3,19.3v27.2
		v27.4V325v27.4c0,17.4-3.9,14.3-9,13.1l-1-0.2l-0.7-0.4l-0.7-0.4l-0.7-0.3l0.1,6.2l-0.1,5.9v6.2v6
		C541.3,390.6,544.1,392.5,546.3,394.1 M570.7,381.1v-38.3v-37.6V267v-37.7h0.4l0.4,0.1h0.4h0.7c12.6,1.5,21.5,37.3,21.5,85.8
		c0,64.7-12.2,70.6-20.9,66.8l-1.8-0.7L570.7,381.1"/>
	<path class="st0" d="M247.8,253.5c-7.9,0-14.4,6.5-14.4,14.5c0,7.9,6.5,14.4,14.4,14.4c8,0,14.5-6.5,14.5-14.4
		C262.4,260,255.9,253.5,247.8,253.5"/>
	<path class="st1" d="M172.8,325.9c1-1.5,1.6-3.7,1.9-7.1c-0.6,2-1.2,4.4-1.8,6.8C172.9,325.7,172.8,325.8,172.8,325.9"/>
	<path class="st1" d="M61.5,231.5l-0.5,0v60.7l1.7-0.1c7.1-0.5,15.3-9.9,15.3-34.5C78,239,72.5,230.3,61.5,231.5 M63.2,289.9v-56.4
		c0.1,0,0.3,0,0.4,0c3,0,12.3,0,12.3,24C75.9,280,69.2,289,63.2,289.9"/>
	<path class="st1" d="M105.7,338.7v-99.4c0-0.9,0-1.7,0-2.6c0-4.5,0.1-8.5-1.5-10c-0.8-0.8-2.3-1.2-4.4-1.2
		c3.1,8.8,4.8,18.6,4.8,28.2c0,26.4-9.8,44.8-18.1,55.6c-0.2,0.5,0.7,2.2,1.1,3.2c0.6,1.3,1.2,2.6,1.5,4l6.8,26.4
		c2.3,9.3,3.9,12.6,6.1,12.6c0.1,0,0.2,0,0.2,0c3.5-2.8,3.5-6.4,3.4-13C105.7,341.1,105.7,339.9,105.7,338.7 M101.8,352.9
		c-0.7-0.9-1.9-3.5-3.7-10.7l-2.2-8.8l-2.4-8.9l-2.3-8.8c-0.3-1.6-1-3-1.6-4.3c-0.2-0.5-0.6-1.2-0.8-1.7
		c5.3-7.1,11.2-17.3,14.7-30.7v59.6c0,1.3,0,2.5,0,3.6C103.7,348,103.7,350.8,101.8,352.9"/>
	<path class="st1" d="M61.9,325.5L61,326v37.8c0,12.2,1.6,13.6,1.8,13.7c0.7,0,2.3-1.1,2.9-1.4l0.7-0.4l1-0.7l0.7-0.3l4-2.6
		l-2.7-11.6L61.9,325.5z M67.6,372.5l-3,1.8c-0.2,0.1-0.4,0.3-0.6,0.4c-0.4-1.6-0.8-4.7-0.8-10.9v-22.2l4.1,19.4l2.4,10.1
		L67.6,372.5z"/>
	<path class="st1" d="M171,245.6l-2.4,1.9c-0.8,0.8-2.5,2.2-3,2.4l-0.1,0.1c-0.2,0.2-0.6,0.6-0.8,0.8c-1,1-1.7,1.7-2.8,1.7h-2
		l-0.4-1.9c-7-24.3-17.4-27.4-25.7-27.4c-0.6,0-1.2,0-1.8,0.1h-0.4v44.8l0.8-0.2l1.3-0.2c3.1-0.5,4.8-5.3,4.8-13.2v-8.7l7.6-1.1
		l8.4-0.9v69.1l-4.6,1.2l-8.3,2.5l-3.1,0.9v-10.4c0-8.1-0.9-11.9-2.8-11.9c-0.3,0-0.6,0-0.9,0.1l-1.5,0.5l-1.1,0.1l-0.5,0.2v46.4
		l1.2-0.2c14.6-2.6,20.3-12.6,30.1-41.6l0.3-1.8l2.2-0.1c0.8,0,1.5,0.4,2.2,0.8c0.2,0.1,0.5,0.3,0.7,0.4c0.8,0.1,1.5,0.5,2.2,0.8
		c0.2,0.1,0.3,0.2,0.5,0.3c0.7,0.1,1.4,0.4,2,0.6c0.3,0.1,0.6,0.3,0.8,0.3l0.3,0.1l0.3,0.1l0.5,0.2v-59.9
		C174.3,243.8,172.6,244.8,171,245.6 M145.9,242.5l-9.5,1.4v10.5c0,7.1-1.5,10.3-2.7,11v-40.1h0c6.3,0,14,2.1,20.2,16.2L145.9,242.5
		z M133.8,339.8v-42l1.6-0.5c0,0,0,0,0,0c0.4,0.8,1,3.1,1,9.8v13.2l5.8-1.7l8.3-2.5l4.8-1.3C149.1,330.9,143.7,337.6,133.8,339.8
		 M172.7,299.1c-0.3-0.1-0.7-0.2-1.1-0.3c0,0-0.1,0-0.1-0.1c-0.7-0.4-1.5-0.8-2.5-1c-0.1-0.1-0.2-0.1-0.3-0.2c-0.9-0.5-1.9-1-3.2-1
		l-4,0.1l-0.6,3.5c-1.4,4.2-2.8,8.1-4.1,11.5v-62.7c0.2,0.7,0.5,1.5,0.7,2.2l0.7,3.5h3.8c2.1,0,3.2-1.2,4.4-2.4
		c0.2-0.2,0.4-0.4,0.6-0.6c0.6-0.4,2.3-1.7,3.2-2.6l2.1-1.7c0.2-0.1,0.3-0.2,0.5-0.3V299.1z"/>
	<path class="st1" d="M279.4,274.4h-0.6l0.1,35.3l0.9-0.1c9.2-1.3,13.8-7.1,13.8-17.5C293.6,279.1,285.1,274.4,279.4,274.4
		 M281,307.2l0-30.5c4.3,0.7,10.5,4.5,10.5,15.4C291.4,303.1,285.8,306.2,281,307.2"/>
	<path class="st1" d="M351.2,220.6H351l-0.1,35.1l1.2,0c9.5-0.3,15.8-3.2,15.8-16.8C368,226.8,362.5,220.8,351.2,220.6 M353.1,253.5
		l0-30.7c8.8,0.8,12.7,5.8,12.7,16C365.9,251.5,359.9,253.2,353.1,253.5"/>
	<path class="st1" d="M169.1,221.6l2.6,8.9l3.1,10.1v-7.8C174.8,221.9,172.3,221.6,169.1,221.6"/>
	<path class="st1" d="M351.9,278.3l-0.8,0v21.3c0,10,2.6,10.2,6.1,10.4l2,0.2l0.4,0.1h1.9l-2-6.5L351.9,278.3z M357.9,307.9
		l-0.6-0.1c-2.9-0.2-4.1-0.3-4.1-8.3v-9.3l4.2,14.1l1.1,3.5H357.9z"/>
	<path class="st1" d="M573.1,232.1v147.4l0.9,0.4c1.1,0.5,2.1,0.7,3,0.7c4.4,0,14.6-6.4,14.6-65.3
		C591.6,264.2,582.2,234.8,573.1,232.1 M577,378.4c-0.5,0-1.1-0.1-1.8-0.4v-142c6.7,7.4,14.2,34.9,14.2,79.2
		C589.4,376.6,578.3,378.4,577,378.4"/>
	<path class="st1" d="M575.1,194.4h-9.6l-9.4,0.2l-9.3,0.3h-13.7l-10,0l-8.9,0.1h-13.3v12.7L498,195l-13,0.2h-32.5v28l4.1,0.4
		l3.3,0.1c3.3,0.2,4.9,0.4,4.9,10.6v86.2c0,1.7-0.1,3-0.2,4.1c-0.7-2.2-1.4-5.2-2.1-9.7L452,255.2l-5.3-28.6l-5.9-31.4h-26.3
		l-12.3,56.1l-5.9,25.5l-5.7,25.5c-0.3,1.2-0.6,2.3-0.8,3.2c-0.5-1.4-1.1-3.2-1.8-5.3l-2.2-7.3l-4.5-13.9c-0.3-1.2-1-2.4-1.6-3.5
		c8.4-5.8,17.2-16.5,17.2-36.1c0-21.2-14.5-44.2-37.9-44.2h-47.9V207c-10.1-11.7-26.8-11.8-34.7-11.8h-37.5v26.2h7.2l0.7-0.2
		c3.5,0,4.2,0.3,4.2,7.6v20.3c-1-0.2-1.9-0.3-3-0.3c-0.3,0-0.7,0-1,0.1c-5.3-31.4-22.8-53.8-44.2-53.8h-38.9l0-0.1h-19.6l-16-0.1
		h-16l-20.5-0.2v11.1c-6-7-13.6-11.3-22.7-11.3l-21.7,0l-11-0.3H20.9v41.2l5.5-1.1l2.5-0.3c1.4-0.2,2,0,2,0
		c0.1,0.1,2.2,1.7,2.2,16.1v127.3c0,18.9-3.3,21.9-7.2,25.2l-1.1,0.9l-0.9,0.8l-0.8,0.6l-2.3,2.5v43.3l7.7-7.1
		c1.6-1.5,3.2-3,4.5-4.3c1.3-1.2,2.5-2.3,3.4-3.2l14.1-12.5l11-8.7c3.6-2.8,11.2-8.5,11.2-8.5l1.8-1.4v-12.7l2.6,11l12.9-8.5l6-3.7
		l1.8-1.1l12.4-7l4.5-2.5l16.6-8.3c5.9-2.9,12.3-5.6,16.6-7.4l12.5-5v0.4l6.4-2.9l16.7-5.7l8.8-2.6l8.8-2.5
		c15.9-3.7,29-15.7,37.4-32.5v24.5l7.6-1.5l16.9-2.3l19.4-1.8c7.9-0.4,19.4-1,28.3-7.5c0,0.7,0,1.4,0,2.1l0.1,4.4l15.2,0.2l11.1,0.4
		l10.9,0.7l16.3,1.3v-5.9l1.9,6.4l10.4,1.4l14.8,2.3l3,0.5l13.4,2.6l14.2,3.3v0.2l14.3,3.8l10.6,3.3l10.8,3.7l1,0.4
		c1.3,0.5,2.6,1,4,1.4l5.1,1.8l7,2.7l9.6,3.9l16.3,7.3v-26.9l5.8,30.1l6.4,3.2l4.6,2.4l15.8,9.3v-0.2l2,1.2c3.3,1.9,6.1,3.8,8.2,5.4
		l0.3,0.2c2.9,1.9,5.9,3.9,8.4,5.6l8.8,6.3l8.7,6.5c6,5.2,12,7.9,17.8,7.9h0c7.5,0,18-4.5,25.2-25.8c5.4-15.8,8.2-38.9,8.2-66.7
		C620.9,263.5,605.2,194.4,575.1,194.4 M247.8,251.1c9.3,0,17,7.6,17,17c0,9.3-7.6,16.8-17,16.8c-9.3,0-16.8-7.5-16.8-16.8
		C231,258.7,238.6,251.1,247.8,251.1 M200.7,344.3l-8.8,2.5l-8.9,2.6l-16.9,5.8l-3.4,1.6v-0.3l-15.4,6.1c-4.3,1.8-10.8,4.5-16.7,7.4
		l-16.7,8.3l-4.4,2.4l-12.6,7.1l-2,1.2l-5.9,3.6l-10.4,6.8l-6.1-25.9v30l-1,0.7c0,0-7.6,5.8-11.2,8.5l-11.1,8.8l-14.1,12.5
		c-0.9,0.9-2.1,2-3.4,3.2c-1.4,1.3-2.9,2.8-4.5,4.3l-4.1,3.8v-37.6l1.8-1.8l0.6-0.4l0.8-0.7l1.2-0.9c4.2-3.6,7.9-6.8,7.9-26.8V250
		c0-18.3-3.3-18.3-5-18.3c-0.4,0-1,0-1.6,0.1l-2.7,0.3l-2.9,0.6v-36.5h13.1l10.9,0.3h21.8c10.3,0,18.7,6.4,24.8,15.9v-15.7L112,197
		H128l16,0.1l18,0l0.7,2.4v-2.3h39.9c20.3,0,36.9,21.6,42.1,51.9c-8.9,1.5-15.8,9.4-15.8,18.8c0,9.4,6.9,17.3,16,18.7
		C240,316.1,222.9,339.1,200.7,344.3 M247.1,287c0.3,0,0.5,0,0.8,0c1,0,2-0.1,3-0.2v14.8c0,8.2-1.2,8.4-4.9,9l-1.1,0.2l-1.6,0
		l-3.6,1.2C243.1,304.4,245.6,296,247.1,287 M422.3,317.3l-3.2-0.7l-2.5-0.6c-1.1-0.2-2.6-0.5-3.4-0.8c0-1.7,0.3-3,0.6-4.7
		c0.1-0.5,0.2-0.9,0.3-1.4l1.4-6.2l0.4-2.6l11.3,2.2l2.1,0.4c0.1,0.7,0.2,1.5,0.4,2.3c0.1,0.4,0.2,0.8,0.2,1.1l0.7,3.4l0.6,3.6
		c0.4,2.1,0.7,4.4,0.8,6.1c-0.3,0-0.5-0.1-0.8-0.1l-2.5-0.4h-0.4l-6-2V317.3z M610.7,397.8c-6.8,20.1-16.4,24.3-23.2,24.3
		c-5.3,0-10.8-2.5-16.5-7.4l-8.7-6.6l-8.8-6.3c-2.5-1.7-5.6-3.8-8.5-5.7l-0.2-0.1c-2.2-1.7-5-3.5-8.4-5.5l-1.2-0.7l0-29.5l5.5,2.6
		l0.6,0.1c0.6,0.1,1.1,0.3,1.6,0.4c0.9,0.3,1.8,0.5,2.4,0.5c0.3,0,2-0.6,2-11.7V243.1c0-16.3-3.3-16.5-7.1-16.8l-1.4-0.1l-0.6,0
		c-4.5,0-6.9,0-6.9,14v147.4l-12.7-7.5l-4.6-2.4l-5.5-2.7l-7.2-37.8l-7.2-34.6l-6.8-33.4c-0.8-3.7-1.6-7.5-2.4-11.3v66.3
		c0,13.6,3.6,14.8,7.7,16.3l0.3,0.1l0.8,0.4l1,0.2l1.4,0.7l2.6,0.9v27l-13.3-6l-9.7-4l-7-2.7l-5.2-1.8c-1.3-0.4-2.5-0.9-3.8-1.3
		l-1-0.4l-10.8-3.7l-10.7-3.3l-12.7-3.4v-23.6l3.5,1.2l0.8,0l2.2,0.4c1,0.1,2,0.3,2.7,0.3c0.3,0,0.4,0,0.5,0c0-0.1,0.1-0.3,0.1-0.7
		c0-2.1-0.4-5.5-0.9-8.1l-0.6-3.5L432,306c-0.1-0.4-0.2-0.9-0.2-1.3c-0.1-0.7-0.3-1.5-0.4-2.2l-0.2-1.5l-3.6-0.6l-10.5-2.1l-3-0.4
		l-0.2,0.9l-0.5,3.6l-1.5,6.3c-0.1,0.4-0.2,0.9-0.3,1.4c-0.3,1.8-0.6,3.4-0.6,5.5c0,1.2,0,1.5,5.2,2.5l4.3,1v23.1l-11.9-2.7
		l-13.5-2.6l-3-0.5l-14.8-2.3l-9-1.2l-5.7-18.9v18l-14-1.1l-10.9-0.7l-11.2-0.4l-8.1-0.1c-0.4,0-0.8,0.1-1.2,0.1c-0.5,0-0.9,0-1.3,0
		c-0.2,0-0.3,0-0.4,0l-2.4,0l0-9.3c-8.9,9.3-22.1,9.9-30.7,10.3l-19.4,1.8l-17.1,2.3l-5.1,1v-21.9l2.7-0.9l1.5,0l1.1-0.2
		c4.3-0.7,6.8-1.1,6.8-11.1v-15.3c8-2.2,14-9.5,14-18.2c0-8.8-5.9-16.1-14-18.4v-20.8c0-9.6-2.2-9.7-6.5-9.7l-1,0.2h-4.6v-21.9h35.3
		c13.1,0,29.5,2.1,36.9,16.8v-16.8h45.7c22.1,0,35.8,21.8,35.8,42c0,16.2-6,28.1-17.9,35.4c0.2,0.5,0.6,1.1,0.9,1.6
		c0.6,1.1,1.3,2.1,1.6,3.2l4.6,13.9l2.2,7.3c1.5,4.9,2.7,8,4.1,10c0.8-1.5,1.7-4,2.6-8l5.7-25.5l5.9-25.5l11.9-54.5H439l5.6,29.6
		l5.3,28.6l10.6,59.5c1.5,8.3,2.7,12.3,4.4,14.5c1-0.3,2.2-1.7,2.2-9.3v-86.2c0-12.3-3-12.5-7.1-12.7l-2.3,0l-3-0.3v-23.9h30.4
		l11.2-0.2l5.7,26.4l5.4,25.5l5.9,30.5v-40.9c0-14-3.1-14.5-5.8-14.7l-4.6-0.1v-26.8h11.2l9-0.1h12.1h11.6l9.4-0.3l9.4-0.2h9.6
		c28.4,0,43.7,69.7,43.7,135.2C618.8,359.4,616,382.2,610.7,397.8 M533.4,357.2v-117c0-8.5,1.2-10.8,1.6-11.5c0.3-0.3,1-0.4,3.2-0.4
		l0.3,0l1.7,0.1c2.8,0.2,5.1,0.4,5.1,14.7v109.2c0,5.6-0.4,8.2-0.8,9.3c-0.3-0.1-0.6-0.2-0.9-0.3c-0.5-0.2-1.1-0.3-1.7-0.5
		L533.4,357.2z M499.9,341.1l-2.9-1l-1.5-0.8l-1-0.2l-0.5-0.3l-0.6-0.3c-3.6-1.3-6.3-2.2-6.3-14.3v-45.7l5,24.6l7.1,34.5
		L499.9,341.1z M504.7,226.1l2.7,0.1c1.7,0.2,3.7,0.7,3.7,12.5v18.7l-1.7-8.7L504.7,226.1z"/>
	<path class="st1" d="M425.2,267.5c-0.4-2.1-0.8-4.3-1.1-6.2c-0.1-1.4-0.5-3.2-0.9-4.9c-0.2-0.9-0.4-1.8-0.6-2.7
		c0,0.2-0.1,0.4-0.1,0.7c-0.4,2.1-0.9,4.3-1.1,6.1c-0.3,2.4-0.9,5.2-1.4,7.6c-0.2,0.7-0.3,1.5-0.4,2.1l-1.8,7.6
		c1.7,0.2,3.5,0.4,5.2,0.6c1.4,0.2,2.9,0.3,4.2,0.5c-0.5-2.5-0.9-5-1.3-7.1C425.8,270.3,425.5,268.9,425.2,267.5 M423.2,276.1
		c-0.9-0.1-1.8-0.2-2.8-0.3l1.2-5.3c0.1-0.7,0.3-1.4,0.4-2.1c0.2-0.9,0.4-1.8,0.6-2.8c0.1,0.7,0.3,1.5,0.4,2.2
		c0.3,1.4,0.5,2.8,0.7,4.1c0.2,1.3,0.5,2.8,0.8,4.3C424.1,276.2,423.7,276.1,423.2,276.1"/>
	<path class="st1" d="M200.8,222.4v96.3c7.4-3,18.5-16.2,18.5-50.1C219.2,242.2,211.5,222.9,200.8,222.4 M202.9,315v-90
		c7.3,3,14.2,18.8,14.2,43.5C217.1,297,209.1,310.3,202.9,315"/>
	<path class="st1" d="M318.4,218.6h-3.6c1.3,4,2.1,8.8,2.1,14.5c0.1,14.3-5.4,24.1-16.1,28.7c9,3.4,21.4,11.6,21.5,28.9
		c0,6.8-0.8,12.3-2.2,17c3.4-0.6,5-1.3,5-8.9v-70.7C325.2,218.6,322.8,218.6,318.4,218.6 M323.1,281c-3.1-9.9-10.5-15.9-17.4-19.3
		c8.8-5.6,13.5-15.3,13.4-28.6c0-4.7-0.5-8.8-1.4-12.4h0.7c3.8,0,4.7,0,4.7,7.4V281z"/>
	<path class="st1" d="M289.6,236.3c0-9.8-3.9-15.6-10.8-15.8v30.6C284.1,250.5,289.6,244.9,289.6,236.3 M280.9,248.3V223
		c5.6,1.7,6.5,8.8,6.5,13.3C287.5,242.3,284.4,246.7,280.9,248.3"/>
	<path class="st0" d="M231,268.1c0-7.5,4.9-13.9,11.6-16.1c-4.4-29.2-19.7-52.2-40-52.2h-9.5h-9.4h-9.3h-9.2v4.7v5v4.9v5l0.7-0.2
		h0.7h0.7h0.7c5.5-0.1,9.4,0.5,9.4,13.6v20.7V274v20.7v20.8c0,13.1-4.5,14.5-9.4,16.7l-0.7,0.3l-0.7,0.2l-0.7,0.1l-0.7,0.4v4.8v4.9
		v5v5.1l0.7-0.3l0.5-0.1l7.5-2.5l8.6-3l8.9-2.7l8.9-2.5c21.5-5,38.4-27.6,42.7-57.8C236,282,231,275.6,231,268.1 M200.4,321.4
		l-0.7,0.2l-1.4,0.1v-25.4v-25.4v-25.5V220h0.2h0.5h0.4h0.4c12.8-0.4,21.8,19.9,21.8,48.6C221.6,306.6,208,319.3,200.4,321.4"/>
	<path class="st0" d="M233.4,268.1c0,6.3,4.1,11.6,9.7,13.6c0.5-4,0.7-8.2,0.7-12.4c0-5.1-0.3-10-0.9-14.8
		C237.4,256.4,233.4,261.8,233.4,268.1"/>
	<path class="st0" d="M292,262.2L292,262.2v-0.3c15.4-2.5,22.6-12.8,22.5-28.7c-0.2-29.7-20.4-33.3-38.4-33.3h-8.3h-8.2h-8.3h-8.2
		v4.2v4.2v4.4v4.3h0.7h0.7h0.7l0.7-0.2c5.5,0,9.2,0.6,9.2,12.2v18.2v5.8c5.6,2.8,9.4,8.5,9.4,15.2c0,6.6-3.8,12.3-9.4,15v0.3v18.1
		c0,11.6-3.6,12.7-8.8,13.5l-1.2,0.2l-0.7,0.1h-0.7l-0.7,0.2v4.1v4.4v4.1v4.6l2.3-0.4l7.5-1l9.7-1.2l9.8-0.9l9.7-1
		c17.3-0.8,37.8-3.6,37.7-37.4C319.8,265.7,292,262,292,262.2 M276.4,244.6v-8.7V227V218h0.5h0.5h0.4h0.6c8.3,0,13.6,6.3,13.6,18.2
		c0,10-6.5,16.7-13.1,17.3l-2.5,0.2V244.6z M280.1,312l-2.1,0.3c0,0-1.6,0.2-1.6,0.1l0.1-1.8l-0.1-8.6v-10.1V282v-9.9h0.6h0.7
		l0.7-0.2h0.7c6.6-0.1,16.8,5.1,16.8,20.1C296,303.3,290.8,310.4,280.1,312"/>
	<path class="st0" d="M262.4,268.1c0-5.3-2.8-9.9-7-12.4v9.7v15C259.5,277.8,262.4,273.3,262.4,268.1"/>
</g>
</svg>
