<?xml version="1.0" encoding="utf-8"?>
<!-- Generator: Adobe Illustrator 19.0.0, SVG Export Plug-In . SVG Version: 6.00 Build 0)  -->
<svg version="1.1" id="layer" xmlns="http://www.w3.org/2000/svg" xmlns:xlink="http://www.w3.org/1999/xlink" x="0px" y="0px"
	 viewBox="-153 -46 652 652" style="enable-background:new -153 -46 652 652;" xml:space="preserve">
<style type="text/css">
	.st0{fill:#FBB907;}
	.st1{fill:#1D1D1B;}
</style>
<path class="st0" d="M-131.7,345.5h599.3V381h-599.3V345.5z"/>
<path class="st1" d="M-130.1,280.4c-0.2,26.2,20.9,44.6,46.5,44.6c24.3,0,45.6-19.1,45.6-43.8c0.1-12-5-23.5-14-31.5
	c-8.7-8-18.1-9.7-28.8-12.8c-14.6-4.1-29.6-8.3-29.6-26.4c-0.1-14.3,11.3-26,25.6-26.2c0,0,0,0,0,0c15.4,0,26.4,11,27.4,26.2h15.6
	c0.1-22.3-18-40.5-40.3-40.6c-0.3,0-0.6,0-0.9,0c-23.5,0-42.6,16.2-42.6,40.4c-0.2,10.7,4.4,21,12.5,28c7.5,6.5,17.1,8.9,26.4,11.4
	c8.5,2.2,16.2,4.2,23.1,9.9c6.4,5.2,10.2,13.1,10.3,21.4c0,17.2-14,29.6-31,29.6c-16.6-0.3-29.8-13.7-29.9-30.3H-130.1L-130.1,280.4
	z M-14.8,322.3h15V225H262v-13.6H0.2v-39h-15v39H-38V225h23.1V322.3z M291.1,322.3h15V225h161.4v-13.6H306.1v-39h-15v39H268V225
	h23.1V322.3z"/>
<path class="st1" d="M21.5,322.8h12.5v-52c0-10.5,0.9-16.8,9.5-24.1c4.7-4,10.6-6.3,16.8-6.5v-12.5c-11.4,0.3-22.1,4.4-27,15.5
	v-13.4H21.5V322.8L21.5,322.8z M154.6,229.8H142v49.1c0,8-0.9,16-5.6,22.6c-5.3,7.2-13.8,11.4-22.8,11.4
	c-9.9,0.3-19.3-4.8-24.3-13.4c-3.7-6.3-4.1-13.4-4.1-20.6v-49.2H72.6v49.1c0,12.2,1,23.5,6.6,29.4C89.8,320.7,100,325,111.9,325
	c12.9,0,24.7-4.8,30.8-16.7v14.5h11.9C154.6,322.8,154.6,229.8,154.6,229.8z M249.2,295.6c-8.2,11.4-18.2,17.3-32.7,17.3
	c-20.2,0.2-36.7-16-36.9-36.2c0-0.3,0-0.5,0-0.8c0-20.9,17.3-36.2,37.9-36.2c13,0.2,25,7.1,31.6,18.2h14.1
	c-7.1-18.7-26.2-30.3-45.9-30.3c-26.9,0-50.3,20.9-50.3,48.5c0,28.4,23.1,48.8,50.8,48.8c19.6,0.2,37.4-11.4,45.2-29.4L249.2,295.6
	L249.2,295.6z M368.6,239.8c-20.2,0-36.6,16.4-36.6,36.6s16.4,36.6,36.6,36.6c20.7,0,35.7-17,35.7-37.2c0.3-9.7-3.7-19.1-10.9-25.7
	C386.7,243.6,377.9,239.9,368.6,239.8z M368.6,227.7c25.8,0,48.3,22.1,48.3,47.9c0,26.5-21.4,49.3-48.3,49.3
	c-26.9,0-48.6-21.8-48.6-48.6S341.7,227.7,368.6,227.7L368.6,227.7L368.6,227.7z M429.3,322.8h12.6v-52c0-10.5,0.9-16.8,9.5-24.1
	c4.7-4,10.6-6.3,16.8-6.5v-12.5c-11.4,0.3-22.1,4.4-27,15.5v-13.4h-11.9L429.3,322.8L429.3,322.8z"/>
</svg>
