<?xml version="1.0" encoding="utf-8"?>
<!-- Generator: Adobe Illustrator 19.0.0, SVG Export Plug-In . SVG Version: 6.00 Build 0)  -->
<svg version="1.1" id="layer" xmlns="http://www.w3.org/2000/svg" xmlns:xlink="http://www.w3.org/1999/xlink" x="0px" y="0px"
	 viewBox="-153 -46 652 652" style="enable-background:new -153 -46 652 652;" xml:space="preserve">
<style type="text/css">
	.st0{fill-rule:evenodd;clip-rule:evenodd;fill:#7DAED3;}
	.st1{fill-rule:evenodd;clip-rule:evenodd;fill:#F7DC6B;}
	.st2{fill-rule:evenodd;clip-rule:evenodd;fill:#5B7F71;}
</style>
<g>
	<path class="st0" d="M360.2,309l20,43h18.2l-20-43H360.2z M360.2,309"/>
	<path class="st1" d="M378.4,309l20,43h18.2l-20-43H378.4z M378.4,309"/>
	<path class="st0" d="M396.5,309l20,43h18.2l-20-43H396.5z M396.5,309"/>
	<path class="st0" d="M308.4,198.3l20,43h18.2l-20-43H308.4z M308.4,198.3"/>
	<path class="st1" d="M326.6,198.3l20,43h18.2l-20-43H326.6z M326.6,198.3"/>
	<path class="st0" d="M344.8,198.3l20,43H383l-20-43H344.8z M344.8,198.3"/>
	<path class="st2" d="M-104,241.9c0,0.7,0.1,1.2,0.1,1.6c0,2.3-0.8,3.5-2.3,3.5c-0.4,0-0.8-0.1-1.1-0.2c-0.3-0.1-0.6-0.4-1-0.9
		c-0.3-0.5-0.7-1.1-1.1-1.9c-0.4-0.8-0.8-1.9-1.3-3.2c-1.1-2.5-2-4.4-3-5.5c-0.9-1.1-1.9-1.7-3.1-1.7c-1.2,0-2.1,0.6-2.8,1.8
		c-0.7,1.2-1.1,2.9-1.1,4.9c0,1,0.1,2,0.4,3.1c0.3,1.1,0.6,1.9,1.1,2.6c0.4,0.8,1.1,1.6,2,2.4c0.9,0.8,2.1,1.8,3.7,2.9
		c1.8,1.3,3.3,2.5,4.5,3.4c1.2,0.9,2.2,1.9,3.1,2.7c0.8,0.9,1.6,1.8,2.2,2.7c0.6,1,1.2,2.1,1.8,3.3c1,2.1,1.7,4.3,2.3,6.5
		c0.5,2.2,0.8,4.6,0.8,7.2c0,3.4-0.4,6.6-1.2,9.4c-0.8,2.8-2,5.2-3.4,7.3c-1.5,2-3.2,3.6-5.3,4.7c-2,1.1-4.3,1.7-6.9,1.7
		c-1,0-1.8-0.1-2.6-0.2c-0.7-0.1-1.7-0.4-2.8-0.8c-0.8-0.3-1.4-0.4-1.8-0.4c-0.5,0-1,0.2-1.5,0.5c-0.8,0.3-1.4,0.5-2,0.5
		c-0.8,0-1.4-0.2-1.7-0.6c-0.4-0.4-0.7-1.2-0.9-2.3l-2-10.7c-0.3-1.5-0.5-2.8-0.6-3.9c-0.1-1.1-0.2-1.9-0.2-2.6
		c0-2.4,0.8-3.6,2.4-3.6c0.7,0,1.3,0.3,1.8,0.8c0.5,0.6,1,1.5,1.6,2.9c0.4,1.3,0.8,2.3,1.1,3c0.3,0.7,0.5,1.4,0.7,1.9
		c0.2,0.5,0.4,1,0.6,1.4c0.2,0.4,0.4,0.9,0.6,1.4c1.5,3.2,3.4,4.7,5.6,4.7c1.9,0,3.4-1,4.4-3.1c1-2.1,1.5-5,1.5-8.8
		c0-1.1-0.1-2.1-0.2-3.1c-0.1-1-0.3-2-0.5-3c-0.6-2.1-1.4-4-2.4-5.6c-1.1-1.6-2.7-3.3-5-5.2c-1.5-1.3-2.7-2.4-3.8-3.3
		c-1.1-0.9-1.9-1.8-2.4-2.5c-1.4-1.5-2.5-3.5-3.3-5.8c-0.8-2.4-1.2-4.8-1.2-7.4c0-2.4,0.3-4.6,1-6.6c0.7-2,1.6-3.8,2.8-5.4
		c1.2-1.5,2.6-2.8,4.2-3.6c1.6-0.9,3.3-1.3,5.2-1.3c1.3,0,2.7,0.2,4.1,0.7c0.6,0.3,1,0.4,1.3,0.4c0.3,0,0.9-0.2,1.8-0.5
		c0.5-0.2,0.9-0.3,1.4-0.3c1.4,0,2.3,1.4,2.7,4.1l1.4,7.9C-104.1,240.5-104,241.2-104,241.9"/>
	<path class="st2" d="M-79.9,260.9c0.1-1.3,0.2-2.1,0.3-2.5c0-0.4,0.1-0.6,0.1-0.8c0-0.4-0.1-0.7-0.2-0.9c-0.1-0.2-0.4-0.4-0.8-0.8
		c-0.7-0.6-1.1-1.2-1.1-1.7c0-1.1,0.8-1.7,2.4-1.7h5.1c2.2,0,3.3,0.6,3.3,1.7c0,0.6-0.2,1-0.5,1.2l-1,0.6c-0.5,0.3-0.8,1.2-1.1,2.6
		l-0.5,3.3l-4.2,31.2c-0.1,0.4-0.2,0.8-0.2,1.2c0,0.4,0,0.7-0.1,0.9c-0.2,1.6-0.5,2.6-0.9,3.1c-0.4,0.4-1.2,0.6-2.4,0.6h-1.8
		c-0.8,0-1.5,0-2-0.1c-0.5,0-0.9-0.1-1.2-0.3c-0.3-0.2-0.5-0.4-0.7-0.8c-0.1-0.4-0.3-0.8-0.4-1.4l-0.4-1.9l-0.3-1.8l-6.6-30.5
		l-0.5-2.2c-0.1-0.4-0.2-0.8-0.3-1.1c-0.1-0.3-0.1-0.6-0.2-0.8c-0.1-0.5-0.3-0.9-0.5-1.1c-0.2-0.2-0.5-0.6-1-1
		c-0.6-0.5-0.8-1-0.8-1.6c0-1.2,1.1-1.8,3.2-1.8h7.9c1.6,0,2.4,0.5,2.4,1.6c0,0.6-0.3,1.2-1,1.6c-0.5,0.4-0.8,0.6-0.9,0.8
		c-0.1,0.2-0.2,0.5-0.2,0.9c0,0.1,0,0.3,0.1,0.5c0,0.2,0.1,0.5,0.2,0.8l0.3,2l4,20.5L-79.9,260.9z M-79.9,260.9"/>
	<path class="st2" d="M-61,273.9c2.1-1.1,3.5-2.2,4.1-3.2c0.6-1,0.9-2.4,0.9-4.3c0-2.9-0.4-5.3-1.1-7.2c-0.7-1.8-1.6-2.7-2.6-2.7
		c-2.4,0-3.6,3.9-3.6,11.6c0,1,0,1.9,0.1,2.8c0,0.9,0.1,2.2,0.3,4L-61,273.9z M-61.3,282.8c0.2,0.7,0.4,1.4,0.8,2.3
		c1.3,3.1,2.9,4.6,4.9,4.6c0.8,0,1.5-0.2,2-0.6c0.5-0.4,0.9-1.2,1.3-2.2l0.3-1.2c0.5-1.1,1.1-1.6,1.9-1.6c1.5,0,2.2,1.2,2.2,3.6
		c0,3.6-1,6.5-2.8,8.7c-1.9,2.2-4.4,3.4-7.5,3.4c-3.9,0-6.9-1.8-9.1-5.3c-2.2-3.5-3.3-8.4-3.3-14.6c0-4,0.4-7.7,1.1-11.2
		c0.7-3.4,1.7-6.4,2.9-9c1.2-2.6,2.7-4.6,4.3-6c1.7-1.4,3.5-2.2,5.4-2.2c1.4,0,2.7,0.5,3.9,1.4c1.2,0.9,2.3,2.2,3.3,3.7
		c0.9,1.6,1.7,3.4,2.2,5.6c0.5,2.1,0.8,4.4,0.8,6.8c0,1.5-0.1,2.5-0.3,3.1c-0.2,0.6-0.6,0.9-1.3,1.2l-2.1,0.6
		c-0.4,0.1-1.1,0.4-2.1,0.8c-0.8,0.3-1.5,0.6-2.1,0.9c-0.6,0.2-1,0.4-1.3,0.6l-6.3,3.2C-61.8,281-61.5,282.2-61.3,282.8L-61.3,282.8
		z M-61.3,282.8"/>
	<path class="st2" d="M-29.9,253.1c0.8-1,1.8-1.5,3.2-1.5c0.9,0,1.8,0.3,2.7,1c0.9,0.7,1.7,1.5,2.4,2.6c2,3.2,3.4,8.1,4.3,14.7
		c0.2,1.3,0.4,2.8,0.6,4.4c0.2,1.6,0.3,3.2,0.5,4.8c0.1,1.6,0.3,3.1,0.4,4.6c0.1,1.4,0.2,2.7,0.3,3.7c0.1,2.3,0.3,4,0.6,5.2
		c0.2,1.1,0.6,1.9,1,2.4l0.6,0.7c0.4,0.5,0.5,0.9,0.5,1.4c0,0.6-0.2,1-0.5,1.3c-0.4,0.3-1,0.5-2,0.5h-7.8c-1.5,0-2.4-0.1-2.8-0.3
		c-0.4-0.2-0.6-0.6-0.6-1.3c0-0.6,0.1-1,0.4-1.2c0.1-0.1,0.4-0.3,1-0.6c0.3-0.3,0.6-0.5,0.7-0.7c0.1-0.2,0.2-0.6,0.2-1.2v-0.5
		c-0.1-0.1-0.1-0.4-0.1-0.7c0-0.4,0-1-0.1-1.7c-0.2-2.5-0.4-5.1-0.7-7.8c-0.2-2.7-0.5-5.2-0.8-7.6c-0.3-2.4-0.6-4.6-1-6.5
		c-0.3-2-0.6-3.5-0.9-4.7c-0.6-2.5-1.3-3.7-2.2-3.7c-0.8,0-1.3,0.4-1.6,1.2c-0.3,0.8-0.4,2.3-0.4,4.4v27c0,1.3,0.3,2.2,0.9,2.5
		l0.5,0.3c0.6,0.4,0.8,0.8,0.8,1.4c0,0.8-0.2,1.3-0.6,1.5c-0.4,0.2-1.4,0.3-2.9,0.3h-7.3c-1.5,0-2.5-0.1-2.9-0.3
		c-0.4-0.2-0.6-0.7-0.6-1.5c0-0.6,0.3-1,0.8-1.4l0.5-0.3c0.6-0.3,1-1.2,1-2.5v-26.7l-0.1-2.3c-0.1-1.8-0.4-3-0.8-3.5l-1.2-1.3
		c-0.1-0.1-0.2-0.3-0.2-0.8c0-0.4,0.2-0.8,0.5-1.1c0.3-0.3,0.9-0.7,1.6-1c0.8-0.4,1.9-0.9,3-1.5c1.2-0.7,2.4-1.5,3.8-2.4
		c0.4-0.4,1-0.6,1.7-0.7h0.1c0.6,0,0.9,0.4,1.1,1.1c0.1,0.4,0.1,1.6,0.1,3.7v2.2C-31.4,255.9-30.7,254.2-29.9,253.1"/>
	<path class="st2" d="M10.4,262.9c0,1.5-0.6,2.2-1.8,2.2c-0.6,0-1.1-0.2-1.5-0.6c-0.4-0.4-0.9-1.1-1.5-2.1c-1.2-2-2.2-3.3-3.1-4.2
		c-0.8-0.8-1.8-1.2-2.7-1.2c-0.9,0-1.7,0.4-2.3,1.1c-0.6,0.7-0.9,1.6-0.9,2.6c0,1.4,0.3,2.6,0.9,3.5c0.6,0.9,1.7,1.9,3.2,2.8
		c1.8,1.2,3.1,2.1,4,2.6c0.9,0.6,1.4,0.9,1.6,1.1c1.3,1,2.5,2.3,3.8,3.8c1.2,1.6,2.1,3.2,2.6,4.8c0.5,1.6,0.8,3.4,0.8,5.5
		c0,2.2-0.3,4.2-0.9,6c-0.6,1.8-1.4,3.4-2.5,4.7c-1.1,1.3-2.3,2.4-3.8,3.1c-1.5,0.7-3.1,1.1-4.9,1.1c-0.6,0-1.3-0.1-2.1-0.2
		c-0.7-0.1-1.4-0.3-1.8-0.4c-0.8-0.4-1.4-0.5-1.8-0.5c-0.3,0-0.6,0.1-1.1,0.3c-0.6,0.3-1,0.5-1.2,0.6c-0.2,0-0.5,0.1-0.7,0.1
		c-0.7,0-1.2-0.2-1.5-0.6c-0.3-0.4-0.6-1.3-0.8-2.6l-1.3-6.5c-0.1-0.4-0.2-0.8-0.2-1.3v-1.3c0-1.8,0.6-2.6,1.7-2.6
		c0.9,0,1.8,1,2.6,2.9c2,4.4,4.1,6.6,6.5,6.6c1.2,0,2.2-0.6,3-1.9c0.8-1.3,1.2-2.8,1.2-4.5c0-1.1-0.2-2.2-0.6-3.5
		c-0.6-1.5-1.3-2.8-2.1-3.8c-0.8-1-2.2-2.2-4.1-3.6c-1-0.8-1.8-1.5-2.6-2.1c-0.7-0.6-1.4-1.2-2-1.7c-1.3-1.2-2.4-2.7-3.1-4.5
		c-0.7-1.8-1.1-3.6-1.1-5.4c0-3.4,1-6.1,3-8.3c2-2.2,4.5-3.3,7.6-3.3c0.4,0,0.7,0,1.1,0.1c0.4,0,0.7,0.1,1.1,0.2
		c0.8,0.2,1.4,0.4,1.7,0.4c0.4,0.1,0.7,0.1,0.8,0.1c0.3,0,0.7-0.1,1.1-0.2c0.4-0.1,0.6-0.2,0.8-0.3c0.2-0.1,0.4-0.1,0.5-0.1
		c1,0,1.7,0.7,2,2.2l2.1,8.3C10.4,262.4,10.4,262.6,10.4,262.9"/>
	<path class="st2" d="M43.3,290.3l0.3,1.6c0.1,0.4,0.2,0.6,0.3,0.9c0,0.2,0.1,0.5,0.3,0.7c0.1,0.5,0.3,0.8,0.4,1.1
		c0.1,0.2,0.5,0.5,1.1,0.8c0.7,0.6,1.1,1.2,1.1,1.8c0,0.3-0.1,0.7-0.2,0.9c-0.3,0.5-0.7,0.7-1.4,0.7h-5.8c-1.3,0-2.1,0-2.4-0.1
		c-0.4,0-0.7-0.2-0.9-0.5c-0.2-0.1-0.4-0.5-0.5-0.9c-0.1-0.5-0.4-1.4-0.7-2.8L30.8,277l-3,4v11.9c0,1.3,0.3,2.2,0.9,2.5l0.5,0.3
		c0.6,0.4,0.8,0.9,0.8,1.4c0,0.8-0.2,1.3-0.6,1.5c-0.4,0.2-1.4,0.3-2.8,0.3h-7.3c-1.5,0-2.5-0.1-3-0.3c-0.4-0.2-0.6-0.7-0.6-1.5
		c0-0.5,0.3-1,0.9-1.4l0.4-0.3c0.4-0.3,0.7-0.7,0.8-0.9c0.1-0.3,0.2-0.8,0.2-1.6v-1.4l0.1-2.4v-47.7c0-1.7-0.1-2.8-0.2-3.4
		c-0.1-0.6-0.4-1-0.8-1.3l-0.9-0.7c-0.4-0.4-0.5-0.7-0.5-1.2c0-0.7,0.6-1.4,1.8-2.1c1.3-0.7,2.1-1.2,2.3-1.4
		c0.8-0.4,1.5-0.8,2.1-1.4l2-1.4c0.4-0.3,0.7-0.5,1.2-0.7c0.4-0.2,0.8-0.3,1.1-0.3c1.1,0,1.7,1.1,1.7,3.4v40.3l5.1-9.1
		c0.8-1.5,1.4-2.6,1.7-3.2c0.3-0.6,0.4-1,0.4-1.4c0-0.4-0.2-0.8-0.6-1.4c-0.6-0.5-0.9-0.8-0.9-1.1c-0.1-0.1-0.2-0.4-0.2-0.7
		c0-0.6,0.2-1,0.6-1.4c0.3-0.3,0.7-0.4,1.4-0.4l1.8-0.1h4.5c1.1,0,1.7,0,2.1,0.1c0.3,0,0.6,0.1,0.8,0.1c0.9,0.2,1.4,0.8,1.4,1.7
		c0,0.8-0.5,1.4-1.4,1.8c-0.6,0.3-1,0.6-1.2,0.8c-0.2,0.2-0.5,0.6-1,1.2l-0.7,1.2l-0.6,1.2l-3.5,5.9L43.3,290.3z M43.3,290.3"/>
	<path class="st2" d="M80,270c0-0.8-0.1-1.4-0.2-1.8c-0.1-0.3-0.5-0.7-1-1.2l-0.9-0.8c-0.5-0.5-0.7-1-0.7-1.6c0-0.8,0.4-1.3,1.1-1.6
		c0.7-0.3,2.3-0.4,4.6-0.4h4.4c2.3,0,3.9,0.1,4.6,0.4c0.8,0.3,1.2,0.9,1.2,1.8c0,0.4-0.1,0.8-0.2,1c-0.1,0.2-0.5,0.6-1.1,1.1
		c-0.7,0.5-1.1,1-1.2,1.5c-0.1,0.5-0.2,1.6-0.3,3.2l-0.1,3.3v12.2c0,1.4,0,2.4,0.1,2.9c0,0.6,0.1,1.2,0.2,1.9
		c0.1,0.6,0.2,1.1,0.3,1.3c0.1,0.2,0.4,0.5,0.8,0.9c0.6,0.4,0.9,0.8,1.1,1c0.2,0.2,0.3,0.6,0.3,1c0,1-0.4,1.7-1.3,2.1
		c-0.6,0.3-1.3,0.5-2.2,0.7c-0.9,0.2-1.9,0.4-3,0.6c-1.1,0.2-2.2,0.3-3.5,0.4c-1.2,0.1-2.4,0.2-3.5,0.2c-2.9,0-5.7-0.3-8.3-0.9
		c-2.6-0.6-4.7-1.5-6.4-2.7c-3.2-2.2-5.6-5.6-7.2-10.1c-1.6-4.5-2.4-10-2.4-16.6c0-6.2,0.5-11.9,1.5-17.1c1-5.2,2.4-9.7,4.3-13.4
		c1.8-3.7,4-6.6,6.5-8.7c2.5-2.1,5.3-3.2,8.4-3.2c1.1,0,2.1,0.1,2.8,0.4c1.5,0.6,2.5,0.8,2.8,0.8c0.2,0,0.8-0.2,1.8-0.7
		c0.8-0.4,1.4-0.5,1.8-0.5c0.8,0,1.4,0.4,1.8,1.1c0.5,0.7,0.9,2,1.2,3.8l1.6,8.2c0.4,2,0.6,3.5,0.7,4.5c0.1,0.9,0.2,1.6,0.2,2.1
		c0,2.5-0.8,3.7-2.5,3.7c-1.4,0-2.7-1.2-3.8-3.7l-2.6-5.7c-2.2-4.7-4.3-7.1-6.2-7.1c-1.1,0-2.1,0.7-3,2.2c-0.9,1.4-1.6,3.5-2.2,6.2
		c-0.6,2.7-1.1,5.9-1.4,9.7c-0.3,3.8-0.5,8.1-0.5,12.9v4.2c0,1.4,0,2.9,0.1,4.5c0.1,3.3,0.3,5.9,0.6,7.8c0.2,1.9,0.6,3.6,1,5
		c0.5,1.6,1.3,2.9,2.3,3.8c1.1,1,2.2,1.4,3.6,1.4c1.5,0,2.6-0.6,3.2-1.8c0.6-1.2,0.8-3.6,0.8-7.1V270z M80,270"/>
	<path class="st2" d="M108.7,289.1v3.8c0,0.8,0.1,1.3,0.2,1.6c0.1,0.3,0.4,0.6,0.7,0.9l0.4,0.3c0.6,0.4,1,0.9,1,1.4
		c0,0.8-0.2,1.3-0.6,1.5c-0.4,0.2-1.4,0.3-2.8,0.3h-7.4c-1.5,0-2.4-0.1-2.8-0.3c-0.4-0.2-0.6-0.7-0.6-1.5c0-0.5,0.3-1,0.9-1.4
		l0.4-0.3c0.4-0.3,0.7-0.7,0.8-0.9c0.1-0.3,0.2-0.8,0.2-1.6v-54.5c0-0.8-0.1-1.3-0.2-1.6c-0.1-0.3-0.5-0.6-0.9-0.9
		c-0.6-0.4-0.9-0.6-1.1-0.8c-0.1-0.2-0.2-0.5-0.2-0.8c0-0.5,0.1-0.9,0.4-1.2c0.2-0.3,0.8-0.6,1.5-1l1.9-0.9l2.4-1.3
		c0.4-0.2,0.8-0.4,1.2-0.7c0.4-0.2,0.7-0.4,1.1-0.6c0.8-0.5,1.4-0.7,1.8-0.7c0.7,0,1.2,0.3,1.5,0.8c0.3,0.5,0.4,1.5,0.4,2.9V289.1z
		 M108.7,289.1"/>
	<path class="st2" d="M127.3,273.1c-0.4,0.4-0.9,0.9-1.4,1.5c-1.1,1.2-1.8,2.5-2.2,4.1c-0.4,1.5-0.6,3.4-0.6,5.7
		c0,5.4,1.2,8.1,3.7,8.1c1.2,0,2.1-0.5,2.6-1.6c0.5-1.1,0.8-2.9,0.8-5.3v-1.7l-0.1-2.1l-0.5-10.4
		C128.4,272.1,127.7,272.7,127.3,273.1 M142.8,291.7c0.1,0.6,0.1,1,0.2,1.2c0,0.2,0.1,0.5,0.1,0.8c0,1.9-0.4,3.4-1.3,4.5
		c-0.8,1.1-2,1.6-3.5,1.6c-1.6,0-3.1-0.6-4.4-1.7c-1.3-1.2-2.2-2.7-2.8-4.6c-0.8,2.3-1.7,3.9-2.8,4.8c-1.1,1-2.6,1.5-4.5,1.5
		c-1.3,0-2.6-0.3-3.8-1c-1.2-0.7-2.2-1.6-3.1-2.7c-0.9-1.1-1.6-2.5-2.1-4c-0.5-1.5-0.7-3.2-0.7-5c0-2,0.3-4,0.9-5.9
		c0.6-1.9,1.5-3.6,2.7-5.2c0.6-0.8,1.2-1.5,1.8-2.2c0.7-0.7,1.5-1.3,2.4-1.9c0.9-0.6,1.9-1.3,3.1-1.9c1.1-0.7,2.5-1.4,4-2.2
		c-0.1-4-0.6-6.8-1.3-8.5c-0.7-1.7-2-2.5-3.6-2.5c-1.4,0-2.5,0.4-3.2,1.3c1,0.4,1.8,0.9,2.3,1.7c0.6,0.8,0.8,1.7,0.8,2.7
		c0,1.3-0.4,2.3-1.2,3.2c-0.8,0.9-1.9,1.3-3.1,1.3c-1.5,0-2.8-0.6-3.7-1.7c-0.9-1.2-1.4-2.7-1.4-4.6c0-2.6,1-4.8,3.1-6.5
		c2.1-1.8,4.7-2.6,7.9-2.6c2.9,0,5.5,0.9,7.9,2.7c1.5,1.2,2.5,2.4,3.1,3.7c0.6,1.3,1,3.1,1.1,5.5l0.3,5.2l1.2,15.7l0.2,2.2l0.3,2.7
		c0.1,1.1,0.4,1.9,0.6,2.3c0.3,0.4,0.7,0.6,1.3,0.6c0.2,0,0.4-0.1,0.5-0.2C142.3,292.1,142.5,291.9,142.8,291.7"/>
	<path class="st2" d="M165.3,262.9c0,1.5-0.6,2.2-1.8,2.2c-0.6,0-1.1-0.2-1.5-0.6c-0.4-0.4-0.9-1.1-1.5-2.1c-1.2-2-2.2-3.3-3.1-4.2
		c-0.8-0.8-1.8-1.2-2.7-1.2c-0.9,0-1.7,0.4-2.3,1.1c-0.6,0.7-0.9,1.6-0.9,2.6c0,1.4,0.3,2.6,0.9,3.5c0.6,0.9,1.7,1.9,3.2,2.8
		c1.8,1.2,3.1,2.1,4,2.6c0.9,0.6,1.4,0.9,1.6,1.1c1.3,1,2.5,2.3,3.8,3.8c1.2,1.6,2.1,3.2,2.6,4.8c0.5,1.6,0.8,3.4,0.8,5.5
		c0,2.2-0.3,4.2-0.9,6c-0.6,1.8-1.4,3.4-2.5,4.7c-1.1,1.3-2.3,2.4-3.8,3.1c-1.5,0.7-3.1,1.1-4.9,1.1c-0.6,0-1.3-0.1-2.1-0.2
		c-0.7-0.1-1.4-0.3-1.8-0.4c-0.8-0.4-1.4-0.5-1.8-0.5c-0.3,0-0.6,0.1-1.1,0.3c-0.6,0.3-0.9,0.5-1.2,0.6c-0.2,0-0.5,0.1-0.7,0.1
		c-0.7,0-1.2-0.2-1.5-0.6c-0.3-0.4-0.6-1.3-0.8-2.6l-1.3-6.5c-0.1-0.4-0.2-0.8-0.2-1.3v-1.3c0-1.8,0.6-2.6,1.7-2.6
		c0.9,0,1.8,1,2.6,2.9c2,4.4,4.1,6.6,6.5,6.6c1.2,0,2.2-0.6,3-1.9c0.8-1.3,1.2-2.8,1.2-4.5c0-1.1-0.2-2.2-0.6-3.5
		c-0.6-1.5-1.3-2.8-2.1-3.8c-0.8-1-2.2-2.2-4.1-3.6c-1-0.8-1.8-1.5-2.6-2.1c-0.7-0.6-1.4-1.2-2-1.7c-1.3-1.2-2.4-2.7-3.1-4.5
		c-0.7-1.8-1.1-3.6-1.1-5.4c0-3.4,1-6.1,3-8.3c2-2.2,4.6-3.3,7.6-3.3c0.4,0,0.7,0,1.1,0.1c0.4,0,0.7,0.1,1.1,0.2
		c0.8,0.2,1.4,0.4,1.7,0.4c0.4,0.1,0.6,0.1,0.8,0.1c0.4,0,0.7-0.1,1.1-0.2c0.4-0.1,0.6-0.2,0.8-0.3c0.2-0.1,0.4-0.1,0.5-0.1
		c1,0,1.7,0.7,2,2.2l2.1,8.3C165.3,262.4,165.3,262.6,165.3,262.9"/>
	<path class="st2" d="M190.4,221.1c0-1.9-0.4-3.8-1.1-5.8c-0.9-2.6-1.8-3.9-2.5-3.9c-0.6,0-0.9,0.6-0.9,1.8c0,0.8,0.1,1.6,0.2,2.6
		c0.1,0.9,0.3,1.8,0.5,2.6c0.9,3,1.9,4.5,2.8,4.5C190.1,222.9,190.4,222.3,190.4,221.1L190.4,221.1z M182.6,273.6
		c-0.1,0.8-0.2,1.5-0.3,2.3c-0.1,0.7-0.1,1.2-0.1,1.4c0,1.5,1.3,2.2,4,2.2c1.4,0,2.4-0.1,2.9-0.4c0.5-0.2,0.8-0.7,0.8-1.4
		c0-0.1,0-0.3-0.1-0.5c0-0.2-0.1-0.4-0.1-0.6c-0.1-0.2-0.1-0.4-0.1-0.6c0-0.3,0-0.5-0.1-0.7c-0.1-0.5-0.1-0.9-0.2-1.3
		c0-0.4-0.1-0.6-0.1-0.7l-3.6-20.9L182.6,273.6z M194.6,215.8c0,1.3-0.2,2.6-0.7,3.9c-0.5,1.3-1.1,2.4-1.8,3.4
		c-0.8,1-1.6,1.8-2.6,2.4c-0.9,0.6-1.9,0.9-3,0.9c-1.5,0-2.8-0.7-3.8-2.1c-1-1.4-1.5-3.1-1.5-5.1c0-1.4,0.2-2.7,0.7-4
		c0.5-1.3,1.1-2.4,1.8-3.4c0.7-1,1.6-1.8,2.6-2.4c1-0.6,2-0.9,3.1-0.9c1.4,0,2.7,0.7,3.7,2.2C194.1,212.2,194.6,213.9,194.6,215.8
		L194.6,215.8z M202.7,283.9l0.5,2.9l0.9,4.5c0.1,0.6,0.3,1.2,0.5,1.7c0.2,0.5,0.4,0.8,0.6,1.1l1.4,1.4c0.3,0.2,0.4,0.6,0.4,1.2
		c0,0.8-0.3,1.4-0.8,1.8c-0.3,0.1-0.8,0.2-1.4,0.3c-0.6,0.1-1.6,0.1-3.1,0.1h-7.2c-1.6,0-2.6-0.1-3.3-0.4c-0.6-0.3-1-0.8-1-1.6
		c0-0.4,0.1-0.8,0.3-1c0.2-0.2,0.5-0.6,1.1-1.1c0.6-0.4,1-1.1,1-2.1c0-0.1,0-0.3,0-0.5c0-0.2-0.1-0.4-0.1-0.6
		c-0.1-1-0.3-1.8-0.4-2.5c-0.1-0.7-0.3-1.3-0.5-1.8c-0.2-0.6-0.6-0.9-1.1-1.1c-0.5-0.2-1.4-0.3-2.7-0.3h-3.5c-0.8,0-1.5,0.1-1.8,0.2
		c-0.4,0.1-0.7,0.4-1,0.7c-0.3,0.4-0.4,0.8-0.4,1.3c-0.4,1.8-0.5,3.2-0.5,4.3v0.6c0.1,0.6,0.4,1.1,0.6,1.4l1.2,0.8
		c0.6,0.4,0.8,0.9,0.8,1.6c0,1.3-0.8,2-2.4,2h-8.4c-1.4,0-2.4-0.1-3-0.4c-0.6-0.3-0.8-0.8-0.8-1.6c0-0.7,0.5-1.3,1.5-1.9
		c0.6-0.4,1.1-0.7,1.3-1.1c0.2-0.3,0.4-1,0.6-2l0.5-2.9l0.3-1.8l8.4-50.6l0.6-3.6c0.2-1.1,0.4-2,0.5-2.6c0.1-0.6,0.3-1.1,0.6-1.4
		c0.3-0.3,0.7-0.6,1.2-0.7c0.5-0.1,1.4-0.2,2.8-0.2c1.2,0,2,0,2.5,0.1c0.5,0,0.9,0.1,1.3,0.3c0.4,0.2,0.8,0.7,1.1,1.4
		c0.3,0.7,0.6,1.8,0.9,3.4l0.6,3.4L202.7,283.9z M202.7,283.9"/>
	<path class="st2" d="M218.8,282.1v3.8c0,2.5,0.2,4.3,0.7,5.4c0.5,1.1,1.3,1.6,2.5,1.6c0.4,0,0.8-0.1,1.1-0.2c0.3-0.1,0.8-0.5,1.3-1
		c0.5-0.4,0.9-0.5,1.2-0.5c0.3,0,0.6,0.2,0.8,0.5c0.2,0.3,0.3,0.8,0.3,1.4c0,1.9-0.8,3.5-2.5,4.8c-1.7,1.3-3.8,1.9-6.3,1.9
		c-3.1,0-5.4-0.9-7.1-2.7c-0.7-0.8-1.2-1.8-1.4-3.1c-0.2-1.3-0.4-3.1-0.4-5.4v-2.3c0-0.9,0.1-2.5,0.2-4.8c0.1-1.5,0.2-2.8,0.2-4.1
		v-19h-1.1c-1.3,0-2.1-0.1-2.4-0.4c-0.4-0.3-0.5-0.9-0.5-1.8c0-0.7,0.3-1.3,0.8-1.8l1.4-1.2c0.5-0.4,1-0.9,1.4-1.5
		c0.5-0.7,1-1.4,1.5-2.3c0.7-1.2,1.3-2.3,1.7-3.4c0.5-1.1,1-2.5,1.5-4.3c0.6-1.8,1-3,1.3-3.5c0.3-0.5,0.9-0.7,1.6-0.7
		c0.8,0,1.4,0.3,1.6,0.9c0.2,0.6,0.4,2,0.4,4.1v11h5.5c1.2,0,1.8,0.7,1.8,2.1c0,1.2-0.3,1.9-0.8,2.3c-0.6,0.3-1.9,0.5-3.9,0.5h-2.5
		V282.1z M218.8,282.1"/>
	<path class="st2" d="M237.1,273.9c2.1-1.1,3.5-2.2,4.1-3.2c0.6-1,1-2.4,1-4.3c0-2.9-0.4-5.3-1.1-7.2c-0.7-1.8-1.6-2.7-2.6-2.7
		c-2.4,0-3.6,3.9-3.6,11.6c0,1,0,1.9,0,2.8c0,0.9,0.1,2.2,0.3,4L237.1,273.9z M236.9,282.8c0.2,0.7,0.4,1.4,0.8,2.3
		c1.3,3.1,2.9,4.6,4.9,4.6c0.8,0,1.5-0.2,2-0.6c0.5-0.4,0.9-1.2,1.3-2.2l0.3-1.2c0.5-1.1,1.1-1.6,1.9-1.6c1.5,0,2.2,1.2,2.2,3.6
		c0,3.6-0.9,6.5-2.8,8.7c-1.9,2.2-4.4,3.4-7.5,3.4c-3.9,0-6.9-1.8-9.1-5.3c-2.2-3.5-3.3-8.4-3.3-14.6c0-4,0.4-7.7,1.1-11.2
		c0.7-3.4,1.7-6.4,2.9-9c1.2-2.6,2.7-4.6,4.3-6c1.7-1.4,3.5-2.2,5.4-2.2c1.4,0,2.7,0.5,4,1.4c1.2,0.9,2.3,2.2,3.3,3.7
		c1,1.6,1.7,3.4,2.2,5.6c0.5,2.1,0.8,4.4,0.8,6.8c0,1.5-0.1,2.5-0.3,3.1c-0.2,0.6-0.6,0.9-1.3,1.2l-2.1,0.6
		c-0.4,0.1-1.1,0.4-2.1,0.8c-0.8,0.3-1.5,0.6-2.1,0.9c-0.6,0.2-1,0.4-1.3,0.6l-6.3,3.2C236.3,281,236.7,282.2,236.9,282.8
		L236.9,282.8z M236.9,282.8"/>
	<path class="st2" d="M269.4,254.1c1.5-1.7,3.3-2.5,5.3-2.5c2.3,0,3.4,1.2,3.4,3.5v1.8c0,0.6,0,1.3-0.1,2l-0.3,4.3
		c-0.2,2.2-1,3.4-2.2,3.4c-0.6,0-1-0.2-1.3-0.5c-0.3-0.3-0.5-1-0.7-1.9c-0.4-1.5-1-2.2-1.9-2.2c-0.9,0-1.7,0.5-2.5,1.5
		c-0.8,1-1.5,2.3-2.1,4c-0.6,1.7-1.1,3.6-1.4,5.8c-0.4,2.2-0.5,4.5-0.5,7v12.6c0,0.2,0,0.4,0.1,0.6c0,0.2,0.1,0.4,0.1,0.5
		c0.1,0.6,0.3,1.1,0.8,1.4l0.5,0.3c0.6,0.4,0.8,0.8,0.8,1.5c0,0.8-0.2,1.2-0.6,1.4c-0.4,0.2-1.4,0.3-2.9,0.3h-7.1
		c-1.6,0-2.5-0.1-3-0.3c-0.4-0.2-0.6-0.7-0.6-1.5c0-0.5,0.3-1,0.9-1.4l0.4-0.3c0.4-0.4,0.7-0.7,0.8-1c0.1-0.3,0.2-0.8,0.2-1.6v-29.1
		c0-1.2-0.1-2.1-0.3-2.6c-0.2-0.5-0.4-0.9-0.8-1.1l-1.1-0.7c-0.4-0.2-0.5-0.6-0.5-1.1c0-0.5,0.2-0.9,0.7-1.4
		c0.2-0.1,0.4-0.3,0.5-0.4c0.1-0.1,0.3-0.2,0.5-0.4c0.2-0.1,0.5-0.3,0.9-0.5c0.4-0.2,0.9-0.5,1.6-0.8c0.3-0.2,0.8-0.5,1.3-0.8
		c0.5-0.3,1.1-0.6,1.8-1c1-0.6,1.7-1,2.2-1.2c0.5-0.2,0.9-0.4,1.3-0.4c0.5,0,0.8,0.2,0.9,0.7c0.1,0.5,0.2,1.5,0.2,3.2v6.6
		C266.4,258.4,267.9,255.7,269.4,254.1"/>
	<path class="st2" d="M296.3,260.9c0.1-1.3,0.2-2.1,0.3-2.5c0-0.4,0-0.6,0-0.8c0-0.4,0-0.7-0.2-0.9c-0.1-0.2-0.4-0.4-0.8-0.8
		c-0.7-0.6-1.1-1.2-1.1-1.7c0-1.1,0.8-1.7,2.4-1.7h5.1c2.2,0,3.3,0.6,3.3,1.7c0,0.6-0.2,1-0.5,1.2l-0.9,0.6
		c-0.5,0.3-0.8,1.2-1.1,2.6l-0.5,3.3l-4.2,31.2c-0.1,0.4-0.2,0.8-0.2,1.2c0,0.4,0,0.7-0.1,0.9c-0.2,1.6-0.5,2.6-0.9,3.1
		c-0.4,0.4-1.2,0.6-2.4,0.6h-1.8c-0.8,0-1.5,0-2-0.1c-0.5,0-0.9-0.1-1.2-0.3c-0.3-0.2-0.5-0.4-0.7-0.8c-0.1-0.4-0.3-0.8-0.4-1.4
		l-0.4-1.9l-0.3-1.8l-6.6-30.5l-0.5-2.2c-0.1-0.4-0.2-0.8-0.3-1.1c-0.1-0.3-0.1-0.6-0.2-0.8c-0.1-0.5-0.3-0.9-0.5-1.1
		c-0.2-0.2-0.5-0.6-1-1c-0.6-0.5-0.8-1-0.8-1.6c0-1.2,1.1-1.8,3.2-1.8h7.9c1.6,0,2.4,0.5,2.4,1.6c0,0.6-0.3,1.2-0.9,1.6
		c-0.5,0.4-0.8,0.6-1,0.8c-0.1,0.2-0.2,0.5-0.2,0.9c0,0.1,0,0.3,0.1,0.5c0,0.2,0.1,0.5,0.2,0.8l0.3,2l4,20.5L296.3,260.9z
		 M296.3,260.9"/>
	<path class="st2" d="M318.3,239.9c0,1.8-0.7,3.6-2.2,5.3c-0.8,1-1.8,1.8-2.7,2.4c-1,0.6-1.9,0.9-2.8,0.9c-1.2,0-2.2-0.4-3.1-1.3
		c-0.8-0.8-1.3-1.9-1.3-3.1c0-1.6,0.7-3.3,2-4.9c1.7-2.3,3.7-3.5,6-3.5c1.2,0,2.2,0.4,3,1.2C317.9,237.6,318.3,238.7,318.3,239.9
		L318.3,239.9z M307.7,262.8c-0.1-0.8-0.2-1.4-0.3-1.6c-0.1-0.2-0.5-0.5-1.1-0.9c-0.5-0.3-0.8-0.6-1-0.9c-0.1-0.2-0.2-0.5-0.2-0.9
		c0-0.4,0.2-0.8,0.5-1.1c0.3-0.3,1-0.6,2-1c0.9-0.4,1.9-0.8,3-1.5c1.1-0.6,2.2-1.4,3.4-2.4c0.8-0.6,1.5-0.9,1.9-0.9
		c0.6,0,1,0.2,1.2,0.7c0.2,0.5,0.3,1.4,0.3,2.8v37.8c0,0.8,0.1,1.3,0.2,1.6c0.1,0.3,0.4,0.6,0.7,0.9l0.4,0.3c0.6,0.4,1,0.9,1,1.4
		c0,0.8-0.2,1.3-0.6,1.5c-0.4,0.2-1.4,0.3-2.8,0.3h-7.3c-1.5,0-2.5-0.1-2.9-0.3c-0.4-0.2-0.6-0.7-0.6-1.5c0-0.5,0.3-1,1-1.4l0.4-0.3
		c0.4-0.4,0.7-0.7,0.8-1c0.1-0.3,0.2-0.8,0.2-1.6v-1.4l0.1-2.4v-24.5L307.7,262.8z M307.7,262.8"/>
	<path class="st2" d="M336.9,253.1c0.8-1,1.8-1.5,3.2-1.5c0.9,0,1.8,0.3,2.7,1c0.9,0.7,1.7,1.5,2.4,2.6c2,3.2,3.4,8.1,4.3,14.7
		c0.2,1.3,0.4,2.8,0.6,4.4c0.2,1.6,0.3,3.2,0.5,4.8c0.1,1.6,0.3,3.1,0.4,4.6c0.1,1.4,0.2,2.7,0.3,3.7c0.1,2.3,0.3,4,0.6,5.2
		c0.2,1.1,0.6,1.9,1,2.4l0.6,0.7c0.3,0.5,0.5,0.9,0.5,1.4c0,0.6-0.2,1-0.5,1.3c-0.4,0.3-1,0.5-2,0.5h-7.8c-1.5,0-2.4-0.1-2.8-0.3
		c-0.4-0.2-0.6-0.6-0.6-1.3c0-0.6,0.1-1,0.4-1.2c0.1-0.1,0.4-0.3,0.9-0.6c0.3-0.3,0.6-0.5,0.7-0.7c0.1-0.2,0.2-0.6,0.2-1.2v-0.5
		c-0.1-0.1-0.1-0.4-0.1-0.7c0-0.4,0-1-0.1-1.7c-0.2-2.5-0.4-5.1-0.7-7.8c-0.2-2.7-0.5-5.2-0.8-7.6c-0.3-2.4-0.6-4.6-0.9-6.5
		c-0.3-2-0.6-3.5-0.9-4.7c-0.6-2.5-1.3-3.7-2.2-3.7c-0.8,0-1.3,0.4-1.6,1.2c-0.3,0.8-0.4,2.3-0.4,4.4v27c0,1.3,0.3,2.2,1,2.5
		l0.5,0.3c0.6,0.4,0.8,0.8,0.8,1.4c0,0.8-0.2,1.3-0.6,1.5c-0.4,0.2-1.3,0.3-2.9,0.3h-7.3c-1.5,0-2.5-0.1-2.9-0.3
		c-0.4-0.2-0.6-0.7-0.6-1.5c0-0.6,0.3-1,0.8-1.4l0.5-0.3c0.6-0.3,0.9-1.2,0.9-2.5v-26.7l-0.1-2.3c-0.1-1.8-0.4-3-0.8-3.5l-1.2-1.3
		c-0.1-0.1-0.2-0.3-0.2-0.8c0-0.4,0.2-0.8,0.5-1.1c0.3-0.3,0.9-0.7,1.6-1c0.9-0.4,1.9-0.9,3-1.5c1.2-0.7,2.4-1.5,3.8-2.4
		c0.4-0.4,1-0.6,1.7-0.7h0.1c0.6,0,0.9,0.4,1.1,1.1c0.1,0.4,0.1,1.6,0.1,3.7v2.2C335.3,255.9,336.1,254.2,336.9,253.1"/>
	<path class="st2" d="M369.9,253.1c0.8-1,1.8-1.5,3.2-1.5c0.9,0,1.8,0.3,2.7,1c0.9,0.7,1.7,1.5,2.4,2.6c2,3.2,3.4,8.1,4.3,14.7
		c0.2,1.3,0.4,2.8,0.6,4.4c0.2,1.6,0.3,3.2,0.5,4.8c0.1,1.6,0.3,3.1,0.4,4.6c0.1,1.4,0.2,2.7,0.3,3.7c0.1,2.3,0.3,4,0.6,5.2
		c0.2,1.1,0.6,1.9,1,2.4l0.6,0.7c0.4,0.5,0.5,0.9,0.5,1.4c0,0.6-0.2,1-0.5,1.3c-0.4,0.3-1,0.5-2,0.5h-7.8c-1.5,0-2.4-0.1-2.8-0.3
		c-0.4-0.2-0.6-0.6-0.6-1.3c0-0.6,0.1-1,0.4-1.2c0.1-0.1,0.4-0.3,0.9-0.6c0.3-0.3,0.6-0.5,0.7-0.7c0.1-0.2,0.2-0.6,0.2-1.2v-0.5
		c-0.1-0.1-0.1-0.4-0.1-0.7c0-0.4,0-1-0.1-1.7c-0.2-2.5-0.4-5.1-0.7-7.8c-0.2-2.7-0.5-5.2-0.8-7.6c-0.3-2.4-0.6-4.6-0.9-6.5
		c-0.3-2-0.6-3.5-0.9-4.7c-0.6-2.5-1.3-3.7-2.2-3.7c-0.8,0-1.3,0.4-1.6,1.2c-0.3,0.8-0.4,2.3-0.4,4.4v27c0,1.3,0.3,2.2,1,2.5
		l0.5,0.3c0.6,0.4,0.8,0.8,0.8,1.4c0,0.8-0.2,1.3-0.6,1.5c-0.4,0.2-1.4,0.3-2.9,0.3h-7.3c-1.5,0-2.5-0.1-2.9-0.3
		c-0.4-0.2-0.6-0.7-0.6-1.5c0-0.6,0.3-1,0.8-1.4l0.5-0.3c0.6-0.3,0.9-1.2,0.9-2.5v-26.7l-0.1-2.3c-0.1-1.8-0.4-3-0.8-3.5l-1.2-1.3
		c-0.1-0.1-0.2-0.3-0.2-0.8c0-0.4,0.2-0.8,0.5-1.1c0.3-0.3,0.9-0.7,1.6-1c0.8-0.4,1.8-0.9,3-1.5c1.2-0.7,2.4-1.5,3.8-2.4
		c0.4-0.4,1-0.6,1.7-0.7h0.1c0.6,0,0.9,0.4,1.1,1.1c0.1,0.4,0.1,1.6,0.1,3.7v2.2C368.3,255.9,369.1,254.2,369.9,253.1"/>
	<path class="st2" d="M401.6,239.9c0,1.8-0.7,3.6-2.2,5.3c-0.8,1-1.8,1.8-2.7,2.4c-1,0.6-1.9,0.9-2.8,0.9c-1.2,0-2.2-0.4-3.1-1.3
		c-0.8-0.8-1.3-1.9-1.3-3.1c0-1.6,0.7-3.3,2-4.9c1.7-2.3,3.7-3.5,6-3.5c1.2,0,2.2,0.4,3,1.2C401.2,237.6,401.6,238.7,401.6,239.9
		L401.6,239.9z M390.9,262.8c-0.1-0.8-0.2-1.4-0.3-1.6c-0.1-0.2-0.5-0.5-1.1-0.9c-0.5-0.3-0.8-0.6-1-0.9c-0.1-0.2-0.2-0.5-0.2-0.9
		c0-0.4,0.2-0.8,0.5-1.1c0.3-0.3,1-0.6,1.9-1c0.9-0.4,1.9-0.8,3-1.5c1.1-0.6,2.2-1.4,3.4-2.4c0.8-0.6,1.5-0.9,1.9-0.9
		c0.6,0,0.9,0.2,1.2,0.7c0.2,0.5,0.3,1.4,0.3,2.8v37.8c0,0.8,0.1,1.3,0.2,1.6c0.1,0.3,0.4,0.6,0.7,0.9l0.4,0.3
		c0.6,0.4,0.9,0.9,0.9,1.4c0,0.8-0.2,1.3-0.6,1.5c-0.4,0.2-1.4,0.3-2.8,0.3h-7.3c-1.5,0-2.5-0.1-3-0.3c-0.4-0.2-0.6-0.7-0.6-1.5
		c0-0.5,0.3-1,1-1.4l0.4-0.3c0.4-0.4,0.7-0.7,0.8-1c0.1-0.3,0.2-0.8,0.2-1.6v-1.4l0.1-2.4v-24.5L390.9,262.8z M390.9,262.8"/>
	<path class="st2" d="M420.1,253.1c0.8-1,1.8-1.5,3.2-1.5c0.9,0,1.8,0.3,2.7,1c0.9,0.7,1.7,1.5,2.4,2.6c2,3.2,3.4,8.1,4.3,14.7
		c0.2,1.3,0.4,2.8,0.6,4.4c0.2,1.6,0.3,3.2,0.5,4.8c0.1,1.6,0.3,3.1,0.4,4.6c0.1,1.4,0.2,2.7,0.3,3.7c0.1,2.3,0.3,4,0.6,5.2
		c0.2,1.1,0.6,1.9,1,2.4l0.6,0.7c0.4,0.5,0.5,0.9,0.5,1.4c0,0.6-0.2,1-0.5,1.3c-0.4,0.3-1,0.5-2,0.5h-7.8c-1.5,0-2.4-0.1-2.8-0.3
		c-0.4-0.2-0.6-0.6-0.6-1.3c0-0.6,0.1-1,0.4-1.2c0.1-0.1,0.4-0.3,1-0.6c0.3-0.3,0.6-0.5,0.7-0.7c0.1-0.2,0.2-0.6,0.2-1.2v-0.5
		c-0.1-0.1-0.1-0.4-0.1-0.7c0-0.4,0-1-0.1-1.7c-0.2-2.5-0.4-5.1-0.7-7.8c-0.2-2.7-0.5-5.2-0.8-7.6c-0.3-2.4-0.6-4.6-0.9-6.5
		c-0.3-2-0.6-3.5-0.9-4.7c-0.6-2.5-1.3-3.7-2.2-3.7c-0.8,0-1.3,0.4-1.6,1.2c-0.3,0.8-0.4,2.3-0.4,4.4v27c0,1.3,0.3,2.2,1,2.5
		l0.5,0.3c0.6,0.4,0.8,0.8,0.8,1.4c0,0.8-0.2,1.3-0.6,1.5c-0.4,0.2-1.4,0.3-2.9,0.3h-7.3c-1.5,0-2.5-0.1-2.9-0.3
		c-0.4-0.2-0.6-0.7-0.6-1.5c0-0.6,0.3-1,0.8-1.4l0.5-0.3c0.6-0.3,0.9-1.2,0.9-2.5v-26.7l-0.1-2.3c-0.1-1.8-0.4-3-0.8-3.5l-1.2-1.3
		c-0.1-0.1-0.2-0.3-0.2-0.8c0-0.4,0.2-0.8,0.5-1.1c0.3-0.3,0.9-0.7,1.6-1c0.8-0.4,1.8-0.9,3-1.5c1.2-0.7,2.4-1.5,3.8-2.4
		c0.4-0.4,1-0.6,1.7-0.7h0.1c0.6,0,0.9,0.4,1.1,1.1c0.1,0.4,0.1,1.6,0.1,3.7v2.2C418.6,255.9,419.4,254.2,420.1,253.1"/>
	<path class="st2" d="M455.9,268c0-0.8,0-1.8-0.1-2.9c-0.1-0.8-0.1-1.5-0.2-2.1c0-0.6-0.1-1.3-0.3-1.9c-0.4-3.9-1.5-5.8-3.3-5.8
		c-1.1,0-1.9,0.8-2.4,2.3c-0.5,1.5-0.7,4.2-0.7,8c0,2.4,0.1,4.8,0.3,7.2c0.2,2.2,0.6,3.8,1.1,4.8c0.5,0.9,1.3,1.4,2.4,1.4
		c1,0,1.7-0.5,2.3-1.5c0.5-1,0.8-2.6,0.8-4.9V268z M446.6,304.2c0,2,0.6,3.6,2,4.8c1.3,1.2,3.1,1.7,5.3,1.7c1.8,0,3.1-0.5,4.2-1.5
		c1-1,1.5-2.3,1.5-3.9c0-1.6-0.5-2.9-1.6-3.9c-1.1-1-2.8-1.8-5.2-2.5L450,298l-1.4-0.5C447.3,300.1,446.6,302.3,446.6,304.2
		L446.6,304.2z M456.5,252.3c3,1.4,5.2,3.5,6.8,6.3c1.6,2.8,2.4,6,2.4,9.7c0,4.9-1.4,8.7-4.1,11.5c-0.4,0.4-0.9,0.8-1.4,1.2
		c-0.5,0.4-1,0.7-1.5,0.9c-1.3,0.6-2.6,0.9-3.9,1.2c-0.2,0-0.6,0-1.1,0.1c-0.5,0.1-1.2,0.2-2,0.3c-1.8,0.3-3.1,0.6-3.8,1
		c-0.7,0.4-1.1,0.9-1.1,1.5c0,0.6,0.2,1,0.7,1.3c0.5,0.3,1.6,0.7,3.3,1.1l2.6,0.6c1.3,0.4,2.3,0.6,3.1,0.8c0.8,0.2,1.4,0.4,1.9,0.6
		c0.5,0.2,1,0.4,1.4,0.6c0.4,0.2,0.9,0.5,1.5,0.7c2.1,1.2,3.8,2.8,5,4.9c1.2,2.1,1.8,4.3,1.8,6.6c0,1.8-0.4,3.5-1.1,5.1
		c-0.7,1.5-1.8,2.9-3.2,4c-1.4,1.1-3,2-4.9,2.6c-1.9,0.6-3.9,0.9-6.1,0.9c-2,0-3.8-0.3-5.6-0.8c-1.8-0.6-3.3-1.3-4.6-2.3
		c-1.3-1-2.3-2.1-3.1-3.5c-0.8-1.3-1.2-2.7-1.2-4.2c0-1,0.2-2,0.6-3.2c0.4-1.1,1-2.1,1.7-2.8c0.5-0.5,1-0.9,1.4-1.3
		c0.5-0.3,1.2-0.9,2.3-1.7c-3.8-1.8-5.7-4.1-5.7-7.2c0-1.6,0.6-3.1,1.8-4.5c1.2-1.4,2.8-2.4,4.8-3c-2.2-1.6-3.9-3.5-4.9-5.6
		c-1-2.1-1.5-4.8-1.5-7.9c0-2.4,0.3-4.6,1-6.6c0.7-2,1.6-3.7,2.7-5.2c1.2-1.4,2.6-2.6,4.2-3.4c1.7-0.8,3.4-1.2,5.3-1.2
		c0.1,0,0.3,0,0.5,0.1c0.2,0,0.4,0.1,0.8,0.1c0-0.3,0-0.5,0.1-0.7c0-0.2,0.1-0.3,0.1-0.5c0.2-1.8,0.5-3.1,0.7-3.9
		c0.3-0.8,0.7-1.7,1.3-2.6c1.2-1.8,2.9-2.6,5.1-2.6c1.5,0,2.8,0.4,3.7,1.2c1,0.8,1.4,1.9,1.4,3.2c0,1.2-0.4,2.1-1.1,2.8
		c-0.7,0.7-1.7,1-2.8,1h-0.9c-0.3,0-0.6,0-1.1-0.1c-0.1,0-0.3,0-0.5-0.1c-0.2,0-0.3-0.1-0.5-0.1c-0.9,0-1.6,0.2-1.9,0.6
		C457,250.4,456.7,251.2,456.5,252.3L456.5,252.3z M456.5,252.3"/>
</g>
</svg>
