<?xml version="1.0"?>
<svg xmlns="http://www.w3.org/2000/svg" xmlns:xlink="http://www.w3.org/1999/xlink" xmlns:svgjs="http://svgjs.com/svgjs" version="1.1" width="512" height="512" x="0" y="0" viewBox="0 0 74 74" style="enable-background:new 0 0 512 512" xml:space="preserve" class=""><circle r="37" cx="37" cy="37" fill="#f8ede5" shape="circle"/><g transform="matrix(2.143131898507868e-16,0.7,0.7,-2.143131898507868e-16,11.100000000000009,11.100000000000009)"><path xmlns="http://www.w3.org/2000/svg" d="m12 57h-9a1 1 0 0 1 -1-1v-8.883a1 1 0 0 1 1-1h9a1 1 0 0 1 1 1v8.883a1 1 0 0 1 -1 1zm-8-2h7v-6.883h-7z" fill="#f5480c" data-original="#000000" style="" class=""/><path xmlns="http://www.w3.org/2000/svg" d="m41.5 27.883h-9a1 1 0 0 1 -1-1v-8.883a1 1 0 0 1 1-1h9a1 1 0 0 1 1 1v8.883a1 1 0 0 1 -1 1zm-8-2h7v-6.883h-7z" fill="#f5480c" data-original="#000000" style="" class=""/><path xmlns="http://www.w3.org/2000/svg" d="m8.5 47.117h-2a25.869 25.869 0 0 1 26-25.676v2a23.867 23.867 0 0 0 -24 23.676z" fill="#f5480c" data-original="#000000" style="" class=""/><path xmlns="http://www.w3.org/2000/svg" d="m71 57h-9a1 1 0 0 1 -1-1v-8.883a1 1 0 0 1 1-1h9a1 1 0 0 1 1 1v8.883a1 1 0 0 1 -1 1zm-8-2h7v-6.883h-7z" fill="#f5480c" data-original="#000000" style="" class=""/><path xmlns="http://www.w3.org/2000/svg" d="m67.5 47.117h-2a23.867 23.867 0 0 0 -24-23.676v-2a25.869 25.869 0 0 1 26 25.676z" fill="#f5480c" data-original="#000000" style="" class=""/><path xmlns="http://www.w3.org/2000/svg" d="m41.5 21.441h18.5v2h-18.5z" fill="#f5480c" data-original="#000000" style="" class=""/><path xmlns="http://www.w3.org/2000/svg" d="m13 21.441h19.5v2h-19.5z" fill="#f5480c" data-original="#000000" style="" class=""/><path xmlns="http://www.w3.org/2000/svg" d="m63 26.4a3.961 3.961 0 1 1 4-3.961 3.985 3.985 0 0 1 -4 3.961zm0-5.922a1.961 1.961 0 1 0 2 1.961 1.983 1.983 0 0 0 -2-1.959z" fill="#f5480c" data-original="#000000" style="" class=""/><path xmlns="http://www.w3.org/2000/svg" d="m10 26.4a3.961 3.961 0 1 1 4-3.961 3.985 3.985 0 0 1 -4 3.961zm0-5.922a1.961 1.961 0 1 0 2 1.961 1.983 1.983 0 0 0 -2-1.959z" fill="#f5480c" data-original="#000000" style="" class=""/></g></svg>
