<?xml version="1.0"?>
<svg xmlns="http://www.w3.org/2000/svg" xmlns:xlink="http://www.w3.org/1999/xlink" xmlns:svgjs="http://svgjs.com/svgjs" version="1.1" width="512" height="512" x="0" y="0" viewBox="0 0 457 457" style="enable-background:new 0 0 512 512" xml:space="preserve" class=""><circle r="228.5" cx="228.5" cy="228.5" fill="#f8ede5" shape="circle"/><g transform="matrix(0.8,0,0,-0.8,102.09140629768342,411.30000000000007)"><path xmlns="http://www.w3.org/2000/svg" d="m73.207031 31.199219c-3.320312-6.960938-10.34375-11.390625-18.054687-11.390625-7.710938 0-14.734375 4.429687-18.050782 11.390625l-36.128906 75.765625c-.640625 1.34375-.972656 2.8125-.972656 4.300781v290.585937c.257812 30.273438 24.875 54.679688 55.148438 54.679688 30.277343 0 54.894531-24.40625 55.152343-54.679688v-290.585937c0-1.488281-.335937-2.957031-.976562-4.300781zm17.097657 90.417969v248h-70.296876v-248zm-35.148438-81.804688 29.46875 61.800781h-58.941406zm-.007812 397.1875c-19.402344-.023438-35.125-15.746094-35.148438-35.148438v-12.230468h70.300781v12.230468c-.023437 19.402344-15.746093 35.125-35.152343 35.148438zm0 0" fill="#f5480c" data-original="#000000" style="" class=""/><path xmlns="http://www.w3.org/2000/svg" d="m280.914062 0h-86.105468c-22.082032.0234375-39.976563 17.917969-40 40v377c.023437 22.082031 17.917968 39.976562 40 40h86.105468c22.078126-.023438 39.972657-17.917969 40-40v-377c-.027343-22.082031-17.921874-39.9765625-40-40zm20 417c-.015624 11.039062-8.960937 19.988281-20 20h-86.105468c-11.042969-.011719-19.988282-8.960938-20-20v-28.789062h51.179687c5.523438 0 10-4.476563 10-10 0-5.523438-4.476562-10-10-10h-51.179687v-36.324219h31.828125c5.523437 0 10-4.480469 10-10 0-5.523438-4.476563-10-10-10h-31.828125v-40.914063h51.179687c5.523438 0 10-4.480468 10-10 0-5.523437-4.476562-10-10-10h-51.179687v-36.328125h31.828125c5.523437 0 10-4.476562 10-10 0-5.523437-4.476563-10-10-10h-31.828125v-40.914062h51.179687c5.523438 0 10-4.476563 10-10 0-5.523438-4.476562-10-10-10h-51.179687v-36.332031h32.828125c5.523437 0 10-4.476563 10-10 0-5.519532-4.476563-10-10-10h-32.828125v-37.398438c.011718-11.039062 8.957031-19.988281 20-20h86.105468c11.039063.011719 19.984376 8.960938 20 20zm0 0" fill="#f5480c" data-original="#000000" style="" class=""/></g></svg>
